<svg xmlns="http://www.w3.org/2000/svg" width="64" height="64" viewBox="0 0 64 64">
  <!-- 基礎 -->
  <rect x="8" y="28" width="48" height="30" fill="#6a6060"/>
  <!-- 塔 -->
  <rect x="8" y="14" width="14" height="22" fill="#5a5050"/>
  <rect x="42" y="14" width="14" height="22" fill="#5a5050"/>
  <!-- 塔の凸凹 -->
  <rect x="8" y="10" width="4" height="6" fill="#5a5050"/>
  <rect x="13" y="10" width="4" height="6" fill="#5a5050"/>
  <rect x="18" y="10" width="4" height="6" fill="#5a5050"/>
  <rect x="42" y="10" width="4" height="6" fill="#5a5050"/>
  <rect x="47" y="10" width="4" height="6" fill="#5a5050"/>
  <rect x="52" y="10" width="4" height="6" fill="#5a5050"/>
  <!-- 入口アーチ -->
  <rect x="24" y="40" width="16" height="18" fill="#2a2020"/>
  <ellipse cx="32" cy="40" rx="8" ry="6" fill="#2a2020"/>
  <!-- 窓 -->
  <rect x="12" y="20" width="6" height="8" fill="#2a2020" rx="2"/>
  <rect x="46" y="20" width="6" height="8" fill="#2a2020" rx="2"/>
  <!-- 石のライン -->
  <line x1="8" y1="36" x2="56" y2="36" stroke="#5a5050" stroke-width="1" opacity="0.5"/>
  <line x1="8" y1="44" x2="56" y2="44" stroke="#5a5050" stroke-width="1" opacity="0.5"/>
</svg>