<svg xmlns="http://www.w3.org/2000/svg" width="64" height="64" viewBox="0 0 64 64">
  <!-- 建物 -->
  <rect x="8" y="28" width="48" height="30" fill="#d4b878"/>
  <!-- 屋根 -->
  <polygon points="32,8 4,30 60,30" fill="#7a3820"/>
  <polygon points="32,8 14,26 50,26" fill="#8a4828" opacity="0.5"/>
  <!-- 2階 -->
  <rect x="16" y="28" width="32" height="14" fill="#c8a860"/>
  <line x1="8" y1="42" x2="56" y2="42" stroke="#a88840" stroke-width="1.5"/>
  <!-- 窓 -->
  <rect x="12" y="32" width="10" height="8" fill="#a8d4f0" rx="1" opacity="0.9"/>
  <rect x="42" y="32" width="10" height="8" fill="#a8d4f0" rx="1" opacity="0.9"/>
  <rect x="20" y="46" width="8" height="7" fill="#a8d4f0" rx="1" opacity="0.9"/>
  <rect x="36" y="46" width="8" height="7" fill="#a8d4f0" rx="1" opacity="0.9"/>
  <!-- 扉 -->
  <rect x="26" y="46" width="12" height="12" fill="#7a4010" rx="1"/>
  <circle cx="34" cy="52" r="1.5" fill="#e0c060"/>
  <!-- 看板 -->
  <rect x="22" y="14" width="20" height="8" fill="#c8a030" rx="2"/>
  <line x1="27" y1="12" x2="27" y2="14" stroke="#a08020" stroke-width="1.5"/>
  <line x1="37" y1="12" x2="37" y2="14" stroke="#a08020" stroke-width="1.5"/>
</svg>