<svg xmlns="http://www.w3.org/2000/svg" width="64" height="64" viewBox="0 0 64 64">
  <!-- 海 -->
  <rect x="0" y="36" width="64" height="28" fill="#3a80c0"/>
  <line x1="0" y1="42" x2="64" y2="44" stroke="#5aa0e0" stroke-width="1.5" opacity="0.6"/>
  <line x1="0" y1="50" x2="64" y2="52" stroke="#5aa0e0" stroke-width="1" opacity="0.4"/>
  <!-- 波止場 -->
  <rect x="0" y="32" width="64" height="8" fill="#c8a464"/>
  <rect x="4" y="30" width="8" height="6" fill="#a08040"/>
  <rect x="16" y="30" width="8" height="6" fill="#a08040"/>
  <rect x="48" y="30" width="8" height="6" fill="#a08040"/>
  <!-- 船 -->
  <polygon points="28,36 36,36 38,46 26,46" fill="#d4a030"/>
  <rect x="31" y="26" width="2" height="12" fill="#c89020"/>
  <polygon points="33,26 33,32 42,32" fill="#e8e8e8" opacity="0.9"/>
  <!-- 灯台 -->
  <rect x="52" y="10" width="8" height="24" fill="#e8e0d0"/>
  <rect x="50" y="8" width="12" height="4" fill="#c84020"/>
  <circle cx="56" cy="6" r="3" fill="#f0e060" opacity="0.9"/>
  <!-- 建物 -->
  <rect x="2" y="14" width="20" height="18" fill="#d4c090"/>
  <polygon points="12,8 0,16 24,16" fill="#a03020"/>
</svg>