<svg xmlns="http://www.w3.org/2000/svg" viewBox="0 0 248 380" width="248" height="380">
  <defs>
    <linearGradient id="paper77" x1="0%" y1="0%" x2="100%" y2="100%">
      <stop offset="0%" style="stop-color:#fdf6e3"/>
      <stop offset="50%" style="stop-color:#f9eed0"/>
      <stop offset="100%" style="stop-color:#f0e0b8"/>
    </linearGradient>
    <linearGradient id="hdr77" x1="0%" y1="0%" x2="0%" y2="100%">
      <stop offset="0%" style="stop-color:#8b0000"/>
      <stop offset="100%" style="stop-color:#600000"/>
    </linearGradient>
    <linearGradient id="mask77" x1="0%" y1="0%" x2="0%" y2="100%">
      <stop offset="0%" style="stop-color:#5a2d0c;stop-opacity:0.92"/>
      <stop offset="100%" style="stop-color:#3a1a06;stop-opacity:0.96"/>
    </linearGradient>
    <clipPath id="cc77">
      <rect x="0" y="0" width="248" height="380" rx="6"/>
    </clipPath>
  </defs>

  <g clip-path="url(#cc77)">
    <!-- 和紙背景 -->
    <rect width="248" height="380" fill="url(#paper77)"/>
    <rect width="248" height="380" fill="#c8a870" opacity="0.04"/>

    <!-- 外枠 -->
    <rect x="4" y="4" width="240" height="372" rx="4" fill="none" stroke="#8b3a1a" stroke-width="2"/>
    <rect x="8" y="8" width="232" height="364" rx="3" fill="none" stroke="#8b3a1a" stroke-width="0.8"/>

    <!-- ヘッダー -->
    <rect x="4" y="4" width="240" height="50" rx="4" fill="url(#hdr77)"/>
    <rect x="4" y="42" width="240" height="12" fill="url(#hdr77)"/>
    <text x="124" y="36" text-anchor="middle"
      font-family="'Hiragino Mincho ProN','Yu Mincho','MS Mincho',serif"
      font-size="20" fill="#f8d36f" font-weight="bold" letter-spacing="2">第77首</text>

    <!-- 金線 ヘッダー下 -->
    <line x1="20" y1="54" x2="228" y2="54" stroke="#b8860b" stroke-width="1.2" opacity="0.7"/>
    <line x1="20" y1="56" x2="228" y2="56" stroke="#b8860b" stroke-width="0.5" opacity="0.5"/>

    <!-- ── 人物イラスト ── -->
    <g transform="translate(0,0)">

    <ellipse cx="84" cy="157" rx="55" ry="6" fill="#C8A870" opacity="0.3"/>
    <path d="M28,157 L33,102 Q58,92 84,90 Q110,92 135,102 L140,157 Z" fill="#7B1A4A"/>
    <path d="M33,102 L10,120 L8,152 L28,157 Z" fill="#7B1A4A"/>
    <path d="M135,102 L158,120 L160,152 L140,157 Z" fill="#7B1A4A"/>
    <path d="M70,90 L66,128 L74,128 L74,90 Z" fill="#C41E3A"/>
    <path d="M94,90 L98,128 L106,128 L102,90 Z" fill="#C41E3A"/>
    <path d="M74,90 L74,118 L94,118 L94,90 Z" fill="#F8ECD4"/>
    <!-- 頭部 -->
    <ellipse cx="84" cy="79" rx="15" ry="17" fill="#F2C080"/>
    <!-- 冠（かんむり）- 平たい公家冠 -->
    <rect x="68" y="62" width="32" height="9" rx="2" fill="#1a1808"/>
    <rect x="71" y="55" width="26" height="8" rx="1.5" fill="#1a1808"/>
    <path d="M80,55 L84,36 L88,55 Z" fill="#1a1808"/>
    <line x1="84" y1="38" x2="84" y2="55" stroke="#B8860B" stroke-width="1"/>
    <!-- 冠の金線装飾 -->
    <line x1="68" y1="66" x2="100" y2="66" stroke="#B8860B" stroke-width="0.8" opacity="0.7"/>
    <!-- 眼・眉・口 -->
    <ellipse cx="78" cy="81" rx="2.8" ry="2" fill="#1a0800"/>
    <ellipse cx="90" cy="81" rx="2.8" ry="2" fill="#1a0800"/>
    <path d="M74,76 Q78,73 81,76" stroke="#1a0800" stroke-width="1.3" fill="none"/>
    <path d="M87,76 Q90,73 94,76" stroke="#1a0800" stroke-width="1.3" fill="none"/>
    <path d="M81,88 Q84,91 87,88" stroke="#8B3A2A" stroke-width="1.2" fill="none"/>
    <!-- 笏 -->
    <rect x="106" y="98" width="5" height="56" rx="2.5" fill="#A08858"/>
    </g>

    <!-- イラスト区切り線 -->
    <line x1="20" y1="162" x2="228" y2="162" stroke="#8b3a1a" stroke-width="0.8" opacity="0.5"/>

    <!-- 上の句 ラベル -->
    <text x="124" y="178" text-anchor="middle"
      font-family="'Hiragino Mincho ProN','Yu Mincho','MS Mincho',serif"
      font-size="9" fill="#8b3a1a" opacity="0.7" letter-spacing="3">上 の 句</text>

    <!-- 上の句（縦書き） -->
<text x="214" y="100" font-family="'Hiragino Mincho ProN','Yu Mincho','MS Mincho',serif" font-size="14" fill="#1a0a00" text-anchor="middle">瀬</text><text x="214" y="117" font-family="'Hiragino Mincho ProN','Yu Mincho','MS Mincho',serif" font-size="14" fill="#1a0a00" text-anchor="middle">を</text><text x="214" y="134" font-family="'Hiragino Mincho ProN','Yu Mincho','MS Mincho',serif" font-size="14" fill="#1a0a00" text-anchor="middle">早</text><text x="214" y="151" font-family="'Hiragino Mincho ProN','Yu Mincho','MS Mincho',serif" font-size="14" fill="#1a0a00" text-anchor="middle">み</text><text x="214" y="168" font-family="'Hiragino Mincho ProN','Yu Mincho','MS Mincho',serif" font-size="14" fill="#1a0a00" text-anchor="middle">岩</text><text x="196" y="100" font-family="'Hiragino Mincho ProN','Yu Mincho','MS Mincho',serif" font-size="14" fill="#1a0a00" text-anchor="middle">に</text><text x="196" y="117" font-family="'Hiragino Mincho ProN','Yu Mincho','MS Mincho',serif" font-size="14" fill="#1a0a00" text-anchor="middle">せ</text><text x="196" y="134" font-family="'Hiragino Mincho ProN','Yu Mincho','MS Mincho',serif" font-size="14" fill="#1a0a00" text-anchor="middle">か</text><text x="196" y="151" font-family="'Hiragino Mincho ProN','Yu Mincho','MS Mincho',serif" font-size="14" fill="#1a0a00" text-anchor="middle">る</text><text x="178" y="100" font-family="'Hiragino Mincho ProN','Yu Mincho','MS Mincho',serif" font-size="14" fill="#1a0a00" text-anchor="middle">る</text><text x="178" y="117" font-family="'Hiragino Mincho ProN','Yu Mincho','MS Mincho',serif" font-size="14" fill="#1a0a00" text-anchor="middle">滝</text><text x="178" y="134" font-family="'Hiragino Mincho ProN','Yu Mincho','MS Mincho',serif" font-size="14" fill="#1a0a00" text-anchor="middle">川</text><text x="178" y="151" font-family="'Hiragino Mincho ProN','Yu Mincho','MS Mincho',serif" font-size="14" fill="#1a0a00" text-anchor="middle">の</text>

    <!-- 作者名（縦書き） -->
<text x="20" y="100" font-family="'Hiragino Mincho ProN','Yu Mincho','MS Mincho',serif" font-size="11" fill="#3a1a00" text-anchor="middle">崇</text><text x="20" y="114" font-family="'Hiragino Mincho ProN','Yu Mincho','MS Mincho',serif" font-size="11" fill="#3a1a00" text-anchor="middle">徳</text><text x="20" y="128" font-family="'Hiragino Mincho ProN','Yu Mincho','MS Mincho',serif" font-size="11" fill="#3a1a00" text-anchor="middle">院</text>

    <!-- 金線区切り -->
    <line x1="20" y1="295" x2="228" y2="295" stroke="#b8860b" stroke-width="1" opacity="0.6"/>
    <line x1="20" y1="297" x2="228" y2="297" stroke="#b8860b" stroke-width="0.4" opacity="0.4"/>

    <!-- 下の句マスクエリア -->
    <rect x="8" y="299" width="232" height="73" rx="2" fill="url(#mask77)"/>

    <!-- マスク斜め格子 -->
    <g opacity="0.15">
      <line x1="8" y1="299" x2="240" y2="372" stroke="#f8d36f" stroke-width="0.8"/>
      <line x1="8" y1="315" x2="240" y2="372" stroke="#f8d36f" stroke-width="0.8"/>
      <line x1="8" y1="331" x2="240" y2="372" stroke="#f8d36f" stroke-width="0.8"/>
      <line x1="8" y1="347" x2="240" y2="372" stroke="#f8d36f" stroke-width="0.8"/>
      <line x1="30" y1="299" x2="8" y2="320" stroke="#f8d36f" stroke-width="0.8"/>
      <line x1="60" y1="299" x2="8" y2="352" stroke="#f8d36f" stroke-width="0.8"/>
      <line x1="90" y1="299" x2="8" y2="372" stroke="#f8d36f" stroke-width="0.8"/>
      <line x1="120" y1="299" x2="45" y2="372" stroke="#f8d36f" stroke-width="0.8"/>
      <line x1="150" y1="299" x2="76" y2="372" stroke="#f8d36f" stroke-width="0.8"/>
      <line x1="180" y1="299" x2="106" y2="372" stroke="#f8d36f" stroke-width="0.8"/>
      <line x1="210" y1="299" x2="136" y2="372" stroke="#f8d36f" stroke-width="0.8"/>
      <line x1="240" y1="299" x2="166" y2="372" stroke="#f8d36f" stroke-width="0.8"/>
      <line x1="240" y1="323" x2="226" y2="372" stroke="#f8d36f" stroke-width="0.8"/>
    </g>

    <!-- 下の句マスクラベル -->
    <text x="124" y="332" text-anchor="middle"
      font-family="'Hiragino Mincho ProN','Yu Mincho','MS Mincho',serif"
      font-size="11" fill="#f8d36f" opacity="0.85" letter-spacing="2">下の句は取り札で</text>
    <text x="124" y="350" text-anchor="middle"
      font-family="'Hiragino Mincho ProN','Yu Mincho','MS Mincho',serif"
      font-size="9" fill="#d4b870" opacity="0.7">— find the matching card —</text>

    <!-- 下部金線 -->
    <line x1="20" y1="369" x2="228" y2="369" stroke="#b8860b" stroke-width="0.8" opacity="0.5"/>
  </g>
</svg>