<svg xmlns="http://www.w3.org/2000/svg" viewBox="0 0 248 380" width="248" height="380">
  <defs>
    <linearGradient id="paper42" x1="0%" y1="0%" x2="100%" y2="100%">
      <stop offset="0%" style="stop-color:#fdf6e3"/>
      <stop offset="50%" style="stop-color:#f9eed0"/>
      <stop offset="100%" style="stop-color:#f0e0b8"/>
    </linearGradient>
    <linearGradient id="hdr42" x1="0%" y1="0%" x2="0%" y2="100%">
      <stop offset="0%" style="stop-color:#8b0000"/>
      <stop offset="100%" style="stop-color:#600000"/>
    </linearGradient>
    <linearGradient id="mask42" x1="0%" y1="0%" x2="0%" y2="100%">
      <stop offset="0%" style="stop-color:#5a2d0c;stop-opacity:0.92"/>
      <stop offset="100%" style="stop-color:#3a1a06;stop-opacity:0.96"/>
    </linearGradient>
    <clipPath id="cc42">
      <rect x="0" y="0" width="248" height="380" rx="6"/>
    </clipPath>
  </defs>

  <g clip-path="url(#cc42)">
    <!-- 和紙背景 -->
    <rect width="248" height="380" fill="url(#paper42)"/>
    <rect width="248" height="380" fill="#c8a870" opacity="0.04"/>

    <!-- 外枠 -->
    <rect x="4" y="4" width="240" height="372" rx="4" fill="none" stroke="#8b3a1a" stroke-width="2"/>
    <rect x="8" y="8" width="232" height="364" rx="3" fill="none" stroke="#8b3a1a" stroke-width="0.8"/>

    <!-- ヘッダー -->
    <rect x="4" y="4" width="240" height="50" rx="4" fill="url(#hdr42)"/>
    <rect x="4" y="42" width="240" height="12" fill="url(#hdr42)"/>
    <text x="124" y="36" text-anchor="middle"
      font-family="'Hiragino Mincho ProN','Yu Mincho','MS Mincho',serif"
      font-size="20" fill="#f8d36f" font-weight="bold" letter-spacing="2">第42首</text>

    <!-- 金線 ヘッダー下 -->
    <line x1="20" y1="54" x2="228" y2="54" stroke="#b8860b" stroke-width="1.2" opacity="0.7"/>
    <line x1="20" y1="56" x2="228" y2="56" stroke="#b8860b" stroke-width="0.5" opacity="0.5"/>

    <!-- ── 人物イラスト ── -->
    <g transform="translate(0,0)">

    <!-- 台座（畳風） -->
    <ellipse cx="84" cy="157" rx="55" ry="6" fill="#C8A870" opacity="0.3"/>
    <!-- 裾・袴 -->
    <path d="M32,157 L36,105 Q58,96 84,94 Q110,96 132,105 L136,157 Z" fill="#1B4D8E"/>
    <!-- 左袖 -->
    <path d="M36,105 L14,122 L12,152 L32,157 Z" fill="#1B4D8E"/>
    <!-- 右袖 -->
    <path d="M132,105 L154,122 L156,152 L136,157 Z" fill="#1B4D8E"/>
    <!-- 第2層（衿） -->
    <path d="M70,94 L66,130 L74,130 L74,94 Z" fill="#8B0000"/>
    <path d="M92,94 L94,130 L102,130 L98,94 Z" fill="#8B0000"/>
    <!-- 第3層（内衣） -->
    <path d="M74,94 L74,120 L94,120 L94,94 Z" fill="#FFF8E7"/>
    <!-- 頭部 -->
    <ellipse cx="84" cy="82" rx="14" ry="16" fill="#F2C080"/>
    <!-- 立烏帽子 -->
    <path d="M74,72 Q76,44 84,36 Q92,44 94,72 Z" fill="#1a1808"/>
    <ellipse cx="84" cy="72" rx="13" ry="4.5" fill="#232110"/>
    <!-- 目 -->
    <ellipse cx="78" cy="83" rx="2.8" ry="2" fill="#1a0800"/>
    <ellipse cx="90" cy="83" rx="2.8" ry="2" fill="#1a0800"/>
    <!-- 眉 -->
    <path d="M74,78 Q78,75 81,78" stroke="#1a0800" stroke-width="1.3" fill="none"/>
    <path d="M87,78 Q90,75 94,78" stroke="#1a0800" stroke-width="1.3" fill="none"/>
    <!-- 口 -->
    <path d="M81,90 Q84,93 87,90" stroke="#8B3A2A" stroke-width="1.2" fill="none"/>
    <!-- 笏 -->
    <rect x="104" y="100" width="5" height="54" rx="2.5" fill="#A08858"/>
    <!-- 衣紋の線 -->
    <path d="M80,94 L76,140" stroke="#8B0000" stroke-width="0.7" opacity="0.5"/>
    <path d="M88,94 L92,140" stroke="#8B0000" stroke-width="0.7" opacity="0.5"/>
    </g>

    <!-- イラスト区切り線 -->
    <line x1="20" y1="162" x2="228" y2="162" stroke="#8b3a1a" stroke-width="0.8" opacity="0.5"/>

    <!-- 上の句 ラベル -->
    <text x="124" y="178" text-anchor="middle"
      font-family="'Hiragino Mincho ProN','Yu Mincho','MS Mincho',serif"
      font-size="9" fill="#8b3a1a" opacity="0.7" letter-spacing="3">上 の 句</text>

    <!-- 上の句（縦書き） -->
<text x="214" y="100" font-family="'Hiragino Mincho ProN','Yu Mincho','MS Mincho',serif" font-size="14" fill="#1a0a00" text-anchor="middle">契</text><text x="214" y="117" font-family="'Hiragino Mincho ProN','Yu Mincho','MS Mincho',serif" font-size="14" fill="#1a0a00" text-anchor="middle">り</text><text x="214" y="134" font-family="'Hiragino Mincho ProN','Yu Mincho','MS Mincho',serif" font-size="14" fill="#1a0a00" text-anchor="middle">き</text><text x="214" y="151" font-family="'Hiragino Mincho ProN','Yu Mincho','MS Mincho',serif" font-size="14" fill="#1a0a00" text-anchor="middle">な</text><text x="214" y="168" font-family="'Hiragino Mincho ProN','Yu Mincho','MS Mincho',serif" font-size="14" fill="#1a0a00" text-anchor="middle">か</text><text x="196" y="100" font-family="'Hiragino Mincho ProN','Yu Mincho','MS Mincho',serif" font-size="14" fill="#1a0a00" text-anchor="middle">た</text><text x="196" y="117" font-family="'Hiragino Mincho ProN','Yu Mincho','MS Mincho',serif" font-size="14" fill="#1a0a00" text-anchor="middle">み</text><text x="196" y="134" font-family="'Hiragino Mincho ProN','Yu Mincho','MS Mincho',serif" font-size="14" fill="#1a0a00" text-anchor="middle">に</text><text x="196" y="151" font-family="'Hiragino Mincho ProN','Yu Mincho','MS Mincho',serif" font-size="14" fill="#1a0a00" text-anchor="middle">袖</text><text x="196" y="168" font-family="'Hiragino Mincho ProN','Yu Mincho','MS Mincho',serif" font-size="14" fill="#1a0a00" text-anchor="middle">を</text><text x="178" y="100" font-family="'Hiragino Mincho ProN','Yu Mincho','MS Mincho',serif" font-size="14" fill="#1a0a00" text-anchor="middle">し</text><text x="178" y="117" font-family="'Hiragino Mincho ProN','Yu Mincho','MS Mincho',serif" font-size="14" fill="#1a0a00" text-anchor="middle">ぼ</text><text x="178" y="134" font-family="'Hiragino Mincho ProN','Yu Mincho','MS Mincho',serif" font-size="14" fill="#1a0a00" text-anchor="middle">り</text><text x="178" y="151" font-family="'Hiragino Mincho ProN','Yu Mincho','MS Mincho',serif" font-size="14" fill="#1a0a00" text-anchor="middle">つ</text><text x="178" y="168" font-family="'Hiragino Mincho ProN','Yu Mincho','MS Mincho',serif" font-size="14" fill="#1a0a00" text-anchor="middle">つ</text>

    <!-- 作者名（縦書き） -->
<text x="20" y="100" font-family="'Hiragino Mincho ProN','Yu Mincho','MS Mincho',serif" font-size="11" fill="#3a1a00" text-anchor="middle">清</text><text x="20" y="114" font-family="'Hiragino Mincho ProN','Yu Mincho','MS Mincho',serif" font-size="11" fill="#3a1a00" text-anchor="middle">原</text><text x="20" y="128" font-family="'Hiragino Mincho ProN','Yu Mincho','MS Mincho',serif" font-size="11" fill="#3a1a00" text-anchor="middle">元</text><text x="20" y="142" font-family="'Hiragino Mincho ProN','Yu Mincho','MS Mincho',serif" font-size="11" fill="#3a1a00" text-anchor="middle">輔</text>

    <!-- 金線区切り -->
    <line x1="20" y1="295" x2="228" y2="295" stroke="#b8860b" stroke-width="1" opacity="0.6"/>
    <line x1="20" y1="297" x2="228" y2="297" stroke="#b8860b" stroke-width="0.4" opacity="0.4"/>

    <!-- 下の句マスクエリア -->
    <rect x="8" y="299" width="232" height="73" rx="2" fill="url(#mask42)"/>

    <!-- マスク斜め格子 -->
    <g opacity="0.15">
      <line x1="8" y1="299" x2="240" y2="372" stroke="#f8d36f" stroke-width="0.8"/>
      <line x1="8" y1="315" x2="240" y2="372" stroke="#f8d36f" stroke-width="0.8"/>
      <line x1="8" y1="331" x2="240" y2="372" stroke="#f8d36f" stroke-width="0.8"/>
      <line x1="8" y1="347" x2="240" y2="372" stroke="#f8d36f" stroke-width="0.8"/>
      <line x1="30" y1="299" x2="8" y2="320" stroke="#f8d36f" stroke-width="0.8"/>
      <line x1="60" y1="299" x2="8" y2="352" stroke="#f8d36f" stroke-width="0.8"/>
      <line x1="90" y1="299" x2="8" y2="372" stroke="#f8d36f" stroke-width="0.8"/>
      <line x1="120" y1="299" x2="45" y2="372" stroke="#f8d36f" stroke-width="0.8"/>
      <line x1="150" y1="299" x2="76" y2="372" stroke="#f8d36f" stroke-width="0.8"/>
      <line x1="180" y1="299" x2="106" y2="372" stroke="#f8d36f" stroke-width="0.8"/>
      <line x1="210" y1="299" x2="136" y2="372" stroke="#f8d36f" stroke-width="0.8"/>
      <line x1="240" y1="299" x2="166" y2="372" stroke="#f8d36f" stroke-width="0.8"/>
      <line x1="240" y1="323" x2="226" y2="372" stroke="#f8d36f" stroke-width="0.8"/>
    </g>

    <!-- 下の句マスクラベル -->
    <text x="124" y="332" text-anchor="middle"
      font-family="'Hiragino Mincho ProN','Yu Mincho','MS Mincho',serif"
      font-size="11" fill="#f8d36f" opacity="0.85" letter-spacing="2">下の句は取り札で</text>
    <text x="124" y="350" text-anchor="middle"
      font-family="'Hiragino Mincho ProN','Yu Mincho','MS Mincho',serif"
      font-size="9" fill="#d4b870" opacity="0.7">— find the matching card —</text>

    <!-- 下部金線 -->
    <line x1="20" y1="369" x2="228" y2="369" stroke="#b8860b" stroke-width="0.8" opacity="0.5"/>
  </g>
</svg>