<svg xmlns="http://www.w3.org/2000/svg" viewBox="0 0 248 380" width="248" height="380">
  <defs>
    <linearGradient id="paper11" x1="0%" y1="0%" x2="100%" y2="100%">
      <stop offset="0%" style="stop-color:#fdf6e3"/>
      <stop offset="50%" style="stop-color:#f9eed0"/>
      <stop offset="100%" style="stop-color:#f0e0b8"/>
    </linearGradient>
    <linearGradient id="hdr11" x1="0%" y1="0%" x2="0%" y2="100%">
      <stop offset="0%" style="stop-color:#8b0000"/>
      <stop offset="100%" style="stop-color:#600000"/>
    </linearGradient>
    <linearGradient id="mask11" x1="0%" y1="0%" x2="0%" y2="100%">
      <stop offset="0%" style="stop-color:#5a2d0c;stop-opacity:0.92"/>
      <stop offset="100%" style="stop-color:#3a1a06;stop-opacity:0.96"/>
    </linearGradient>
    <filter id="aged11">
      <feTurbulence type="fractalNoise" baseFrequency="0.65" numOctaves="3" result="noise"/>
      <feColorMatrix type="saturate" values="0" in="noise" result="grayNoise"/>
      <feBlend in="SourceGraphic" in2="grayNoise" mode="multiply" result="blended"/>
      <feComponentTransfer in="blended">
        <feFuncA type="linear" slope="1"/>
      </feComponentTransfer>
    </filter>
    <clipPath id="cardClip11">
      <rect x="0" y="0" width="248" height="380" rx="6"/>
    </clipPath>
  </defs>

  <!-- 本体 -->
  <g clip-path="url(#cardClip11)">
    <!-- 和紙背景 -->
    <rect width="248" height="380" fill="url(#paper11)"/>

    <!-- 経年テクスチャ（薄く重ねる）-->
    <rect width="248" height="380" fill="#c8a870" opacity="0.06"/>

    <!-- 外枠 -->
    <rect x="4" y="4" width="240" height="372" rx="4" fill="none" stroke="#8b3a1a" stroke-width="2"/>
    <!-- 内枠 -->
    <rect x="8" y="8" width="232" height="364" rx="3" fill="none" stroke="#8b3a1a" stroke-width="0.8"/>

    <!-- ヘッダー（歌番号エリア）-->
    <rect x="4" y="4" width="240" height="50" rx="4" fill="url(#hdr11)"/>
    <rect x="4" y="42" width="240" height="12" fill="url(#hdr11)"/>

    <!-- 歌番号 -->
    <text x="124" y="36" text-anchor="middle"
      font-family="'Hiragino Mincho ProN','Yu Mincho','MS Mincho',serif"
      font-size="20" fill="#f8d36f" font-weight="bold" letter-spacing="2">第11首</text>

    <!-- 金線装飾 ヘッダー下 -->
    <line x1="20" y1="54" x2="228" y2="54" stroke="#b8860b" stroke-width="1.2" opacity="0.7"/>
    <line x1="20" y1="56" x2="228" y2="56" stroke="#b8860b" stroke-width="0.5" opacity="0.5"/>

    <!-- イラスト装飾エリア（中央上部）-->
    
  <g opacity="0.8" transform="translate(140,95)">
    <!-- 波 -->
    <path d="M-65,20 C-50,5 -35,5 -20,20 C-5,35 10,35 25,20 C40,5 55,5 65,20" fill="none" stroke="#2980b9" stroke-width="2.5"/>
    <path d="M-65,30 C-50,15 -35,15 -20,30 C-5,45 10,45 25,30 C40,15 55,15 65,30" fill="none" stroke="#3498db" stroke-width="2"/>
    <path d="M-65,40 C-50,25 -35,25 -20,40 C-5,55 10,55 25,40" fill="none" stroke="#2980b9" stroke-width="1.5" opacity="0.7"/>
    <!-- 波頭 -->
    <path d="M-20,20 C-18,12 -12,10 -8,14" fill="none" stroke="#a8d8f0" stroke-width="2"/>
    <path d="M25,20 C27,12 33,10 37,14" fill="none" stroke="#a8d8f0" stroke-width="2"/>
    <!-- 月 -->
    <circle cx="20" cy="-35" r="18" fill="#f0e8c0" opacity="0.75"/>
    <circle cx="28" cy="-40" r="14" fill="#e8d8a8" opacity="0.3"/>
    <!-- 舟 -->
    <path d="M-30,-5 Q-20,-12 -10,-12 Q0,-12 10,-5 Z" fill="#5a3a1a" opacity="0.6"/>
    <line x1="-10" y1="-12" x2="-10" y2="-28" stroke="#5a3a1a" stroke-width="1.5" opacity="0.6"/>
    <path d="M-10,-28 L-10,-13 L5,-18 Z" fill="#c8a860" opacity="0.5"/>
  </g>

    <!-- イラスト区切り線 -->
    <line x1="20" y1="160" x2="228" y2="160" stroke="#8b3a1a" stroke-width="0.8" opacity="0.5"/>

    <!-- 上の句エリア ラベル -->
    <text x="124" y="178" text-anchor="middle"
      font-family="'Hiragino Mincho ProN','Yu Mincho','MS Mincho',serif"
      font-size="9" fill="#8b3a1a" opacity="0.7" letter-spacing="3">上 の 句</text>

    <!-- 上の句（縦書き）-->
    <text x="214" y="100" font-family="'Hiragino Mincho ProN','Yu Mincho','MS Mincho',serif" font-size="14" fill="#1a0a00" text-anchor="middle">わ</text><text x="214" y="117" font-family="'Hiragino Mincho ProN','Yu Mincho','MS Mincho',serif" font-size="14" fill="#1a0a00" text-anchor="middle">た</text><text x="214" y="134" font-family="'Hiragino Mincho ProN','Yu Mincho','MS Mincho',serif" font-size="14" fill="#1a0a00" text-anchor="middle">の</text><text x="214" y="151" font-family="'Hiragino Mincho ProN','Yu Mincho','MS Mincho',serif" font-size="14" fill="#1a0a00" text-anchor="middle">原</text><text x="196" y="100" font-family="'Hiragino Mincho ProN','Yu Mincho','MS Mincho',serif" font-size="14" fill="#1a0a00" text-anchor="middle">八</text><text x="196" y="117" font-family="'Hiragino Mincho ProN','Yu Mincho','MS Mincho',serif" font-size="14" fill="#1a0a00" text-anchor="middle">十</text><text x="196" y="134" font-family="'Hiragino Mincho ProN','Yu Mincho','MS Mincho',serif" font-size="14" fill="#1a0a00" text-anchor="middle">島</text><text x="196" y="151" font-family="'Hiragino Mincho ProN','Yu Mincho','MS Mincho',serif" font-size="14" fill="#1a0a00" text-anchor="middle">か</text><text x="196" y="168" font-family="'Hiragino Mincho ProN','Yu Mincho','MS Mincho',serif" font-size="14" fill="#1a0a00" text-anchor="middle">け</text><text x="196" y="185" font-family="'Hiragino Mincho ProN','Yu Mincho','MS Mincho',serif" font-size="14" fill="#1a0a00" text-anchor="middle">て</text><text x="178" y="100" font-family="'Hiragino Mincho ProN','Yu Mincho','MS Mincho',serif" font-size="14" fill="#1a0a00" text-anchor="middle">漕</text><text x="178" y="117" font-family="'Hiragino Mincho ProN','Yu Mincho','MS Mincho',serif" font-size="14" fill="#1a0a00" text-anchor="middle">ぎ</text><text x="178" y="134" font-family="'Hiragino Mincho ProN','Yu Mincho','MS Mincho',serif" font-size="14" fill="#1a0a00" text-anchor="middle">出</text><text x="178" y="151" font-family="'Hiragino Mincho ProN','Yu Mincho','MS Mincho',serif" font-size="14" fill="#1a0a00" text-anchor="middle">で</text><text x="178" y="168" font-family="'Hiragino Mincho ProN','Yu Mincho','MS Mincho',serif" font-size="14" fill="#1a0a00" text-anchor="middle">ぬ</text><text x="178" y="185" font-family="'Hiragino Mincho ProN','Yu Mincho','MS Mincho',serif" font-size="14" fill="#1a0a00" text-anchor="middle">と</text>

    <!-- 作者名（縦書き）-->
    <text x="20" y="100" font-family="'Hiragino Mincho ProN','Yu Mincho','MS Mincho',serif" font-size="11" fill="#3a1a00" text-anchor="middle">参</text><text x="20" y="114" font-family="'Hiragino Mincho ProN','Yu Mincho','MS Mincho',serif" font-size="11" fill="#3a1a00" text-anchor="middle">議</text><text x="20" y="128" font-family="'Hiragino Mincho ProN','Yu Mincho','MS Mincho',serif" font-size="11" fill="#3a1a00" text-anchor="middle">篁</text>

    <!-- 金線区切り -->
    <line x1="20" y1="295" x2="228" y2="295" stroke="#b8860b" stroke-width="1" opacity="0.6"/>
    <line x1="20" y1="297" x2="228" y2="297" stroke="#b8860b" stroke-width="0.4" opacity="0.4"/>

    <!-- 下の句マスクエリア -->
    <rect x="8" y="299" width="232" height="73" rx="2" fill="url(#mask11)"/>

    <!-- マスク装飾：斜め格子 -->
    <g opacity="0.15">
      <line x1="8" y1="299" x2="240" y2="372" stroke="#f8d36f" stroke-width="0.8"/>
      <line x1="8" y1="315" x2="240" y2="372" stroke="#f8d36f" stroke-width="0.8"/>
      <line x1="8" y1="331" x2="240" y2="372" stroke="#f8d36f" stroke-width="0.8"/>
      <line x1="8" y1="347" x2="240" y2="372" stroke="#f8d36f" stroke-width="0.8"/>
      <line x1="8" y1="363" x2="96" y2="372" stroke="#f8d36f" stroke-width="0.8"/>
      <line x1="8" y1="299" x2="8" y2="299" stroke="#f8d36f" stroke-width="0.8"/>
      <line x1="30" y1="299" x2="8" y2="320" stroke="#f8d36f" stroke-width="0.8"/>
      <line x1="60" y1="299" x2="8" y2="352" stroke="#f8d36f" stroke-width="0.8"/>
      <line x1="90" y1="299" x2="8" y2="372" stroke="#f8d36f" stroke-width="0.8"/>
      <line x1="120" y1="299" x2="45" y2="372" stroke="#f8d36f" stroke-width="0.8"/>
      <line x1="150" y1="299" x2="76" y2="372" stroke="#f8d36f" stroke-width="0.8"/>
      <line x1="180" y1="299" x2="106" y2="372" stroke="#f8d36f" stroke-width="0.8"/>
      <line x1="210" y1="299" x2="136" y2="372" stroke="#f8d36f" stroke-width="0.8"/>
      <line x1="240" y1="299" x2="166" y2="372" stroke="#f8d36f" stroke-width="0.8"/>
      <line x1="240" y1="306" x2="196" y2="372" stroke="#f8d36f" stroke-width="0.8"/>
      <line x1="240" y1="323" x2="226" y2="372" stroke="#f8d36f" stroke-width="0.8"/>
    </g>

    <!-- マスクラベル（下の句は取り札で）-->
    <text x="124" y="332" text-anchor="middle"
      font-family="'Hiragino Mincho ProN','Yu Mincho','MS Mincho',serif"
      font-size="11" fill="#f8d36f" opacity="0.85" letter-spacing="2">下の句は取り札で</text>
    <text x="124" y="350" text-anchor="middle"
      font-family="'Hiragino Mincho ProN','Yu Mincho',sans-serif"
      font-size="9" fill="#d4b870" opacity="0.7">— find the matching card —</text>

    <!-- 下部金線 -->
    <line x1="20" y1="369" x2="228" y2="369" stroke="#b8860b" stroke-width="0.8" opacity="0.5"/>
  </g>
</svg>