<svg xmlns="http://www.w3.org/2000/svg" viewBox="0 0 248 380" width="248" height="380">
  <defs>
    <linearGradient id="paper72" x1="0%" y1="0%" x2="100%" y2="100%">
      <stop offset="0%" style="stop-color:#fdf6e3"/>
      <stop offset="50%" style="stop-color:#f9eed0"/>
      <stop offset="100%" style="stop-color:#f0e0b8"/>
    </linearGradient>
    <linearGradient id="hdr72" x1="0%" y1="0%" x2="0%" y2="100%">
      <stop offset="0%" style="stop-color:#8b0000"/>
      <stop offset="100%" style="stop-color:#600000"/>
    </linearGradient>
    <linearGradient id="mask72" x1="0%" y1="0%" x2="0%" y2="100%">
      <stop offset="0%" style="stop-color:#5a2d0c;stop-opacity:0.92"/>
      <stop offset="100%" style="stop-color:#3a1a06;stop-opacity:0.96"/>
    </linearGradient>
    <clipPath id="cc72">
      <rect x="0" y="0" width="248" height="380" rx="6"/>
    </clipPath>
  </defs>

  <g clip-path="url(#cc72)">
    <!-- 和紙背景 -->
    <rect width="248" height="380" fill="url(#paper72)"/>
    <rect width="248" height="380" fill="#c8a870" opacity="0.04"/>

    <!-- 外枠 -->
    <rect x="4" y="4" width="240" height="372" rx="4" fill="none" stroke="#8b3a1a" stroke-width="2"/>
    <rect x="8" y="8" width="232" height="364" rx="3" fill="none" stroke="#8b3a1a" stroke-width="0.8"/>

    <!-- ヘッダー -->
    <rect x="4" y="4" width="240" height="50" rx="4" fill="url(#hdr72)"/>
    <rect x="4" y="42" width="240" height="12" fill="url(#hdr72)"/>
    <text x="124" y="36" text-anchor="middle"
      font-family="'Hiragino Mincho ProN','Yu Mincho','MS Mincho',serif"
      font-size="20" fill="#f8d36f" font-weight="bold" letter-spacing="2">第72首</text>

    <!-- 金線 ヘッダー下 -->
    <line x1="20" y1="54" x2="228" y2="54" stroke="#b8860b" stroke-width="1.2" opacity="0.7"/>
    <line x1="20" y1="56" x2="228" y2="56" stroke="#b8860b" stroke-width="0.5" opacity="0.5"/>

    <!-- ── 人物イラスト ── -->
    <g transform="translate(0,0)">

    <ellipse cx="84" cy="157" rx="62" ry="6" fill="#C8A870" opacity="0.3"/>
    <!-- 裾（十二単・広がり） -->
    <path d="M16,157 L25,115 Q54,100 84,98 Q114,100 143,115 L152,157 Z" fill="#8B4513"/>
    <!-- 左袖 -->
    <path d="M25,115 L4,130 L2,155 L16,157 Z" fill="#8B4513"/>
    <!-- 右袖 -->
    <path d="M143,115 L164,130 L166,155 L152,157 Z" fill="#8B4513"/>
    <!-- 第2層 -->
    <path d="M66,98 L60,142 L70,142 L70,98 Z" fill="#1B4D8E"/>
    <path d="M102,98 L108,142 L118,142 L114,98 Z" fill="#1B4D8E"/>
    <path d="M70,98 L70,130 L114,130 L114,98 Z" fill="#FFF8F0"/>
    <!-- 裾の重ね（色の帯） -->
    <line x1="16" y1="152" x2="152" y2="152" stroke="#1B4D8E" stroke-width="3" opacity="0.5"/>
    <line x1="14" y1="156" x2="154" y2="156" stroke="#8B4513" stroke-width="2" opacity="0.4"/>
    <!-- 頭部 -->
    <ellipse cx="84" cy="82" rx="13" ry="15" fill="#F5DABC"/>
    <!-- 長い黒髪（垂らし） -->
    <path d="M72,78 Q62,90 58,120 Q54,148 56,157 L64,157 Q62,140 65,118 Q68,94 74,82 Z" fill="#1a1205"/>
    <path d="M96,78 Q106,90 110,120 Q114,148 112,157 L104,157 Q106,140 103,118 Q100,94 94,82 Z" fill="#1a1205"/>
    <!-- 前髪 -->
    <path d="M73,72 Q84,68 95,72" stroke="#1a1205" stroke-width="4" fill="none"/>
    <!-- 目 -->
    <ellipse cx="79" cy="84" rx="2.5" ry="1.7" fill="#1a0800"/>
    <ellipse cx="89" cy="84" rx="2.5" ry="1.7" fill="#1a0800"/>
    <!-- 眉（細い） -->
    <path d="M76,80 Q79,78 82,80" stroke="#1a0800" stroke-width="1" fill="none"/>
    <path d="M86,80 Q89,78 92,80" stroke="#1a0800" stroke-width="1" fill="none"/>
    <!-- 口（小さく） -->
    <path d="M82,89 Q84,92 86,89" stroke="#8B3A2A" stroke-width="1" fill="none"/>
    <!-- 扇 -->
    <path d="M106,112 L124,90" stroke="#B8860B" stroke-width="2" stroke-linecap="round"/>
    <path d="M106,112 Q122,88 136,96" stroke="#B8860B" stroke-width="1" fill="none" opacity="0.5"/>
    </g>

    <!-- イラスト区切り線 -->
    <line x1="20" y1="162" x2="228" y2="162" stroke="#8b3a1a" stroke-width="0.8" opacity="0.5"/>

    <!-- 上の句 ラベル -->
    <text x="124" y="178" text-anchor="middle"
      font-family="'Hiragino Mincho ProN','Yu Mincho','MS Mincho',serif"
      font-size="9" fill="#8b3a1a" opacity="0.7" letter-spacing="3">上 の 句</text>

    <!-- 上の句（縦書き） -->
<text x="214" y="100" font-family="'Hiragino Mincho ProN','Yu Mincho','MS Mincho',serif" font-size="14" fill="#1a0a00" text-anchor="middle">音</text><text x="214" y="117" font-family="'Hiragino Mincho ProN','Yu Mincho','MS Mincho',serif" font-size="14" fill="#1a0a00" text-anchor="middle">に</text><text x="214" y="134" font-family="'Hiragino Mincho ProN','Yu Mincho','MS Mincho',serif" font-size="14" fill="#1a0a00" text-anchor="middle">聞</text><text x="214" y="151" font-family="'Hiragino Mincho ProN','Yu Mincho','MS Mincho',serif" font-size="14" fill="#1a0a00" text-anchor="middle">く</text><text x="214" y="168" font-family="'Hiragino Mincho ProN','Yu Mincho','MS Mincho',serif" font-size="14" fill="#1a0a00" text-anchor="middle">高</text><text x="196" y="100" font-family="'Hiragino Mincho ProN','Yu Mincho','MS Mincho',serif" font-size="14" fill="#1a0a00" text-anchor="middle">師</text><text x="196" y="117" font-family="'Hiragino Mincho ProN','Yu Mincho','MS Mincho',serif" font-size="14" fill="#1a0a00" text-anchor="middle">の</text><text x="196" y="134" font-family="'Hiragino Mincho ProN','Yu Mincho','MS Mincho',serif" font-size="14" fill="#1a0a00" text-anchor="middle">浜</text><text x="196" y="151" font-family="'Hiragino Mincho ProN','Yu Mincho','MS Mincho',serif" font-size="14" fill="#1a0a00" text-anchor="middle">の</text><text x="178" y="100" font-family="'Hiragino Mincho ProN','Yu Mincho','MS Mincho',serif" font-size="14" fill="#1a0a00" text-anchor="middle">あ</text><text x="178" y="117" font-family="'Hiragino Mincho ProN','Yu Mincho','MS Mincho',serif" font-size="14" fill="#1a0a00" text-anchor="middle">だ</text><text x="178" y="134" font-family="'Hiragino Mincho ProN','Yu Mincho','MS Mincho',serif" font-size="14" fill="#1a0a00" text-anchor="middle">波</text><text x="178" y="151" font-family="'Hiragino Mincho ProN','Yu Mincho','MS Mincho',serif" font-size="14" fill="#1a0a00" text-anchor="middle">は</text>

    <!-- 作者名（縦書き） -->
<text x="20" y="100" font-family="'Hiragino Mincho ProN','Yu Mincho','MS Mincho',serif" font-size="11" fill="#3a1a00" text-anchor="middle">祐</text><text x="20" y="114" font-family="'Hiragino Mincho ProN','Yu Mincho','MS Mincho',serif" font-size="11" fill="#3a1a00" text-anchor="middle">子</text><text x="20" y="128" font-family="'Hiragino Mincho ProN','Yu Mincho','MS Mincho',serif" font-size="11" fill="#3a1a00" text-anchor="middle">内</text><text x="20" y="142" font-family="'Hiragino Mincho ProN','Yu Mincho','MS Mincho',serif" font-size="11" fill="#3a1a00" text-anchor="middle">親</text><text x="20" y="156" font-family="'Hiragino Mincho ProN','Yu Mincho','MS Mincho',serif" font-size="11" fill="#3a1a00" text-anchor="middle">王</text><text x="20" y="170" font-family="'Hiragino Mincho ProN','Yu Mincho','MS Mincho',serif" font-size="11" fill="#3a1a00" text-anchor="middle">家</text><text x="20" y="184" font-family="'Hiragino Mincho ProN','Yu Mincho','MS Mincho',serif" font-size="11" fill="#3a1a00" text-anchor="middle">紀</text><text x="20" y="198" font-family="'Hiragino Mincho ProN','Yu Mincho','MS Mincho',serif" font-size="11" fill="#3a1a00" text-anchor="middle">伊</text>

    <!-- 金線区切り -->
    <line x1="20" y1="295" x2="228" y2="295" stroke="#b8860b" stroke-width="1" opacity="0.6"/>
    <line x1="20" y1="297" x2="228" y2="297" stroke="#b8860b" stroke-width="0.4" opacity="0.4"/>

    <!-- 下の句マスクエリア -->
    <rect x="8" y="299" width="232" height="73" rx="2" fill="url(#mask72)"/>

    <!-- マスク斜め格子 -->
    <g opacity="0.15">
      <line x1="8" y1="299" x2="240" y2="372" stroke="#f8d36f" stroke-width="0.8"/>
      <line x1="8" y1="315" x2="240" y2="372" stroke="#f8d36f" stroke-width="0.8"/>
      <line x1="8" y1="331" x2="240" y2="372" stroke="#f8d36f" stroke-width="0.8"/>
      <line x1="8" y1="347" x2="240" y2="372" stroke="#f8d36f" stroke-width="0.8"/>
      <line x1="30" y1="299" x2="8" y2="320" stroke="#f8d36f" stroke-width="0.8"/>
      <line x1="60" y1="299" x2="8" y2="352" stroke="#f8d36f" stroke-width="0.8"/>
      <line x1="90" y1="299" x2="8" y2="372" stroke="#f8d36f" stroke-width="0.8"/>
      <line x1="120" y1="299" x2="45" y2="372" stroke="#f8d36f" stroke-width="0.8"/>
      <line x1="150" y1="299" x2="76" y2="372" stroke="#f8d36f" stroke-width="0.8"/>
      <line x1="180" y1="299" x2="106" y2="372" stroke="#f8d36f" stroke-width="0.8"/>
      <line x1="210" y1="299" x2="136" y2="372" stroke="#f8d36f" stroke-width="0.8"/>
      <line x1="240" y1="299" x2="166" y2="372" stroke="#f8d36f" stroke-width="0.8"/>
      <line x1="240" y1="323" x2="226" y2="372" stroke="#f8d36f" stroke-width="0.8"/>
    </g>

    <!-- 下の句マスクラベル -->
    <text x="124" y="332" text-anchor="middle"
      font-family="'Hiragino Mincho ProN','Yu Mincho','MS Mincho',serif"
      font-size="11" fill="#f8d36f" opacity="0.85" letter-spacing="2">下の句は取り札で</text>
    <text x="124" y="350" text-anchor="middle"
      font-family="'Hiragino Mincho ProN','Yu Mincho','MS Mincho',serif"
      font-size="9" fill="#d4b870" opacity="0.7">— find the matching card —</text>

    <!-- 下部金線 -->
    <line x1="20" y1="369" x2="228" y2="369" stroke="#b8860b" stroke-width="0.8" opacity="0.5"/>
  </g>
</svg>