<?xml version="1.0" encoding="UTF-8" standalone="no"?>
<!-- Created with Inkscape (http://www.inkscape.org/) -->
<svg id="svg4811" xmlns:rdf="http://www.w3.org/1999/02/22-rdf-syntax-ns#" xmlns="http://www.w3.org/2000/svg" height="550" width="550" version="1.1" xmlns:cc="http://creativecommons.org/ns#" xmlns:dc="http://purl.org/dc/elements/1.1/" viewBox="0 0 550.00001 550.00001">
 <defs id="defs4813">
  <marker id="marker6977" refY="0.0" refX="0.0" overflow="visible" orient="auto">
   <path id="path6979" d="m0 0l5-5-17.5 5 17.5 5-5-5z" fill-rule="evenodd" transform="scale(.8) translate(12.5)" stroke="#a00" stroke-width="1pt" fill="#a00"/>
  </marker>
  <marker id="marker6859" refY="0.0" refX="0.0" orient="auto" overflow="visible">
   <path id="path6861" d="m0 0l5-5-17.5 5 17.5 5-5-5z" fill-rule="evenodd" transform="scale(.8) translate(12.5)" stroke="#a00" stroke-width="1pt" fill="#a00"/>
  </marker>
  <marker id="marker6753" refY="0.0" refX="0.0" orient="auto" overflow="visible">
   <path id="path6755" d="m0 0l5-5-17.5 5 17.5 5-5-5z" fill-rule="evenodd" transform="scale(.8) translate(12.5)" stroke="#a00" stroke-width="1pt" fill="#a00"/>
  </marker>
  <marker id="marker6391" refY="0.0" refX="0.0" orient="auto" overflow="visible">
   <path id="path6393" d="m0 0l5-5-17.5 5 17.5 5-5-5z" fill-rule="evenodd" transform="scale(.8) translate(12.5)" stroke="#a00" stroke-width="1pt" fill="#a00"/>
  </marker>
  <marker id="marker6307" refY="0.0" refX="0.0" overflow="visible" orient="auto">
   <path id="path6309" d="m0 0l5-5-17.5 5 17.5 5-5-5z" stroke-opacity=".53333" fill-opacity=".53333" fill-rule="evenodd" transform="scale(.8) translate(12.5)" stroke="#f80" stroke-width="1pt" fill="#f80"/>
  </marker>
  <marker id="marker6243" refY="0.0" refX="0.0" overflow="visible" orient="auto">
   <path id="path6245" d="m0 0l5-5-17.5 5 17.5 5-5-5z" stroke-opacity=".53333" fill-opacity=".53333" fill-rule="evenodd" transform="scale(.8) translate(12.5)" stroke="#f80" stroke-width="1pt" fill="#f80"/>
  </marker>
  <marker id="marker6185" refY="0.0" refX="0.0" overflow="visible" orient="auto">
   <path id="path6187" d="m0 0l5-5-17.5 5 17.5 5-5-5z" stroke-opacity=".53333" fill-opacity=".53333" fill-rule="evenodd" transform="scale(.8) translate(12.5)" stroke="#f80" stroke-width="1pt" fill="#f80"/>
  </marker>
  <marker id="Arrow1Lstart" refY="0.0" refX="0.0" orient="auto" overflow="visible">
   <path id="path5567" d="m0 0l5-5-17.5 5 17.5 5-5-5z" stroke-opacity=".53333" fill-opacity=".53333" fill-rule="evenodd" transform="scale(.8) translate(12.5)" stroke="#f80" stroke-width="1pt" fill="#f80"/>
  </marker>
 </defs>
 <metadata id="metadata4816">
  <rdf:RDF>
   <cc:Work rdf:about="">
    <dc:format>image/svg+xml</dc:format>
    <dc:type rdf:resource="http://purl.org/dc/dcmitype/StillImage"/>
    <dc:title/>
   </cc:Work>
  </rdf:RDF>
 </metadata>
 <g id="layer1" transform="translate(0 -502.36)">
  <g fill-rule="evenodd" stroke="#000" stroke-linecap="round" stroke-width="2" fill="#080">
   <rect id="rect5361" transform="rotate(-25)" ry="5" height="30" width="20" y="960.75" x="-299.29"/>
   <rect id="rect5363" transform="rotate(-25)" ry="5" height="30" width="20" y="960.75" x="-279.29"/>
   <rect id="rect5365" transform="rotate(-25)" ry="5" height="30" width="20" y="960.75" x="-259.29"/>
   <rect id="rect5367" transform="rotate(-25)" ry="5" height="30" width="20" y="960.75" x="-239.29"/>
   <rect id="rect5369" transform="rotate(-25)" ry="5" height="30" width="20" y="960.75" x="-219.29"/>
   <rect id="rect5371" transform="rotate(-25)" ry="5" height="30" width="20" y="960.75" x="-199.29"/>
   <rect id="rect5373" transform="rotate(-25)" ry="5" height="30" width="20" y="960.75" x="-179.29"/>
   <rect id="rect5375" transform="rotate(-25)" ry="5" height="30" width="20" y="960.75" x="-159.29"/>
   <rect id="rect5377" transform="rotate(-25)" ry="5" height="30" width="20" y="960.75" x="-139.29"/>
   <rect id="rect5379" transform="rotate(-25)" ry="5" height="30" width="20" y="960.75" x="-119.29"/>
   <rect id="rect5381" transform="rotate(-25)" ry="5" height="30" width="20" y="960.75" x="-99.293"/>
   <rect id="rect5383" transform="rotate(-25)" ry="5" height="30" width="20" y="960.75" x="-79.293"/>
   <rect id="rect5385" transform="rotate(-25)" ry="5" height="30" width="20" y="960.75" x="-59.293"/>
   <rect id="rect5387" transform="rotate(-25)" ry="5" height="30" width="20" y="960.75" x="-39.293"/>
   <rect id="rect5389" transform="rotate(-25)" ry="5" height="30" width="20" y="960.75" x="-19.293"/>
   <rect id="rect5391" transform="rotate(-25)" ry="5" height="30" width="20" y="960.75" x=".70718"/>
   <rect id="rect5393" transform="rotate(-25)" ry="5" height="30" width="20" y="960.75" x="20.707"/>
   <rect id="rect5395" transform="rotate(-25)" ry="5" height="30" width="20" y="960.75" x="40.707"/>
   <rect id="rect5397" ry="5" transform="rotate(-25)" height="30" width="20" y="650.75" x="-219.29"/>
   <rect id="rect5399" ry="5" transform="rotate(-25)" height="30" width="20" y="650.75" x="-199.29"/>
   <rect id="rect5401" ry="5" transform="rotate(-25)" height="30" width="20" y="650.75" x="-179.29"/>
   <rect id="rect5403" ry="5" transform="rotate(-25)" height="30" width="20" y="650.75" x="-159.29"/>
   <rect id="rect5405" ry="5" transform="rotate(-25)" height="30" width="20" y="650.75" x="-139.29"/>
   <rect id="rect5407" ry="5" transform="rotate(-25)" height="30" width="20" y="650.75" x="-119.29"/>
   <rect id="rect5409" ry="5" transform="rotate(-25)" height="30" width="20" y="650.75" x="-99.293"/>
   <rect id="rect5411" ry="5" transform="rotate(-25)" height="30" width="20" y="650.75" x="-79.293"/>
   <rect id="rect5413" ry="5" transform="rotate(-25)" height="30" width="20" y="650.75" x="-59.293"/>
   <rect id="rect5415" ry="5" transform="rotate(-25)" height="30" width="20" y="650.75" x="-39.293"/>
   <rect id="rect5417" ry="5" transform="rotate(-25)" height="30" width="20" y="650.75" x="-19.293"/>
   <rect id="rect5419" ry="5" transform="rotate(-25)" height="30" width="20" y="650.75" x=".70718"/>
   <rect id="rect5421" ry="5" transform="rotate(-25)" height="30" width="20" y="650.75" x="20.707"/>
   <rect id="rect5423" ry="5" transform="rotate(-25)" height="30" width="20" y="650.75" x="40.707"/>
   <rect id="rect5425" ry="5" transform="rotate(-25)" height="30" width="20" y="650.75" x="60.707"/>
   <rect id="rect5427" ry="5" transform="rotate(-25)" height="30" width="20" y="650.75" x="80.707"/>
   <rect id="rect5429" ry="5" transform="rotate(-25)" height="30" width="20" y="650.75" x="100.71"/>
   <rect id="rect5431" ry="5" transform="rotate(-25)" height="30" width="20" y="650.75" x="120.71"/>
   <rect id="rect5433" transform="rotate(245)" ry="5" height="30" width="20" y="60.707" x="-1040.7"/>
   <rect id="rect5435" transform="rotate(245)" ry="5" height="30" width="20" y="60.707" x="-1020.7"/>
   <rect id="rect5437" transform="rotate(245)" ry="5" height="30" width="20" y="60.707" x="-1000.7"/>
   <rect id="rect5439" transform="rotate(245)" ry="5" height="30" width="20" y="60.707" x="-980.75"/>
   <rect id="rect5441" transform="rotate(245)" ry="5" height="30" width="20" y="60.707" x="-960.75"/>
   <rect id="rect5443" transform="rotate(245)" ry="5" height="30" width="20" y="60.707" x="-940.75"/>
   <rect id="rect5445" transform="rotate(245)" ry="5" height="30" width="20" y="60.707" x="-920.75"/>
   <rect id="rect5447" transform="rotate(245)" ry="5" height="30" width="20" y="60.707" x="-900.75"/>
   <rect id="rect5449" transform="rotate(245)" ry="5" height="30" width="20" y="60.707" x="-880.75"/>
   <rect id="rect5451" transform="rotate(245)" ry="5" height="30" width="20" y="60.707" x="-860.75"/>
   <rect id="rect5453" transform="rotate(245)" ry="5" height="30" width="20" y="60.707" x="-840.75"/>
   <rect id="rect5455" transform="rotate(245)" ry="5" height="30" width="20" y="60.707" x="-820.75"/>
   <rect id="rect5457" transform="rotate(245)" ry="5" height="30" width="20" y="60.707" x="-800.75"/>
   <rect id="rect5459" transform="rotate(245)" ry="5" height="30" width="20" y="60.707" x="-780.75"/>
   <rect id="rect5461" transform="rotate(245)" ry="5" height="30" width="20" y="60.707" x="-760.75"/>
   <rect id="rect5463" transform="rotate(245)" ry="5" height="30" width="20" y="60.707" x="-740.75"/>
   <rect id="rect5465" transform="rotate(245)" ry="5" height="30" width="20" y="60.707" x="-720.75"/>
   <rect id="rect5467" transform="rotate(245)" ry="5" height="30" width="20" y="60.707" x="-700.75"/>
   <rect id="rect5469" ry="5" transform="rotate(245)" height="30" width="20" y="-249.29" x="-960.75"/>
   <rect id="rect5471" ry="5" transform="rotate(245)" height="30" width="20" y="-249.29" x="-940.75"/>
   <rect id="rect5473" ry="5" transform="rotate(245)" height="30" width="20" y="-249.29" x="-920.75"/>
   <rect id="rect5475" ry="5" transform="rotate(245)" height="30" width="20" y="-249.29" x="-900.75"/>
   <rect id="rect5477" ry="5" transform="rotate(245)" height="30" width="20" y="-249.29" x="-880.75"/>
   <rect id="rect5479" ry="5" transform="rotate(245)" height="30" width="20" y="-249.29" x="-860.75"/>
   <rect id="rect5481" ry="5" transform="rotate(245)" height="30" width="20" y="-249.29" x="-840.75"/>
   <rect id="rect5483" ry="5" transform="rotate(245)" height="30" width="20" y="-249.29" x="-820.75"/>
   <rect id="rect5485" ry="5" transform="rotate(245)" height="30" width="20" y="-249.29" x="-800.75"/>
   <rect id="rect5487" ry="5" transform="rotate(245)" height="30" width="20" y="-249.29" x="-780.75"/>
   <rect id="rect5489" ry="5" transform="rotate(245)" height="30" width="20" y="-249.29" x="-760.75"/>
   <rect id="rect5491" ry="5" transform="rotate(245)" height="30" width="20" y="-249.29" x="-740.75"/>
   <rect id="rect5493" ry="5" transform="rotate(245)" height="30" width="20" y="-249.29" x="-720.75"/>
   <rect id="rect5495" ry="5" transform="rotate(245)" height="30" width="20" y="-249.29" x="-700.75"/>
   <rect id="rect5497" ry="5" transform="rotate(245)" height="30" width="20" y="-249.29" x="-680.75"/>
   <rect id="rect5499" ry="5" transform="rotate(245)" height="30" width="20" y="-249.29" x="-660.75"/>
   <rect id="rect5501" ry="5" transform="rotate(245)" height="30" width="20" y="-249.29" x="-640.75"/>
   <rect id="rect5503" ry="5" transform="rotate(245)" height="30" width="20" y="-249.29" x="-620.75"/>
  </g>
  <g font-size="90px" fill="#000088">
   <text id="text5505" style="word-spacing:0px;letter-spacing:-1px;text-anchor:middle;text-align:center" xml:space="preserve" line-height="89.99999762%" y="872.36218" x="40.5" font-family="AR PL UKai TW"><tspan id="tspan5507" y="872.36218" x="40">北</tspan><tspan id="tspan4374" y="953.36218" x="40">N</tspan></text>
   <text id="text5509" style="word-spacing:0px;letter-spacing:-1px;text-anchor:middle;text-align:center" line-height="89.99999762%" y="592.36218" x="180.5" font-family="Bitstream Vera Sans" xml:space="preserve"><tspan id="tspan5511" y="592.36218" x="180" font-family="AR PL UKai TW" fill="#000088">西|W</tspan></text>
   <text id="text5513" style="word-spacing:0px;letter-spacing:-1px;text-anchor:middle;text-align:center" xml:space="preserve" line-height="89.99999762%" y="662.36218" x="510.5" font-family="AR PL UKai TW"><tspan id="tspan5515" y="662.36218" x="510">南</tspan><tspan id="tspan4372" y="743.36218" x="510">S</tspan></text>
   <text id="text5517" style="word-spacing:0px;letter-spacing:-1px;text-anchor:middle;text-align:center" line-height="89.99999762%" y="1032.3622" x="380.5" font-family="Bitstream Vera Sans" xml:space="preserve"><tspan id="tspan5519" y="1032.3622" x="380" font-family="AR PL UKai TW" fill="#000088">東|E</tspan></text>
  </g>
  <g font-size="60px" font-family="Bitstream Vera Sans" fill="#000000">
   <text id="text5539" style="word-spacing:0px;letter-spacing:-1px;text-anchor:middle;text-align:center" xml:space="preserve" line-height="89.99999762%" y="902.36218" x="300.5"><tspan id="tspan5541" x="300" y="902.36218">1</tspan></text>
   <text id="text5543" style="word-spacing:0px;letter-spacing:-1px;text-anchor:middle;text-align:center" line-height="89.99999762%" y="772.36218" x="380.5" xml:space="preserve"><tspan id="tspan5545" y="772.36218" x="380">2</tspan></text>
   <text id="text5547" style="word-spacing:0px;letter-spacing:-1px;text-anchor:middle;text-align:center" xml:space="preserve" line-height="89.99999762%" y="702.36218" x="250.5"><tspan id="tspan5549" x="250" y="702.36218">3</tspan></text>
   <text id="text5551" style="word-spacing:0px;letter-spacing:-1px;text-anchor:middle;text-align:center" line-height="89.99999762%" y="822.36218" x="170.5" xml:space="preserve"><tspan id="tspan5553" y="822.36218" x="170">4</tspan></text>
  </g>
  <g stroke="#a00" stroke-linecap="round" stroke-width="2" fill="none">
   <path id="path6383" d="m382.69 275a107.69 101.15 0 0 1 -53.843 87.599" marker-start="url(#marker6391)" transform="translate(0 502.36)"/>
   <path id="path6385" marker-start="url(#marker6977)" transform="translate(0 502.36)" d="m275 173.85a107.69 101.15 0 0 1 93.258 50.575"/>
   <path id="path6387" d="m167.31 275a107.69 101.15 0 0 1 53.85 -87.6" marker-start="url(#marker6753)" transform="translate(0 502.36)"/>
   <path id="path6389" marker-start="url(#marker6859)" transform="translate(0 502.36)" d="m275 376.15a107.69 101.15 0 0 1 -93.258 -50.575"/>
  </g>
 </g>
 <g id="layer3" stroke="#f80" fill="none" display="none">
  <g stroke-opacity=".53333" stroke-width="1px">
   <path id="path5521" d="m0 1052.4h550v-550h-550z" transform="translate(0 -502.36)"/>
   <path id="path5525" d="m0 777.36 275-275 275 275-275 275.04z" transform="translate(0 -502.36)"/>
   <path id="path5529" d="m-64.865 935.84 679.74-316.96" transform="translate(0 -502.36)"/>
   <path id="path5531" d="m433.48 1117.2-316.96-679.7" transform="translate(0 -502.36)"/>
   <path id="path5527" d="m0 777.36h550l-275-275v550" transform="translate(0 -502.36)"/>
  </g>
  <g stroke-linecap="round" stroke-width="2">
   <path id="path5555" stroke-opacity=".53333" marker-start="url(#marker6185)" d="m382.69 275a107.69 101.15 0 0 1 -53.843 87.599"/>
   <g stroke-opacity=".53333">
    <path id="path5557" d="m275 173.85a107.69 101.15 0 0 1 93.258 50.575" marker-start="url(#Arrow1Lstart)"/>
    <path id="path5559" marker-start="url(#marker6307)" d="m167.31 275a107.69 101.15 0 0 1 53.85 -87.6"/>
    <path id="path5561" d="m275 376.15a107.69 101.15 0 0 1 -93.258 -50.575" marker-start="url(#marker6243)"/>
   </g>
  </g>
 </g>
</svg>
