<?xml version="1.0" encoding="UTF-8" standalone="no"?>
<svg
   xmlns:dc="http://purl.org/dc/elements/1.1/"
   xmlns:cc="http://creativecommons.org/ns#"
   xmlns:rdf="http://www.w3.org/1999/02/22-rdf-syntax-ns#"
   xmlns:svg="http://www.w3.org/2000/svg"
   xmlns="http://www.w3.org/2000/svg"
   xmlns:sodipodi="http://sodipodi.sourceforge.net/DTD/sodipodi-0.dtd"
   xmlns:inkscape="http://www.inkscape.org/namespaces/inkscape"
   id="svg19067"
   viewBox="0 0 948.98126 664.68261"
   version="1.1"
   inkscape:version="0.91 r13725"
   sodipodi:docname="mahjongtiles.svg"
   width="948.98126"
   height="664.68262">
  <defs
     id="defs14017" />
  <sodipodi:namedview
     pagecolor="#ffffff"
     bordercolor="#666666"
     borderopacity="1"
     objecttolerance="10"
     gridtolerance="10"
     guidetolerance="10"
     inkscape:pageopacity="0"
     inkscape:pageshadow="2"
     inkscape:window-width="1912"
     inkscape:window-height="859"
     id="namedview14015"
     showgrid="false"
     fit-margin-top="0"
     fit-margin-left="0"
     fit-margin-right="0"
     fit-margin-bottom="0"
     inkscape:zoom="0.59047979"
     inkscape:cx="391.41649"
     inkscape:cy="577.75332"
     inkscape:window-x="0"
     inkscape:window-y="0"
     inkscape:window-maximized="0"
     inkscape:current-layer="text14567" />
  <g
     id="layer1"
     transform="translate(-92.224936,-270.6524)">
    <g
       id="g19082"
       transform="translate(-3453.9,-2448.9)">
      <g
         id="g19226">
        <g
           style="font-style:normal;font-weight:normal;font-size:40px;line-height:125%;font-family:sans-serif;letter-spacing:0px;word-spacing:0px;fill:#000000;fill-opacity:1;stroke:none;stroke-width:1px;stroke-linecap:butt;stroke-linejoin:miter;stroke-opacity:1"
           id="text14567">
          <g
             id="g14612"
             transform="matrix(0.99939083,-0.0348995,0.0348995,0.99939083,-405.77328,116.25578)" />
          <g
             id="g14677"
             transform="matrix(2.6513002,0,0,2.6432382,-5855.7248,-4468.8644)">
            <g
               transform="matrix(0.96592583,0.25881905,-0.25881905,0.96592583,622.07663,-915.06186)"
               id="g14642">
              <rect
                 ry="16.169863"
                 rx="7.4884653"
                 y="2750.2698"
                 x="4035.0137"
                 height="134.87738"
                 width="101.30952"
                 id="rect14626"
                 style="opacity:1;fill:#b3aeae;fill-opacity:1;stroke:#000000;stroke-width:2.94730043;stroke-linecap:round;stroke-linejoin:round;stroke-miterlimit:4;stroke-dasharray:none;stroke-opacity:1" />
              <rect
                 style="opacity:1;fill:#f8f8f8;fill-opacity:1;stroke:#000000;stroke-width:2.94730043;stroke-linecap:round;stroke-linejoin:round;stroke-miterlimit:4;stroke-dasharray:none;stroke-opacity:1"
                 id="rect14624"
                 width="101.30952"
                 height="134.87738"
                 x="4029.98"
                 y="2744.397"
                 rx="7.4884653"
                 ry="16.169863" />
              <g
                 id="g14615">
                <path
                   sodipodi:nodetypes="scssscscssccccsssccccccsssssccccccssccssccssssssssssscccscccsssccccsssccsccssccssccscsccscsscssscsscssssscss"
                   inkscape:connector-curvature="0"
                   id="path14582"
                   style="font-size:152.5px"
                   d="m 4092.5981,2836.3132 c 0,-3.1771 -1.1666,-5.9818 -3.4997,-8.4143 -2.3332,-2.3331 -5.138,-3.4997 -8.4143,-3.4997 -3.2764,0 -6.0812,1.1666 -8.4143,3.4997 -2.3828,2.3828 -3.5742,5.1876 -3.5742,8.4143 0,3.3757 1.1666,6.2301 3.4997,8.5633 2.2835,2.3331 5.1131,3.4997 8.4888,3.4997 3.326,0 6.1308,-1.1666 8.4143,-3.4997 2.3331,-2.3332 3.4997,-5.1876 3.4997,-8.5633 z m -23.8281,15.2649 c 0,0.8439 -0.2978,1.4396 -0.8935,1.7871 l -9.3079,5.5103 5.4358,-9.3823 c 0.1489,-0.3475 0.3723,-0.5958 0.6702,-0.7447 0.2978,-0.099 0.6453,-0.1489 1.0424,-0.1489 2.0353,0 3.053,0.9928 3.053,2.9785 z m 14.6692,4.989 c 0,0.5957 -0.074,1.6382 -0.2234,3.1275 -0.1489,1.5389 -0.422,3.5245 -0.8191,5.957 -0.1489,0.8935 -0.3723,2.1594 -0.6701,3.7976 -0.2979,1.6879 -0.6454,3.748 -1.0425,6.1804 l -1.7127,-10.2014 c -0.3971,-2.3828 -0.6702,-4.3188 -0.8191,-5.8081 -0.1489,-1.4396 -0.2233,-2.4821 -0.2233,-3.1274 0,-1.6879 0.9184,-2.5318 2.7551,-2.5318 1.8367,0 2.7551,0.8687 2.7551,2.6062 z m -20.0305,-19.956 c 0,1.7871 -0.8191,2.6806 -2.4573,2.6806 -0.6453,0 -1.7126,-0.074 -3.2019,-0.2233 -1.4893,-0.1489 -3.4253,-0.3972 -5.8081,-0.7447 -0.9432,-0.1489 -2.2339,-0.3723 -3.8721,-0.6701 -1.6381,-0.3475 -3.6734,-0.7199 -6.1059,-1.117 l 9.9035,-1.7126 c 2.3829,-0.3971 4.3189,-0.6702 5.8081,-0.8191 1.5389,-0.1489 2.6063,-0.2234 3.202,-0.2234 1.6878,0 2.5317,0.9432 2.5317,2.8296 z m 39.3909,22.2644 -9.3079,-5.5103 c -0.6453,-0.3475 -0.968,-0.9432 -0.968,-1.7871 0,-1.9857 1.0177,-2.9785 3.053,-2.9785 0.8439,0 1.4396,0.2979 1.7871,0.8936 z m -6.5528,-22.4878 c 0,4.3685 -1.5389,8.0916 -4.6167,11.1694 -3.0778,3.0778 -6.7265,4.6167 -10.946,4.6167 -4.2692,0 -7.9427,-1.5389 -11.0205,-4.6167 -3.0282,-3.0281 -4.5423,-6.7513 -4.5423,-11.1694 0,-4.3189 1.5141,-7.9924 4.5423,-11.0205 3.0778,-3.0778 6.7513,-4.6167 11.0205,-4.6167 4.2195,0 7.8682,1.5389 10.946,4.6167 3.0778,3.0778 4.6167,6.7513 4.6167,11.0205 z m -27.4768,-14.8181 c 0,2.0353 -1.0177,3.053 -3.053,3.053 -0.8439,0 -1.4147,-0.3475 -1.7126,-1.0425 l -5.4358,-9.3079 9.3079,5.4358 c 0.5957,0.3971 0.8935,1.0177 0.8935,1.8616 z m 50.6348,14.967 c -1.9857,0.4468 -5.3117,1.0425 -9.978,1.7871 -2.3829,0.3475 -4.3189,0.5958 -5.8081,0.7447 -1.4893,0.1489 -2.5566,0.2233 -3.202,0.2233 -1.6381,0 -2.4572,-0.9184 -2.4572,-2.7551 0,-1.8367 0.8439,-2.7551 2.5317,-2.7551 0.5957,0 1.6382,0.075 3.1275,0.2234 1.5389,0.1489 3.4997,0.422 5.8825,0.8191 0.8439,0.1489 2.085,0.3723 3.7232,0.6701 1.6878,0.2979 3.7479,0.6454 6.1804,1.0425 z m -35.9656,-19.956 c 0,1.6878 -0.9184,2.5317 -2.7551,2.5317 -1.8367,0 -2.7551,-0.8439 -2.7551,-2.5317 0,-0.6454 0.074,-1.7127 0.2233,-3.2019 0.1489,-1.4893 0.422,-3.4253 0.8191,-5.8081 0.1489,-0.9432 0.3723,-2.2587 0.6702,-3.9466 0.2979,-1.6878 0.6454,-3.7479 1.0425,-6.1804 l 1.7126,10.127 c 0.3971,2.3828 0.6702,4.3188 0.8191,5.8081 0.1489,1.4892 0.2234,2.5565 0.2234,3.2019 z m 19.3604,-2.3084 -5.4358,9.3079 c -0.3971,0.695 -0.9928,1.0425 -1.7871,1.0425 -2.0353,0 -3.053,-1.0177 -3.053,-3.053 0,-0.8936 0.3227,-1.5141 0.968,-1.8616 z m 27.5512,-59.3469 c 0,-2.4821 -0.8935,-4.6664 -2.6806,-6.5527 -1.8864,-1.7871 -4.0707,-2.6807 -6.5528,-2.6807 l -80.9411,0 c -5.2919,0.2829 -9.0965,4.5284 -9.159,9.2334 l 0,114.9707 c 0,2.5317 0.8936,4.6912 2.6807,6.4783 1.7871,1.7871 3.9466,2.6806 6.4783,2.6806 l 80.9411,0 c 2.5814,0 4.7657,-0.8935 6.5528,-2.6806 1.7871,-1.8864 2.6806,-4.0458 2.6806,-6.4783 z m 2.8296,114.9707 c 0,3.2763 -1.1914,6.1059 -3.5742,8.4888 -2.3332,2.3331 -5.1628,3.4997 -8.4888,3.4997 l -80.9411,0 c -3.2267,0 -6.0563,-1.1666 -8.4888,-3.4997 -2.3332,-2.4325 -3.4998,-5.2621 -3.4998,-8.4888 l 0,-114.9707 c 0,-3.326 1.1666,-6.1556 3.4998,-8.4888 2.3828,-2.3828 5.2124,-3.5742 8.4888,-3.5742 l 80.9411,0 c 3.326,0 6.1556,1.1914 8.4888,3.5742 2.3828,2.3332 3.5742,5.1628 3.5742,8.4888 z" />
              </g>
              <path
                 id="path14587"
                 style="font-size:152.5px;fill:#aa0000;fill-opacity:1"
                 d="m 4063.1853,2779.4236 c 0,-0.3475 -0.1737,-0.7447 -0.5212,-1.1914 -1.5885,0.5461 -3.0033,0.9432 -4.2444,1.1914 -1.1914,0.2482 -2.2835,0.3723 -3.2764,0.3723 -0.3475,0 -0.7942,-0.05 -1.3403,-0.1489 -0.5461,-0.1489 -0.9432,-0.2234 -1.1914,-0.2234 -0.4965,0 -1.1418,0.4716 -1.9361,1.4148 2.3829,0.5957 5.4607,1.9608 9.2334,4.0954 2.1843,-2.2835 3.2764,-4.1203 3.2764,-5.5102 z m 2.3828,-20.2539 c -0.6453,-0.3475 -1.4396,-0.5213 -2.3828,-0.5213 -0.2482,0 -1.8864,0.2234 -4.9145,0.6702 -1.6879,0.2482 -3.1275,0.4468 -4.3189,0.5957 -1.1914,0.1489 -2.1346,0.273 -2.8296,0.3723 0,0.9929 0.05,1.8368 0.1489,2.5318 0.1489,0.6453 0.2234,0.9432 0.2234,0.8935 5.2621,-1.2907 8.3151,-1.936 9.159,-1.936 0.6453,-0.05 1.241,0.3968 1.7871,1.3403 -2.1843,1.1418 -5.833,1.6382 -10.9461,1.4893 -0.099,0.8935 -0.099,2.1594 0,3.7976 0.5957,-0.099 1.3156,-0.2234 2.1595,-0.3723 0.8935,-0.1489 1.9856,-0.3972 3.2763,-0.7447 1.0921,-0.2482 1.9361,-0.4219 2.5318,-0.5212 0.6453,-0.1489 1.0425,-0.2234 1.1914,-0.2234 0.2978,0 0.6453,0.05 1.0424,0.1489 0.4468,0.05 0.695,0.075 0.7447,0.075 l 0,0.968 c -1.5389,0.7447 -3.5494,1.2411 -6.0315,1.4893 l -5.2869,0.4467 0,3.4253 c 0.4468,-0.049 1.1418,-0.1486 2.085,-0.2978 0.9432,-0.1986 2.1346,-0.422 3.5742,-0.6702 2.2835,-0.4964 4.1451,-0.7446 5.5847,-0.7446 0.2979,0 0.5957,0.025 0.8936,0.074 0.3475,0 0.6701,0.025 0.968,0.074 0.8935,-1.7871 1.3403,-3.4004 1.3403,-4.8401 l 0,-7.5207 z m 19.137,35.7422 c -3.7231,1.3899 -7.2477,2.0849 -10.5738,2.0849 -2.3828,0 -5.1627,-1.4396 -8.3398,-4.3188 -3.0778,-2.8793 -4.9394,-4.3189 -5.5847,-4.3189 -0.2482,0 -0.695,0.273 -1.3403,0.8191 l -1.2659,1.0425 c -1.6879,0.9432 -5.2373,2.2835 -10.6482,4.021 l -4.0955,-0.5957 c 3.1275,-0.5461 5.9571,-1.39 8.4888,-2.5317 2.5814,-1.1915 4.8401,-2.7056 6.7761,-4.5423 -0.099,-0.2979 -1.2162,-1.1666 -3.3508,-2.6062 -2.1843,-1.4893 -3.6239,-2.2339 -4.3189,-2.2339 -0.2482,0 -1.1914,0.8439 -2.8295,2.5318 -0.9432,0.9928 -1.8119,1.8119 -2.6062,2.4572 -0.7447,0.6454 -1.39,1.1667 -1.9361,1.5638 -1.936,1.3403 -4.5422,2.6558 -7.8186,3.9465 l -1.4148,0 c 1.5885,-0.8439 3.2267,-1.9112 4.9146,-3.2019 1.6878,-1.2907 3.4253,-2.7799 5.2124,-4.4678 1.936,-1.8864 3.5245,-3.6487 4.7656,-5.2868 1.2411,-1.6879 2.1594,-3.2516 2.7551,-4.6912 l -0.6701,-0.6702 -0.3724,0.2979 -1.7871,0 c 0.2483,-0.3971 0.2483,-3.9465 0,-10.6482 -0.099,-0.4964 -0.2482,-1.1417 -0.4467,-1.936 -0.1986,-0.7943 -0.422,-1.7624 -0.6702,-2.9041 0.7446,0.1986 1.7871,0.2979 3.1274,0.2979 1.1914,0 1.9857,-0.4716 2.3828,-1.4148 0.4468,-0.8936 0.7695,-1.5886 0.9681,-2.085 0.2482,-0.5461 0.4219,-0.8936 0.5212,-1.0425 l 0,-0.968 c -0.695,0 -1.5389,0.05 -2.5317,0.1489 -0.9929,0.099 -2.1843,0.2482 -3.5742,0.4468 -2.6807,0.4468 -4.0955,0.6702 -4.2444,0.6702 -0.5461,0 -1.2907,-0.2234 -2.2339,-0.6702 -1.1914,-0.4964 -1.7871,-1.0425 -1.7871,-1.6382 0.9928,0.05 2.9288,-0.074 5.8081,-0.3723 2.9289,-0.3475 6.8257,-0.8687 11.6906,-1.5637 4.9642,-0.695 8.6625,-1.2162 11.095,-1.5637 2.4821,-0.3475 3.6984,-0.5213 3.6487,-0.5213 2.1843,0 3.9217,0.7198 5.2124,2.1594 l -0.5212,0.7447 c -2.9785,0.099 -6.1308,0.2978 -9.4568,0.5957 -3.2764,0.2482 -6.7513,0.6205 -10.4248,1.1169 l 1.2658,1.0425 c -0.5461,0.4468 -1.1666,1.0177 -1.8615,1.7126 -0.695,0.695 -1.5141,1.5389 -2.4573,2.5318 0.695,-0.099 1.5886,-0.2234 2.6807,-0.3723 1.1417,-0.1489 2.5069,-0.3475 4.0954,-0.5957 1.39,-0.2482 2.4573,-0.422 3.2019,-0.5213 0.7943,-0.099 1.2659,-0.1489 1.4148,-0.1489 1.4396,0 2.9785,0.6702 4.6167,2.0105 -0.4964,1.1417 -0.9184,2.2835 -1.2659,3.4253 -0.2978,1.1417 -0.4715,2.2587 -0.5212,3.3508 l -0.2978,4.3189 c -0.1489,1.9857 -0.7943,3.4749 -1.9361,4.4677 -0.3971,0.049 -0.7694,-0.174 -1.1169,-0.6701 -0.2979,-0.5957 -1.117,-0.8936 -2.4573,-0.8936 0.6453,0 0.1737,0.1241 -1.4148,0.3723 -1.5885,0.2483 -4.3188,0.5958 -8.1909,1.0425 l 1.936,1.9361 c -0.9928,0.8935 -1.663,1.6381 -2.0105,2.2338 0.1986,0.05 0.3972,0.075 0.5957,0.075 l 0.6702,0 c 0.695,0 1.4893,-0.075 2.3828,-0.2234 0.9432,-0.1985 2.0105,-0.4716 3.2019,-0.8191 1.1418,-0.3971 2.0602,-0.6702 2.7551,-0.8191 0.7447,-0.1489 1.2411,-0.2234 1.4893,-0.2234 1.2411,0 2.78,0.695 4.6167,2.085 l -6.6272,7.8931 c 3.8721,3.8224 11.0453,6.4038 21.5198,7.7441 0.2482,0.099 0.6453,0.3971 1.1914,0.8936 z"
                 inkscape:connector-curvature="0"
                 sodipodi:nodetypes="sccscsccscscsccccccccccsccccccccsccscccscscccccccscccccccccccccccsccccscscccccccccccsccccscccccccccccsscccsccccc" />
              <path
                 inkscape:connector-curvature="0"
                 id="path14640"
                 d="m 4034.8503,2879.4104 6.3385,5.4996"
                 style="fill:none;fill-rule:evenodd;stroke:#000000;stroke-width:2.81571364;stroke-linecap:round;stroke-linejoin:round;stroke-miterlimit:4;stroke-dasharray:none;stroke-opacity:1" />
            </g>
            <g
               transform="matrix(0.99939083,-0.0348995,0.0348995,0.99939083,-95.94462,132.34513)"
               id="g14658">
              <rect
                 ry="16.169863"
                 rx="7.4884653"
                 y="2749.7954"
                 x="3695.2783"
                 height="134.87738"
                 width="101.30952"
                 id="rect14630"
                 style="opacity:1;fill:#b3aeae;fill-opacity:1;stroke:#000000;stroke-width:2.94730043;stroke-linecap:round;stroke-linejoin:round;stroke-miterlimit:4;stroke-dasharray:none;stroke-opacity:1" />
              <rect
                 style="opacity:1;fill:#f8f8f8;fill-opacity:1;stroke:#000000;stroke-width:2.94730043;stroke-linecap:round;stroke-linejoin:round;stroke-miterlimit:4;stroke-dasharray:none;stroke-opacity:1"
                 id="rect14618"
                 width="101.30952"
                 height="134.87738"
                 x="3690.2021"
                 y="2745.2358"
                 rx="7.4884653"
                 ry="16.169863" />
              <g
                 id="g14608">
                <path
                   sodipodi:nodetypes="ccccccccscccscccccsccccsccsccccccccsccccsccccsccsccsccscccccsccscscccsccccsccccsccccccsscsscscccscccsccscsccscsccccscccccccccccsccccccccsccssccscccscccscccccccscccccscccccccccscccscsccccsccccccccscscscscccscscccscccsccsccccccscccscccccccsccscccccscsscccsscscccccccccscccccsccccccccccccsccsccccccsccccscccscscccccsccccccccscccccsscsccccccccccccccccccccccsccsccsccscscscccscscccccccsccccccccccsccccccccccsssscsscsscss"
                   inkscape:connector-curvature="0"
                   id="path14578"
                   style="font-size:152.5px"
                   d="m 3760.3447,2855.0034 -1.7871,-0.5957 -0.1489,1.6382 z m -4.6167,-44.5288 -1.7126,-0.7446 -0.2234,1.7871 z m -33.0615,-18.3923 c 0,0.1985 -0.025,0.3475 -0.074,0.4468 l 0,-0.3724 c 0.049,-0.1489 0.074,-0.2978 0.074,-0.4467 z m -1.936,59.2724 -1.7871,-0.7446 -0.2234,1.7871 z m 38.7207,27.7002 c -3.2267,-1.3403 -4.8401,-2.7055 -4.8401,-4.0954 0,-0.4468 0.1737,-0.968 0.5212,-1.5637 0.3971,-0.5461 0.5957,-0.8936 0.5957,-1.0425 -0.695,-0.4965 -1.39,-1.0425 -2.0849,-1.6382 -0.6454,-0.5957 -1.3156,-1.2907 -2.0105,-2.085 -0.8936,1.8368 -1.9361,2.7552 -3.1275,2.7552 -0.5957,0 -1.1417,-0.2482 -1.6382,-0.7447 0.4965,-1.9857 1.6134,-3.326 3.3509,-4.021 -3.3757,-4.2195 -5.138,-6.3293 -5.2869,-6.3293 -2.3828,0 -4.3188,0.4716 -5.8081,1.4148 l 2.085,2.0849 0,2.5318 c -0.9929,-0.2979 -1.7375,-0.8191 -2.2339,-1.5637 -0.4965,-0.7447 -0.9433,-1.4893 -1.3404,-2.2339 -0.546,0 -1.1169,0.05 -1.7126,0.1489 -0.5957,0.1489 -1.2411,0.3475 -1.936,0.5957 -4.9642,1.9361 -8.0917,3.5991 -9.3824,4.989 -1.9857,2.085 -2.9785,5.411 -2.9785,9.978 l 0,0.8191 z m 7.7441,0 c -0.9432,-0.2978 -1.7623,-0.546 -2.4573,-0.7446 -0.6949,-0.1489 -1.3154,-0.2234 -1.8615,-0.2234 -0.2979,0 -0.7447,0.1241 -1.3404,0.3723 l -1.3403,0.5957 z m 16.5308,-11.8396 c -2.4325,-0.9432 -4.4678,-1.4148 -6.106,-1.4148 -0.695,0 -1.5637,-0.099 -2.6062,-0.2978 -1.0425,-0.1489 -2.2587,-0.422 -3.6487,-0.8191 -2.8792,-0.695 -4.9641,-1.0425 -6.2548,-1.0425 -0.3972,0 -0.6702,0.695 -0.8191,2.085 -0.1489,1.6878 -0.3227,2.6558 -0.5213,2.904 -1.2411,-1.0425 -1.8616,-2.1594 -1.8616,-3.3508 0,-0.2482 0.025,-0.5212 0.075,-0.8191 0.099,-0.2979 0.1986,-0.6454 0.2979,-1.0425 -0.5461,-1.0921 -1.4645,-1.6382 -2.7552,-1.6382 -2.631,0 -3.6983,0.05 -3.2019,0.149 -1.0425,-0.1986 -1.7374,-0.9184 -2.0849,-2.1595 -0.6453,0.6454 -1.2659,1.5638 -1.8616,2.7552 l -2.0105,0 c -0.3971,-0.4965 -0.8439,-0.9929 -1.3403,-1.4893 -0.4468,-0.4964 -0.8936,-0.7446 -1.3404,-0.7446 -0.5957,0 -0.9183,0.074 -0.968,0.2234 0,0.4964 1.39,2.358 4.1699,5.5847 2.7303,3.1771 4.443,4.7656 5.138,4.7656 0.3971,0 0.9432,-0.099 1.6382,-0.2978 0.7446,-0.1986 1.3155,-0.2979 1.7126,-0.2979 1.7375,0 3.4501,0.5709 5.1379,1.7127 l 0.075,0.819 c 0,0.3972 -0.099,0.9433 -0.2978,1.6382 -0.1489,0.7447 -0.2234,1.3156 -0.2234,1.7127 0,0.7446 0.4716,1.3899 1.4148,1.936 0.1985,0 0.4467,-0.099 0.7446,-0.2978 0.2979,-0.1986 0.5957,-0.3972 0.8935,-0.5957 0.2979,-0.1986 0.5709,-0.3972 0.8191,-0.5957 0.2979,-0.1489 0.5709,-0.2234 0.8191,-0.2234 0.3971,0 0.7695,0.099 1.117,0.2978 0.3971,0.2482 0.6453,0.3723 0.7446,0.3723 0,0.2979 -0.273,0.6454 -0.8191,1.0425 -0.695,0.4964 -1.0921,0.8191 -1.1914,0.968 l 12.3608,0 c 2.5814,0 4.7657,-0.8935 6.5528,-2.6806 1.7871,-1.8864 2.6806,-4.0458 2.6806,-6.4783 l -6.4782,-2.6807 z m 6.4782,-112.29 c 0,-2.4821 -0.8935,-4.6664 -2.6806,-6.5527 -1.8864,-1.7871 -4.0707,-2.6807 -6.5528,-2.6807 l -80.9411,0 c -2.4325,0 -4.5919,0.8936 -6.4783,2.6807 -1.7871,1.7871 -2.6807,3.9713 -2.6807,6.5527 l 0,114.9707 c 0,2.5317 0.8936,4.6912 2.6807,6.4783 1.7871,1.7871 3.9466,2.6806 6.4783,2.6806 l 19.2114,0 c 0.099,-2.7303 0.7198,-6.5279 1.8616,-11.3928 l 1.7871,-2.904 c 0.8439,-1.2411 1.2659,-2.1595 1.2659,-2.7552 0,-0.5461 -0.1738,-0.8191 -0.5213,-0.8191 l 0.074,0 c -0.1489,0.05 -0.5213,0.1 -1.117,0.149 0.4468,-0.8936 0.6702,-1.6879 0.6702,-2.3828 0,-0.2979 -0.1737,-0.9432 -0.5212,-1.9361 0,0.1489 -0.1738,0.3227 -0.5213,0.5213 l -0.5212,0 c -0.6453,0 -1.3651,-0.5461 -2.1594,-1.6382 -0.7447,1.4893 -1.5141,2.2339 -2.3084,2.2339 -0.3971,0 -0.8687,-0.099 -1.4148,-0.2979 -0.5461,-0.1985 -1.241,-0.4964 -2.0849,-0.8935 l 0,-0.2979 c 0,-1.1914 0.3475,-2.0601 1.0424,-2.6062 -2.5813,-1.0921 -3.872,-2.0353 -3.872,-2.8296 0,-0.3971 0.099,-0.9184 0.2978,-1.5637 0.1986,-0.6453 0.2979,-1.1169 0.2979,-1.4148 1.1417,0 2.2338,-0.2979 3.2763,-0.8936 l -2.6806,-3.2763 c -1.0425,-1.3403 -2.1842,-2.0105 -3.4253,-2.0105 -0.4468,0 -2.0602,0.8935 -4.8401,2.6806 0.3971,-1.0921 1.0921,-2.2586 2.085,-3.4997 -0.4965,-0.2979 -1.0922,-0.695 -1.7872,-1.1914 -0.6949,-0.4965 -1.4892,-1.117 -2.3828,-1.8616 -0.049,-0.2979 -0.1734,-0.5709 -0.3723,-0.8191 l 0.2979,-0.5957 c 1.7375,1.7375 3.2267,2.9537 4.4677,3.6487 0.3475,-0.7943 0.9433,-1.8864 1.7872,-3.2764 0.2482,0.4468 0.4219,1.0177 0.5212,1.7127 0.099,0.6453 0.1489,1.39 0.1489,2.2339 0.2979,0 0.7695,0.074 1.4148,0.2233 0.6453,0.1489 1.1169,0.2234 1.4148,0.2234 0.3971,0 0.7198,-0.2978 0.968,-0.8935 0.2482,-0.8439 0.3971,-1.2907 0.4468,-1.3404 0.3971,0.3972 0.8439,0.6454 1.3403,0.7447 0,1.2907 -0.3475,2.6062 -1.0424,3.9465 l 1.8615,1.936 c 0.099,-0.3971 0.2234,-0.8191 0.3723,-1.2658 0.1986,-0.4468 0.422,-0.9432 0.6702,-1.4893 0.4468,0 1.0673,-0.074 1.8616,-0.2234 0.7943,-0.1985 1.4148,-0.2978 1.8616,-0.2978 0.6949,0 1.4147,0.4219 2.1594,1.2658 0,2.2339 0.1241,3.6487 0.3723,4.2444 1.1914,-1.0921 2.2835,-1.6382 3.2764,-1.6382 2.0353,0 3.0529,1.117 3.0529,3.3509 0,0.8439 -0.5957,1.7126 -1.7871,2.6062 -0.6453,-0.05 -1.5389,0.074 -2.6806,0.3723 0.7943,0.5957 1.1914,1.2162 1.1914,1.8616 0,0.8439 -0.5709,1.5388 -1.7127,2.0849 0.1986,0.3475 0.3972,0.7199 0.5957,1.117 0.1986,0.4467 0.4468,0.8935 0.7447,1.3403 6.5031,-9.7298 9.7546,-14.7188 9.7546,-14.967 0,-0.5461 -0.2979,-1.0921 -0.8936,-1.6382 -0.099,0.049 -0.2978,0.1486 -0.5957,0.2978 l -1.1169,0.6702 c -0.7447,0.4468 -1.3652,0.6702 -1.8616,0.6702 -0.6453,0 -1.1914,-0.2234 -1.6382,-0.6702 l 0,-1.936 c 0.4468,-0.3971 1.0425,-0.6205 1.7871,-0.6702 0.7447,-0.099 1.2659,-0.2234 1.5638,-0.3723 -0.3971,-0.9929 -1.0673,-1.812 -2.0105,-2.4573 -0.2482,0.5461 -0.6702,1.0921 -1.2659,1.6382 0.05,-1.0921 -0.074,-1.8119 -0.3723,-2.1594 -1.0921,1.0921 -2.1843,1.6381 -3.2764,1.6381 -0.8439,0 -1.4893,-0.2234 -1.936,-0.6701 l 0,-1.9361 c 2.4325,-0.8439 3.4253,-1.2658 2.9785,-1.2658 0.3971,0 0.6453,-0.074 0.7446,-0.2234 -0.695,-0.3971 -1.5141,-1.1666 -2.4572,-2.3084 0.049,-0.1985 0.074,-0.5212 0.074,-0.968 0,-0.695 -0.1737,-1.39 -0.5212,-2.0849 -0.2979,-0.695 -0.8439,-1.39 -1.6382,-2.085 l -3.7232,-3.2764 c 0.5461,0.4468 1.812,1.2411 3.7977,2.3828 0.2482,0.3971 0.5957,0.8936 1.0424,1.4893 0.4965,0.5957 1.0674,1.2659 1.7127,2.0105 1.5389,0 2.7054,0.4716 3.4997,1.4148 -0.2482,0 -0.5212,0.8439 -0.8191,2.5317 -0.099,-0.4964 -0.273,-0.8687 -0.5212,-1.1169 0.1986,-0.2482 0.2979,0.1986 0.2979,1.3403 0,0.3971 0.1241,0.7198 0.3723,0.968 0.1985,0 0.5957,-0.2978 1.1914,-0.8935 l -0.149,-0.2234 0.7447,0 c 0.4467,0 1.2658,-0.5461 2.4573,-1.6382 1.241,-1.1417 2.0849,-1.7126 2.5317,-1.7126 0.7943,0 1.5141,0.8439 2.1594,2.5317 -1.1417,0.5957 -2.7799,1.4893 -4.9145,2.6807 0.2482,0.2482 0.4964,0.546 0.7446,0.8935 0.2482,0.2979 0.4964,0.6454 0.7446,1.0425 -0.3971,-0.3971 -0.8191,-0.5957 -1.2658,-0.5957 -0.2979,0 -0.5709,0.1241 -0.8191,0.3723 0.5461,0.695 1.2162,1.4893 2.0105,2.3828 0.8439,0.8439 1.9112,1.7871 3.2019,2.8296 1.6381,-1.8367 4.2443,-4.5174 7.8186,-8.042 0.5957,-0.2482 1.3155,-0.5957 2.1594,-1.0425 0.8439,-0.4467 1.8368,-1.0176 2.9785,-1.7126 -0.1489,-0.8439 -0.1489,-1.9857 0,-3.4253 0.05,-0.9432 0.075,-1.6878 0.075,-2.2339 0.049,-0.5461 0.074,-0.9184 0.074,-1.1169 0,-0.8936 -0.9928,-2.6063 -2.9785,-5.138 -2.0849,-2.5813 -3.4997,-3.872 -4.2444,-3.872 -0.9432,0 -1.6134,0.1241 -2.0105,0.3723 0.3971,-0.3971 0.5957,-0.7446 0.5957,-1.0425 0,-1.4396 -3.0033,-2.5317 -9.01,-3.2764 0,-6.1556 -2.0601,-9.2334 -6.1804,-9.2334 -0.4468,0 -1.1914,0.6205 -2.2339,1.8616 -1.2411,1.4893 -2.085,2.3084 -2.5317,2.4573 -0.05,-0.099 -0.4471,-0.5212 -1.1914,-1.2659 -0.4468,-0.4468 -0.6702,-0.9432 -0.6702,-1.4892 0,-0.7943 0.7198,-1.4149 2.1594,-1.8616 -2.9785,-1.1418 -5.6095,-2.3084 -7.893,-3.4998 -2.2835,-1.1914 -4.2444,-2.4821 -5.8826,-3.872 l 4.3188,2.3828 c 1.4397,0.7446 2.8793,1.4892 4.3189,2.2339 3.1771,1.6381 6.3541,2.4572 9.5312,2.4572 1.39,0 2.5318,-0.1241 3.4253,-0.3723 -2.1842,-2.8296 -4.1947,-4.8649 -6.0315,-6.1059 -0.6949,-0.2979 -1.6133,-0.8688 -2.7551,-1.7127 0.2979,0.2979 0.695,0.4468 1.1914,0.4468 0.4468,0 0.7695,-0.099 0.968,-0.2979 -1.7375,-2.4324 -2.6062,-3.6983 -2.6062,-3.7976 -0.049,-0.7446 -0.074,-1.4892 -0.074,-2.2339 l 0,-2.2338 c 0.695,3.0281 1.0425,4.5174 1.0425,4.4677 l 1.3403,1.8616 c 0.099,-0.05 0.1489,-0.1 0.1489,-0.1489 0.05,-0.049 0.1,-0.099 0.1489,-0.1489 0.099,0.8439 1.8616,3.3259 5.2869,7.4462 3.3757,4.021 5.0635,7.6697 5.0635,10.9461 l 0,0.8191 c 1.5389,-0.049 2.5317,0.1 2.9785,0.4468 -0.2979,-0.9929 -0.5461,-1.9361 -0.7446,-2.8296 -0.1489,-0.8936 -0.2234,-1.6879 -0.2234,-2.3828 0,-0.1986 0.075,-0.4468 0.2234,-0.7447 0.1489,-0.3475 0.3227,-0.695 0.5212,-1.0425 0.1986,-0.3475 0.3724,-0.6701 0.5213,-0.968 0.1985,-0.2979 0.2978,-0.5461 0.2978,-0.7446 l 2.4573,0 c 0.099,0.049 0.2978,0.1734 0.5957,0.3723 0.2979,0.1986 0.7695,0.4965 1.4148,0.8936 0.5957,0.2978 0.8935,0.9431 0.8935,1.936 0,0.6453 -0.025,0.9928 -0.074,1.0425 -0.05,0 -0.075,-0.025 -0.075,-0.075 -1.7375,1.7871 -2.6062,3.3012 -2.6062,4.5423 0,0.6949 0.6453,1.4395 1.936,2.2338 0.3475,-0.4467 0.4965,-1.1913 0.4468,-2.2338 0.4964,0.8935 1.3403,2.0353 2.5318,3.4252 1.241,1.3403 2.8047,2.9537 4.6911,4.8401 l 0.3723,-4.5422 c -0.099,-0.1489 -0.2234,-0.2234 -0.3723,-0.2234 -0.1489,0 -0.3971,0.075 -0.7446,0.2234 -0.3475,0.1489 -0.6206,0.2234 -0.8191,0.2234 -2.0353,0 -3.053,-0.6205 -3.053,-1.8616 l 0,-3.1274 c 0.5461,-0.2979 1.2162,-0.5957 2.0105,-0.8936 0.7943,-0.3475 1.7871,-0.7198 2.9785,-1.1169 -0.6453,-0.6453 -0.968,-1.5885 -0.968,-2.8296 l 0,-0.5213 c 0,-0.1985 0.025,-0.3971 0.075,-0.5957 0.3971,-0.2482 0.8191,-0.5957 1.2658,-1.0424 0.4965,-0.4965 1.0674,-1.0922 1.7127,-1.7871 0.4964,-1.0921 1.1169,-2.4325 1.8616,-4.021 0.7943,-1.6382 1.6878,-3.5494 2.6806,-5.7337 -0.5957,-1.0425 -1.3403,-1.6133 -2.2339,-1.7126 -1.5885,-0.1489 -2.4821,-0.273 -2.6806,-0.3723 0.099,-0.3971 0.4468,-0.9432 1.0425,-1.6382 0.5957,-0.695 1.4396,-1.5886 2.5317,-2.6807 0.1985,0.5461 0.4467,1.1914 0.7446,1.936 0.2979,0.695 0.695,1.5389 1.1914,2.5318 1.9361,-1.7871 2.9041,-4.0955 2.9041,-6.9251 0,-0.099 -0.05,-0.2978 -0.1489,-0.5957 -0.099,-0.2978 -0.149,-0.546 -0.149,-0.7446 -0.049,-0.6453 0.2733,-1.4892 0.968,-2.5317 0.8439,-0.9929 1.3155,-1.6879 1.4148,-2.085 -0.2482,0.049 -0.4964,0.099 -0.7446,0.1489 l -0.8935,0 c -3.3261,0 -5.9323,-1.0177 -7.8186,-3.053 0.3971,-0.5957 0.9432,-1.2658 1.6381,-2.0105 0.695,-0.7943 1.5389,-1.6878 2.5318,-2.6806 0.2979,0.4468 0.695,0.9929 1.1914,1.6382 0.5461,0.5957 1.241,1.3155 2.0849,2.1594 0.1986,-0.7447 1.1915,-2.0105 2.9786,-3.7976 -0.099,1.1417 -0.025,1.8615 0.2234,2.1594 0.6949,-4.5174 1.3651,-8.5136 2.0104,-11.9885 0.695,-3.4749 1.39,-6.4783 2.085,-9.01 0.2482,3.0778 0.2482,5.4358 0,7.0739 l -0.3723,1.9361 c -0.099,0.3475 -0.1986,0.695 -0.2979,1.0425 -0.049,0.2978 -0.074,0.5956 -0.074,0.8935 0,0.05 -0.1241,0.7698 -0.3723,2.1594 -0.1986,0.8936 -0.1739,1.6134 0.074,2.1595 -1.6381,3.0778 -2.4572,5.6592 -2.4572,7.7441 0,0.3971 0.05,0.8439 0.1489,1.3403 0.1489,-0.2482 0.3227,-0.546 0.5212,-0.8935 0.2482,-0.3971 0.5709,-0.8191 0.968,-1.2659 l 1.9361,0 0,3.6487 c -1.1418,0.7943 -2.7304,1.1914 -4.7657,1.1914 -1.1914,2.7799 -1.7871,4.5422 -1.7871,5.2869 0,0.8935 0.4716,1.2907 1.4148,1.1914 l 0.8191,-0.074 c -1.5885,0.4964 -2.8296,1.7623 -3.7231,3.7976 l -2.3084,5.0635 c 0.1489,0.1489 0.3227,0.2234 0.5213,0.2234 1.5389,0 2.1097,-0.05 1.7126,-0.1489 0.2979,0.3971 0.5709,0.8687 0.8191,1.4148 0.2482,0.546 0.4964,1.1913 0.7446,1.936 -1.0921,1.2411 -2.2586,1.8616 -3.4997,1.8616 -1.1418,0 -1.9113,-0.1986 -2.3084,-0.5957 -1.2907,1.3899 -1.936,2.6806 -1.936,3.872 0,0.5461 0.422,1.3155 1.2659,2.3084 l 1.7871,2.1594 c 0.1985,-0.4468 0.3971,-0.9184 0.5957,-1.4148 0.2482,-0.5461 0.4964,-1.0425 0.7446,-1.4893 0.2979,-0.4467 0.6205,-0.819 0.968,-1.1169 0.3971,-0.2979 0.8439,-0.4468 1.3404,-0.4468 1.9857,0 3.2515,0.7943 3.7976,2.3828 0.2482,0.695 0.2482,1.3404 0,1.9361 -0.1986,0.5957 -0.6454,1.0424 -1.3404,1.3403 l -1.936,0.7446 c 1.1417,0.4965 2.8047,1.5886 4.989,3.2764 -0.3971,0.9929 -1.1418,1.9112 -2.2339,2.7551 -1.241,0.7943 -2.2835,1.1666 -3.1274,1.117 l -0.3723,-0.075 c -0.1986,0.2979 -0.422,0.695 -0.6702,1.1914 -0.2482,0.4964 -0.5461,1.0921 -0.8936,1.7871 -1.936,0.2482 -3.2763,0.4468 -4.0209,0.5957 -0.695,0.099 -0.7943,0.149 -0.2979,0.149 -0.2979,0 -0.6454,-0.099 -1.0425,-0.2979 -0.3475,-0.1985 -0.7198,-0.5212 -1.1169,-0.968 0,-0.2482 0.05,-0.5957 0.1489,-1.0425 0.099,-0.4468 0.1489,-0.7943 0.1489,-1.0425 0,-0.2482 -0.099,-0.6205 -0.2978,-1.1169 -0.4468,0.695 -0.6702,1.6134 -0.6702,2.7551 0,3.4749 0.273,6.4286 0.8191,8.8611 0.7943,-2.1843 1.7375,-3.6487 2.8296,-4.3933 0.6453,0.3971 1.5141,0.6702 2.6062,0.8191 0.9929,0.1489 1.6879,0.2979 2.085,0.4468 -0.7447,1.5389 -2.2339,3.3756 -4.4678,5.5102 0.5957,0.1489 1.0424,0.1489 1.3403,0 1.5389,-0.8439 2.2091,-1.2659 2.0105,-1.2659 0.1489,0.05 0.3475,0.1 0.5957,0.149 0.2482,0.099 0.5212,0.1985 0.8191,0.2978 0.2979,0.05 0.6702,0.1245 1.1169,0.2234 -1.8863,-0.099 -4.2443,0.8439 -7.0739,2.8296 -0.7943,1.0921 -2.085,2.4573 -3.8721,4.0955 -4.7656,2.7799 -9.5064,7.0491 -14.2224,12.8076 -4.8153,5.8577 -7.9675,11.3432 -9.4568,16.4563 0.3971,-0.099 3.8721,-1.2659 10.4248,-3.4998 0.049,-0.9432 0.3472,-2.2835 0.8936,-4.021 l 1.6381,3.2764 c 0.4965,-0.8439 1.4893,-1.5389 2.9786,-2.085 l -0.2234,1.117 c -0.049,0.099 3e-4,0.273 0.1489,0.5212 2.2339,-0.3971 3.8969,-0.695 4.989,-0.8935 1.1418,-0.1986 1.663,-0.2979 1.5637,-0.2979 0.7447,0 1.117,-0.4964 1.117,-1.4893 0,-1.936 -0.025,-3.2515 -0.074,-3.9465 0,-0.6453 -0.025,-0.695 -0.074,-0.1489 0.1489,-1.4396 1.0176,-2.1594 2.6062,-2.1594 0.4964,0 1.4892,0.3723 2.9785,1.1169 l 0.6701,-2.9041 c 0.1986,-1.0425 0.8191,-1.5637 1.8616,-1.5637 1.8367,0 3.1522,0.2482 3.9465,0.7447 -0.1489,3.0281 -0.1985,4.6415 -0.1489,4.84 l 5.138,0 c 0.546,0 2.209,-0.9928 4.989,-2.9785 2.7799,-2.0353 4.4181,-3.0529 4.9145,-3.0529 l 0.8191,0 c 0.099,0.049 0.3971,0.074 0.8936,0.074 1.7375,0 3.5494,-0.2482 5.4358,-0.7446 1.936,-0.4468 3.9961,-1.0921 6.1804,-1.936 -1.0921,0.6949 -2.8793,1.4892 -5.3614,2.3828 -2.4324,0.8439 -4.2443,1.2658 -5.4357,1.2658 -1.4893,0 -2.3828,0.075 -2.6807,0.2234 -1.1418,0.5957 -2.4573,1.39 -3.9465,2.3828 -1.4893,0.9929 -3.1771,2.1346 -5.0635,3.4253 -0.099,0.8936 -0.3971,2.1595 -0.8936,3.7976 -0.4467,0 -0.9928,0.025 -1.6382,0.074 -0.6453,0.05 -1.3899,0.1245 -2.2338,0.2234 -0.1986,0.2979 -0.422,0.6702 -0.6702,1.1169 -0.2482,0.4965 -0.5461,1.0674 -0.8936,1.7127 1.4397,0.6453 2.2091,0.9432 2.3084,0.8935 1.4893,-2.1842 2.6807,-3.2763 3.5742,-3.2763 l 2.3828,0 c -0.2482,0.4467 -1.5141,1.8119 -3.7976,4.0954 0.2979,0.1986 0.5213,0.2979 0.6702,0.2979 l 0.074,-0.075 c 1.6879,-0.9432 3.5991,-2.358 5.7337,-4.2444 0.099,-0.8439 0.7942,-2.1842 2.0849,-4.021 1.6382,1.4397 2.4573,2.3084 2.4573,2.6062 -0.9928,0.5461 -1.8367,0.9929 -2.5317,1.3404 -0.695,0.3475 -1.1914,0.6453 -1.4893,0.8935 -1.241,0.8439 -2.2835,1.9361 -3.1274,3.2764 0.5957,0.1489 1.3155,0.3475 2.1594,0.5957 0.8439,0.2482 1.8368,0.5212 2.9785,0.8191 0.1986,-0.4468 0.5461,-1.0177 1.0425,-1.7127 0.4964,-0.6453 1.0921,-1.4148 1.7871,-2.3083 0.3971,0.099 0.8439,0.273 1.3403,0.5212 0.5461,0.2482 1.117,0.5212 1.7127,0.8191 -0.5461,1.39 -1.4644,2.3084 -2.7551,2.7551 0.9928,0.05 2.6062,0.472 4.8401,1.2659 2.2339,0.7943 5.1131,1.9609 8.6376,3.4998 l 0,-114.2261 z m 2.8296,114.9707 c 0,3.2763 -1.1914,6.1059 -3.5742,8.4888 -2.3331,2.3331 -5.1627,3.4997 -8.4888,3.4997 l -80.9411,0 c -3.2267,0 -6.0563,-1.1666 -8.4888,-3.4997 -2.3331,-2.4325 -3.4997,-5.2621 -3.4997,-8.4888 l 0,-114.9707 c 0,-3.326 1.1666,-6.1556 3.4997,-8.4888 2.3828,-2.3828 5.2124,-3.5742 8.4888,-3.5742 l 80.9411,0 c 3.3261,0 6.1557,1.1914 8.4888,3.5742 2.3828,2.3332 3.5742,5.1628 3.5742,8.4888 z" />
                <path
                   sodipodi:nodetypes="scscsccssccccsccccccsccccccccccccsscscccsccccccscccscsccccccscscccccccccsccccsccscscccscccccsccsccscsccccscscsccccscsccscscscsccscc"
                   inkscape:connector-curvature="0"
                   d="m 3725.7195,2778.0088 c 0,0.7943 -0.2482,1.4644 -0.7446,2.0105 -1.2907,-0.5461 -1.9361,-1.2907 -1.9361,-2.2339 l 0,-2.2339 c 1.7871,0.5461 2.6807,1.3652 2.6807,2.4573 z m 1.4148,-8.4888 c 0,1.0921 -0.1241,1.8368 -0.3723,2.2339 -1.5885,-0.5461 -2.3828,-1.7375 -2.3828,-3.5742 0,-0.1986 0.099,-0.2979 0.2978,-0.2979 0.8935,0 1.7126,0.5461 2.4573,1.6382 z m 3.053,11.3928 -0.3724,-0.4467 c 0,-0.2979 0.05,-0.7447 0.149,-1.3404 0.1489,-0.5957 0.2234,-1.0176 0.2234,-1.2658 l 0,-4.3189 -10.4993,1.4893 c -0.2482,0.695 -0.5957,1.5389 -1.0425,2.5317 -0.3971,0.9432 -0.8687,2.0601 -1.4148,3.3508 z m 0.3723,-14.2224 c -0.5461,-0.7446 -1.2411,-1.1169 -2.085,-1.1169 -0.4468,0 -0.968,0.05 -1.5637,0.1489 -0.5957,0.099 -1.3155,0.2482 -2.1594,0.4468 -0.9929,0.2482 -1.812,0.4468 -2.4573,0.5957 -0.5957,0.099 -1.0177,0.1737 -1.2659,0.2234 -0.099,0.7446 -0.2482,1.663 -0.4468,2.7551 -0.1489,1.0425 -0.3474,2.2835 -0.5957,3.7232 0.9929,-0.1986 2.358,-0.422 4.0955,-0.6702 1.7871,-0.2482 3.9466,-0.4964 6.4783,-0.7446 z m -16.8286,-4.0954 c 0,0.695 -0.6454,1.3155 -1.9361,1.8615 l -2.7551,1.0425 c -0.05,1.0921 -0.075,3.4253 -0.075,6.9995 l 0,14.5203 c 0,0.8935 -0.4964,2.3083 -1.4892,4.2444 -1.2411,-1.1914 -1.8616,-2.358 -1.8616,-3.4998 0,-0.695 0.05,-1.5637 0.1489,-2.6062 0.1489,-1.0921 0.3723,-2.358 0.6702,-3.7976 0.5957,-2.9289 0.8687,-5.0386 0.8191,-6.3293 -0.05,-0.3475 -0.075,-0.7943 -0.075,-1.3404 0,-0.4467 -0.025,-0.9928 -0.074,-1.6381 l 0,-2.3829 c -3.2764,6.7513 -7.2726,11.1943 -11.9886,13.3289 6.0067,-6.7017 9.8539,-12.2864 11.5418,-16.7541 -0.3971,0 -0.8936,0.05 -1.4893,0.1489 -0.5957,0.099 -1.2658,0.2234 -2.0105,0.3723 -1.3899,0.3475 -2.4572,0.5212 -3.2019,0.5212 -0.4964,0 -1.0176,-0.074 -1.5637,-0.2234 -0.4964,-0.1985 -1.0673,-0.4467 -1.7126,-0.7446 4.0209,-1.0425 7.5455,-2.1594 10.5737,-3.3508 l 0,-8.4143 c 0,-0.3971 -0.5461,-1.8368 -1.6382,-4.3189 l 1.7871,0 c 0.1489,0 1.117,0.5957 2.9041,1.7871 -0.4468,2.3829 -0.8936,5.8082 -1.3404,10.2759 0.5461,0 1.1914,0.025 1.9361,0.075 0.7943,0.049 1.7375,0.1238 2.8296,0.2234 z m 0,9.8291 -1.7872,0 c -1.1417,0 -2.0105,-0.8936 -2.6062,-2.6807 l 2.5318,0 c 0.7943,0 1.4148,0.4964 1.8616,1.4893 z m 28.7426,0.4467 c -0.9928,0.049 -2.2587,0.1238 -3.7976,0.2234 -1.5389,0.05 -3.3508,0.1741 -5.4358,0.3724 -0.099,0.8439 -0.2234,1.9112 -0.3723,3.2019 -0.1489,1.241 -0.3475,2.7054 -0.5957,4.3933 l 3.9466,1.1169 c 1.5885,0.3475 2.5565,1.1914 2.904,2.5317 -0.2482,0.2483 -0.6453,0.3724 -1.1914,0.3724 -0.049,0 -1.9605,-0.5461 -5.7336,-1.6382 l -1.7127,5.5102 c -0.7943,1.9857 -2.085,3.326 -3.8721,4.021 -0.6666,-1.8611 -4.6101,-5.7171 -1.4148,-4.6911 0.695,0.1985 1.2411,0.2978 1.6382,0.2978 0.7447,0 1.3404,-0.8687 1.7871,-2.6062 0.3971,-1.4396 0.5957,-2.6558 0.5957,-3.6487 l -8.4887,0 c -0.8936,0 -3.2764,0.5957 -7.1485,1.7871 -0.3475,-0.2978 -0.5212,-0.6949 -0.5212,-1.1914 0,-0.3475 0.6702,-1.4148 2.0105,-3.2019 1.39,-1.8864 2.2339,-3.3012 2.5317,-4.2443 -0.2978,0 -0.7942,0.074 -1.4892,0.2233 -0.6453,0.1489 -1.1418,0.2234 -1.4893,0.2234 -0.695,0 -1.4148,-0.4219 -2.1594,-1.2658 l 5.8081,-0.8191 c 0,-0.2979 0.025,-0.695 0.074,-1.1914 0.099,-0.4965 0.1737,-1.0177 0.2233,-1.5638 0.099,-0.5461 0.1738,-1.0673 0.2234,-1.5637 0.099,-0.4964 0.149,-0.8935 0.149,-1.1914 0,-0.9928 -0.2234,-1.8615 -0.6702,-2.6062 0.2482,0 0.6205,0.05 1.1169,0.1489 0.5461,0.05 0.968,0.075 1.2659,0.075 0.4964,0 1.1169,-0.099 1.8616,-0.2979 0.7943,-0.1985 1.7126,-0.4964 2.7551,-0.8935 1.9361,-0.7943 3.4501,-1.1914 4.5422,-1.1914 0.9432,0 2.3828,0.8191 4.3189,2.4573 l 0,0.2234 c 0,0.1489 -0.05,0.3971 -0.1489,0.7446 -0.049,0.3475 -0.1486,0.7446 -0.2979,1.1914 -0.099,0.4468 -0.1985,0.9184 -0.2978,1.4148 -0.05,0.4467 -0.075,0.8935 -0.075,1.3403 0.2979,0.3971 0.7695,0.5957 1.4148,0.5957 0.1985,0 0.4716,-0.025 0.8191,-0.074 0.3971,-0.099 0.7943,-0.1986 1.1914,-0.2979 0.3971,-0.099 0.7694,-0.1737 1.1169,-0.2234 0.3971,-0.099 0.695,-0.1489 0.8936,-0.1489 0.3475,0 0.9928,0.273 1.936,0.8191 1.0921,0.5957 1.6878,1.0176 1.7871,1.2658 z m -6.4782,-13.7756 c -7.9924,1.8367 -12.5346,2.7551 -13.6267,2.7551 -0.2979,0 -0.695,-0.05 -1.1915,-0.1489 -0.4467,-0.1489 -0.819,-0.2234 -1.1169,-0.2234 -0.1489,0 -1.0673,0.7695 -2.7551,2.3084 l -2.9785,2.8296 c 4.6167,-7.347 6.925,-12.2864 6.925,-14.8181 0,-0.4965 -0.074,-1.0177 -0.2234,-1.5638 l 1.117,0 c 0.3971,0 1.0425,0.3227 1.936,0.968 0.8935,0.695 1.3403,1.2163 1.3403,1.5638 0,0.049 -1.6134,2.6555 -4.8401,7.8186 0.3971,0.099 0.695,0.1489 0.8936,0.1489 0.4964,0 1.1914,-0.1241 2.085,-0.3723 0.8935,-0.2979 2.0105,-0.7198 3.3508,-1.2659 2.8296,-1.1417 5.0138,-1.7126 6.5527,-1.7126 1.1418,0 1.9857,0.1489 2.5318,0.4467 z"
                   style="font-size:152.5px;fill:#0055d4"
                   id="path14589" />
              </g>
              <path
                 inkscape:connector-curvature="0"
                 id="path14636"
                 d="m 3693.6743,2878.5714 6.3385,5.4996"
                 style="fill:none;fill-rule:evenodd;stroke:#000000;stroke-width:2.81571364;stroke-linecap:round;stroke-linejoin:round;stroke-miterlimit:4;stroke-dasharray:none;stroke-opacity:1" />
            </g>
            <g
               transform="matrix(0.99939083,-0.0348995,0.0348995,0.99939083,-405.77328,116.25578)"
               id="g14651">
              <rect
                 style="opacity:1;fill:#b3aeae;fill-opacity:1;stroke:#000000;stroke-width:2.94730043;stroke-linecap:round;stroke-linejoin:round;stroke-miterlimit:4;stroke-dasharray:none;stroke-opacity:1"
                 id="rect14628"
                 width="101.30952"
                 height="134.87738"
                 x="3865.0273"
                 y="2750.6343"
                 rx="7.4884653"
                 ry="16.169863" />
              <rect
                 ry="16.169863"
                 rx="7.4884653"
                 y="2745.2358"
                 x="3859.3918"
                 height="134.87738"
                 width="101.30952"
                 id="rect14620"
                 style="opacity:1;fill:#f8f8f8;fill-opacity:1;stroke:#000000;stroke-width:2.94730043;stroke-linecap:round;stroke-linejoin:round;stroke-miterlimit:4;stroke-dasharray:none;stroke-opacity:1" />
              <path
                 sodipodi:nodetypes="scsscssssscssscsscssssscss"
                 inkscape:connector-curvature="0"
                 id="path14580"
                 style="font-style:normal;font-weight:normal;font-size:152.5px;line-height:125%;font-family:sans-serif;letter-spacing:0px;word-spacing:0px;fill:#000000;fill-opacity:1;stroke:none;stroke-width:1px;stroke-linecap:butt;stroke-linejoin:miter;stroke-opacity:1"
                 d="m 3960.2776,2754.9253 c 0,-2.4821 -0.8936,-4.6664 -2.6807,-6.5527 -1.8864,-1.7871 -4.0706,-2.6807 -6.5527,-2.6807 l -80.9412,0 c -2.4325,0 -4.5919,0.8936 -6.4782,2.6807 -1.7871,1.7871 -2.6807,3.9713 -2.6807,6.5527 l 0,114.9707 c 0,2.5317 0.8936,4.6912 2.6807,6.4783 1.7871,1.7871 3.9465,2.6806 6.4782,2.6806 l 80.9412,0 c 2.5814,0 4.7656,-0.8935 6.5527,-2.6806 1.7871,-1.8864 2.6807,-4.0458 2.6807,-6.4783 z m 2.8296,114.9707 c 0,3.2763 -1.1914,6.1059 -3.5742,8.4888 -2.3332,2.3331 -5.1628,3.4997 -8.4888,3.4997 l -80.9412,0 c -3.2267,0 -6.0563,-1.1666 -8.4887,-3.4997 -2.3332,-2.4325 -3.4998,-5.2621 -3.4998,-8.4888 l 0,-114.9707 c 0,-3.326 1.1666,-6.1556 3.4998,-8.4888 2.3828,-2.3828 5.2124,-3.5742 8.4887,-3.5742 l 80.9412,0 c 3.326,0 6.1556,1.1914 8.4888,3.5742 2.3828,2.3332 3.5742,5.1628 3.5742,8.4888 z" />
              <path
                 style="font-size:152.5px;fill:#aa0000"
                 d="m 3905.3984,2794.3162 c -5.8618,1.0067 -11.7615,1.7616 -17.6477,2.6062 1.3099,5.3297 1.9386,10.8208 1.9361,16.3073 5.2313,-0.6907 10.469,-1.3358 15.7116,-1.936 0,-5.6592 0,-11.3183 0,-16.9775 z m 24.2005,1.8615 c 0.6546,-4.9014 -5.2055,-3.9568 -8.3166,-3.681 -3.3454,-0.029 -7.0169,1.1423 -10.1223,0.4931 -0.8047,-1.1828 -0.2249,2.2666 -0.4002,3.1896 0,4.8395 0,9.6791 0,14.5186 5.6254,0.1806 11.9558,-0.6053 15.988,-4.9309 2.2147,-2.6511 2.8519,-6.2258 2.8511,-9.5894 z m 12.7331,-2.3083 c -3.86,4.4257 -9.2683,8.1846 -10.5996,14.2227 -0.5477,2.3872 1.5838,5.464 -2.1906,4.4614 -6.1398,0.2531 -12.2725,0.6589 -18.4097,0.9737 -1.1457,-1.9419 -0.5107,1.1042 -0.6702,1.9248 -0.084,12.6526 0.6815,25.5871 -3.0553,37.8418 -1.8216,2.9233 -2.4713,-4.8789 -2.306,-6.9285 0.3062,-7.5191 0.4491,-15.0411 0.3723,-22.5672 -0.079,-2.7752 0.1569,-5.6456 -0.1171,-8.3616 -2.4583,-1.1366 -6.0848,0 -8.986,-0.1594 -2.3051,0.634 -6.306,-0.8808 -6.9821,2.1077 -0.6598,1.326 -1.2661,4.5426 -2.6155,1.4665 -1.8773,-4.2514 -1.9379,-9.0153 -2.8277,-13.5311 -0.2754,-3.0111 -2.297,-5.4834 -3.2177,-8.3179 -1.8837,-2.2879 -2.0776,-5.0154 1.6637,-3.7122 7.2197,0.9165 14.4147,-0.8389 21.4753,-2.1358 3.5403,-1.2757 0.9386,-7.1062 0.9928,-10.2418 -0.119,-3.4956 -3.1339,-8.5211 -2.5501,-10.7972 3.1931,0.077 7.5815,-0.6545 9.1121,2.932 1.2412,4.3133 -1.3497,8.568 -0.8842,12.9421 0,1.311 0,2.6221 0,3.9331 7.0228,0.3062 13.8997,-1.7689 20.8923,-1.9876 4.1531,0.6703 7.6186,3.4967 10.9033,5.9345 z"
                 id="path14584"
                 inkscape:connector-curvature="0" />
              <path
                 style="fill:none;fill-rule:evenodd;stroke:#000000;stroke-width:2.81571364;stroke-linecap:round;stroke-linejoin:round;stroke-miterlimit:4;stroke-dasharray:none;stroke-opacity:1"
                 d="m 3864.8216,2879.4104 6.3385,5.4996"
                 id="path14638"
                 inkscape:connector-curvature="0" />
            </g>
            <g
               transform="matrix(0.98480776,0.17364818,-0.17364818,0.98480776,642.9392,-499.7126)"
               id="g14666">
              <rect
                 style="opacity:1;fill:#b3aeae;fill-opacity:1;stroke:#000000;stroke-width:2.94730043;stroke-linecap:round;stroke-linejoin:round;stroke-miterlimit:4;stroke-dasharray:none;stroke-opacity:1"
                 id="rect14632"
                 width="101.30952"
                 height="134.87738"
                 x="3524.6902"
                 y="2749.7954"
                 rx="7.4884653"
                 ry="16.169863" />
              <rect
                 ry="16.169863"
                 rx="7.4884653"
                 y="2745.2358"
                 x="3519.614"
                 height="134.87738"
                 width="101.30952"
                 id="rect14622"
                 style="opacity:1;fill:#f8f8f8;fill-opacity:1;stroke:#000000;stroke-width:2.94730043;stroke-linecap:round;stroke-linejoin:round;stroke-miterlimit:4;stroke-dasharray:none;stroke-opacity:1" />
              <g
                 id="g14601">
                <path
                   sodipodi:nodetypes="scsscssssscssscsscssssscss"
                   inkscape:connector-curvature="0"
                   id="path14576"
                   style="font-size:152.5px"
                   d="m 3620.1311,2754.9253 c 0,-2.4821 -0.8936,-4.6664 -2.6807,-6.5527 -1.8864,-1.7871 -4.0706,-2.6807 -6.5527,-2.6807 l -80.9412,0 c -2.4324,0 -4.5918,0.8936 -6.4782,2.6807 -1.7871,1.7871 -2.6807,3.9713 -2.6807,6.5527 l 0,114.9707 c 0,2.5317 0.8936,4.6912 2.6807,6.4783 1.7871,1.7871 3.9465,2.6806 6.4782,2.6806 l 80.9412,0 c 2.5814,0 4.7656,-0.8935 6.5527,-2.6806 1.7871,-1.8864 2.6807,-4.0458 2.6807,-6.4783 z m 2.8296,114.9707 c 0,3.2763 -1.1914,6.1059 -3.5742,8.4888 -2.3332,2.3331 -5.1628,3.4997 -8.4888,3.4997 l -80.9412,0 c -3.2267,0 -6.0562,-1.1666 -8.4887,-3.4997 -2.3332,-2.4325 -3.4998,-5.2621 -3.4998,-8.4888 l 0,-114.9707 c 0,-3.326 1.1666,-6.1556 3.4998,-8.4888 2.3828,-2.3828 5.2124,-3.5742 8.4887,-3.5742 l 80.9412,0 c 3.326,0 6.1556,1.1914 8.4888,3.5742 2.3828,2.3332 3.5742,5.1628 3.5742,8.4888 z" />
                <path
                   sodipodi:nodetypes="ssssssssssssssssssssssssssssssssssssssssssssscscccccccccssscccccccccsccscccccccccssscccccccccsccscccccccccssscccccccccsccscccscccscccscscccscccscsccsccscccscccsccccscsccccscccscsccscccscccscccscccscscccscccscsccscscssssscsscscssscsscssssscsscscsssssscssssscsscscssscsscscscscsscscscscsscscscscsscscscscsscscscscsscscsssss"
                   inkscape:connector-curvature="0"
                   d="m 3592.4309,2853.6631 c 0,1.0425 -0.4964,1.5637 -1.4892,1.5637 -0.9929,0 -1.4893,-0.5212 -1.4893,-1.5637 0,-0.9929 0.4964,-1.4893 1.4893,-1.4893 0.9928,0 1.4892,0.4964 1.4892,1.4893 z m -20.4773,-41.3269 c 0,1.0425 -0.4964,1.5637 -1.4892,1.5637 -0.9929,0 -1.4893,-0.5212 -1.4893,-1.5637 0,-0.9929 0.4964,-1.4893 1.4893,-1.4893 0.9928,0 1.4892,0.4964 1.4892,1.4893 z m -20.5517,-41.2525 c 0,1.0425 -0.4964,1.5638 -1.4893,1.5638 -0.9929,0 -1.4893,-0.5213 -1.4893,-1.5638 0,-0.9928 0.4964,-1.4892 1.4893,-1.4892 0.9929,0 1.4893,0.4964 1.4893,1.4892 z m 42.3693,82.5794 c 0,-1.8864 -0.9432,-2.8296 -2.8295,-2.8296 -1.8864,0 -2.8296,0.9432 -2.8296,2.8296 0,1.936 0.9432,2.904 2.8296,2.904 1.8863,0 2.8295,-0.968 2.8295,-2.904 z m -20.4773,-41.3269 c 0,-1.8864 -0.9432,-2.8296 -2.8295,-2.8296 -1.8864,0 -2.8296,0.9432 -2.8296,2.8296 0,1.936 0.9432,2.904 2.8296,2.904 1.8863,0 2.8295,-0.968 2.8295,-2.904 z m -20.5517,-41.2525 c 0,-1.8863 -0.9432,-2.8295 -2.8296,-2.8295 -1.8864,0 -2.8296,0.9432 -2.8296,2.8295 0,1.9361 0.9432,2.9041 2.8296,2.9041 1.8864,0 2.8296,-0.968 2.8296,-2.9041 z m 42.4438,82.5794 c 0,2.8792 -1.4148,4.3188 -4.2443,4.3188 -2.8296,0 -4.2444,-1.4396 -4.2444,-4.3188 0,-2.8296 1.4148,-4.2444 4.2444,-4.2444 2.8295,0 4.2443,1.4148 4.2443,4.2444 z m -20.4773,-41.3269 c 0,2.8792 -1.4148,4.3188 -4.2443,4.3188 -2.8296,0 -4.2444,-1.4396 -4.2444,-4.3188 0,-2.8296 1.4148,-4.2444 4.2444,-4.2444 2.8295,0 4.2443,1.4148 4.2443,4.2444 z m -20.5517,-41.2525 c 0,2.8793 -1.4148,4.3189 -4.2444,4.3189 -2.8296,0 -4.2444,-1.4396 -4.2444,-4.3189 0,-2.8295 1.4148,-4.2443 4.2444,-4.2443 2.8296,0 4.2444,1.4148 4.2444,4.2443 z m 49.1455,82.7283 c 0.05,-1.6878 -0.9925,-2.5317 -3.1275,-2.5317 l -4.989,0 2.5318,-4.3189 c 1.0425,-1.7375 0.8687,-3.0281 -0.5213,-3.872 -1.4396,-0.9432 -2.6806,-0.4716 -3.7231,1.4148 l -2.5317,4.2443 -2.4573,-4.2443 c -0.9929,-1.7871 -2.1843,-2.2836 -3.5742,-1.4893 -1.4893,0.8439 -1.7127,2.1594 -0.6702,3.9465 l 2.4573,4.3189 -4.9146,0 c -2.0849,0 -3.1274,0.8191 -3.1274,2.4572 0,1.5886 1.0425,2.3829 3.1274,2.3829 l 4.9146,0 -2.4573,4.3188 c -1.0425,1.8367 -0.8439,3.1274 0.5957,3.8721 1.39,0.7943 2.6062,0.3227 3.6487,-1.4148 l 2.4573,-4.2444 2.5317,4.2444 c 1.0425,1.7375 2.2587,2.2091 3.6487,1.4148 1.3899,-0.695 1.5885,-1.9857 0.5957,-3.8721 l -2.4573,-4.3188 4.9145,0 c 2.085,0 3.1275,-0.7695 3.1275,-2.3084 z m -20.5518,-41.4014 c 0.05,-1.6381 -0.9925,-2.4572 -3.1274,-2.4572 l -4.9146,0 2.4573,-4.3189 c 1.0425,-1.7871 0.8687,-3.0777 -0.5212,-3.872 -1.39,-0.9432 -2.6311,-0.4716 -3.7232,1.4147 l -2.4572,4.3189 -2.4573,-4.3189 c -1.0425,-1.7871 -2.2587,-2.2835 -3.6487,-1.4892 -1.5389,0.7446 -1.7375,2.0601 -0.5957,3.9465 l 2.4573,4.3189 -4.989,0 c -2.0353,0 -3.053,0.7943 -3.053,2.3828 0,1.6382 1.0177,2.4573 3.053,2.4573 l 4.989,0 -2.4573,4.3188 c -1.0921,1.7871 -0.9184,3.1026 0.5212,3.9465 1.39,0.7447 2.6311,0.2731 3.7232,-1.4148 l 2.4573,-4.3188 2.4572,4.3188 c 1.0425,1.6879 2.2836,2.1595 3.7232,1.4148 1.3403,-0.7943 1.5141,-2.1098 0.5212,-3.9465 l -2.3828,-4.3188 4.8401,0 c 2.0849,0 3.1274,-0.7943 3.1274,-2.3829 z m -20.4773,-41.2524 c 0,-1.6382 -1.0425,-2.4573 -3.1274,-2.4573 l -4.989,0 2.5317,-4.3188 c 1.0425,-1.7375 0.8687,-3.0282 -0.5212,-3.8721 -1.4396,-0.8935 -2.6807,-0.4219 -3.7232,1.4148 l -2.5317,4.3189 -2.4573,-4.3189 c -0.9928,-1.7871 -2.1842,-2.2836 -3.5742,-1.4893 -1.4893,0.7447 -1.7127,2.0602 -0.6702,3.9466 l 2.4573,4.3188 -4.9145,0 c -2.085,0 -3.1275,0.7943 -3.1275,2.3828 0,1.6879 1.0425,2.5318 3.1275,2.5318 l 4.9145,0 -2.4573,4.3188 c -1.0425,1.7375 -0.8439,3.0282 0.5957,3.8721 1.4397,0.7446 2.6559,0.273 3.6487,-1.4148 l 2.4573,-4.3188 2.5317,4.2443 c 0.9929,1.7375 2.2091,2.2339 3.6487,1.4893 1.4396,-0.8439 1.6382,-2.1346 0.5957,-3.8721 l -2.5317,-4.3188 4.989,0 c 1.9857,0 3.0281,-0.8191 3.1274,-2.4573 z m 42.4439,82.5049 c 0.049,2.5814 -1.4648,3.8721 -4.5423,3.8721 l -2.5317,0 1.2659,2.2338 c 1.4893,2.5814 1.1418,4.5174 -1.0425,5.8081 -0.5461,0.2979 -1.1169,0.4468 -1.7126,0.4468 -1.6879,0 -3.0034,-0.8191 -3.9466,-2.4572 l -1.2658,-2.1595 -1.2659,2.1595 c -0.8936,1.6381 -2.1595,2.4572 -3.7976,2.4572 -0.5957,0 -1.1914,-0.1489 -1.7871,-0.4468 -2.1843,-1.2907 -2.5318,-3.2267 -1.0425,-5.8081 l 1.2659,-2.2338 -2.5318,0 c -2.9785,0 -4.4678,-1.2659 -4.4678,-3.7977 -0.049,-2.5813 1.4399,-3.872 4.4678,-3.872 l 2.5318,0 -1.2659,-2.2339 c -1.4893,-2.5814 -1.1418,-4.5174 1.0425,-5.8081 0.6453,-0.2482 1.241,-0.3723 1.7871,-0.3723 1.6878,0 2.9537,0.7943 3.7976,2.3828 l 1.2659,2.1594 1.2658,-2.1594 c 0.9432,-1.6382 2.2339,-2.4573 3.8721,-2.4573 0.5957,0 1.1665,0.1489 1.7126,0.4468 1.1914,0.695 1.7871,1.7871 1.7871,3.2764 0,0.9431 -0.2234,1.787 -0.6701,2.5317 l -1.2659,2.2339 2.5317,0 c 2.9289,0 4.443,1.2659 4.5423,3.7976 z m -20.5518,-41.3269 c 0.049,2.5814 -1.4647,3.8721 -4.5422,3.8721 l -2.5317,0 1.2658,2.2338 c 1.4893,2.5814 1.1418,4.5174 -1.0425,5.8081 -0.4964,0.2979 -1.0673,0.4468 -1.7126,0.4468 -1.6878,0 -2.9785,-0.8191 -3.8721,-2.4573 l -1.2658,-2.1594 -1.2659,2.1594 c -0.9929,1.6382 -2.2836,2.4573 -3.8721,2.4573 -0.2979,0 -0.5957,-0.025 -0.8935,-0.074 -0.2979,-0.05 -0.5709,-0.1741 -0.8191,-0.3724 -2.1843,-1.241 -2.5566,-3.177 -1.117,-5.8081 l 1.3404,-2.2338 -2.6062,0 c -2.9289,0 -4.4182,-1.2907 -4.4678,-3.8721 0,-2.5317 1.4893,-3.7976 4.4678,-3.7976 l 2.6062,0 -1.3404,-2.2339 c -1.3899,-2.5814 -1.0176,-4.4926 1.117,-5.7337 0.2482,-0.1985 0.5212,-0.3226 0.8191,-0.3723 0.2978,-0.099 0.5956,-0.1489 0.8935,-0.1489 1.5885,0 2.8792,0.8191 3.8721,2.4573 l 1.2659,2.2339 1.2658,-2.2339 c 0.8936,-1.6382 2.1595,-2.4573 3.7976,-2.4573 0.6453,0 1.2162,0.1737 1.7127,0.5212 1.2411,0.6454 1.8616,1.7127 1.8616,3.2019 0,0.9929 -0.2482,1.8368 -0.7447,2.5318 l -1.2658,2.2339 2.5317,0 c 3.0281,0 4.5422,1.2659 4.5422,3.7976 z m -20.5517,-41.2525 c 0.049,2.6311 -1.4399,3.9466 -4.4678,3.9466 l -2.5317,0 1.2658,2.1594 c 1.4893,2.5814 1.1418,4.5174 -1.0425,5.8081 -0.5957,0.2979 -1.1914,0.4468 -1.7871,0.4468 -1.6381,0 -2.9288,-0.8191 -3.872,-2.4573 l -1.2659,-2.1594 -1.2659,2.1594 c -0.8935,1.6382 -2.1594,2.4573 -3.7976,2.4573 -0.5957,0 -1.1914,-0.1489 -1.7871,-0.4468 -2.1843,-1.2907 -2.5318,-3.2267 -1.0425,-5.8081 l 1.2659,-2.1594 -2.5317,0 c -2.9785,0 -4.4926,-1.3155 -4.5423,-3.9466 0,-2.5317 1.5141,-3.7976 4.5423,-3.7976 l 2.5317,0 -1.2659,-2.1594 c -1.4396,-2.631 -1.0921,-4.567 1.0425,-5.8081 0.4964,-0.3475 1.0921,-0.5212 1.7871,-0.5212 1.6382,0 2.9041,0.7943 3.7976,2.3828 l 1.2659,2.3083 1.2659,-2.3083 c 0.9928,-1.5885 2.2835,-2.3828 3.872,-2.3828 0.6454,0 1.2163,0.1737 1.7127,0.5212 1.1914,0.5957 1.7871,1.663 1.7871,3.2019 0,0.9432 -0.2234,1.8119 -0.6702,2.6062 l -1.2658,2.1594 2.5317,0 c 2.9785,0 4.4678,1.2659 4.4678,3.7976 z m 41.6992,82.9517 c 0,-4.3189 -1.3155,-7.8683 -3.9465,-10.6482 -2.5814,-2.7303 -6.0315,-4.0955 -10.3504,-4.0955 -4.0706,0 -7.4959,1.39 -10.2759,4.17 -2.7303,2.7303 -4.0954,6.23 -4.0954,10.4992 0,4.0707 1.3651,7.4463 4.0954,10.127 2.7303,2.6807 6.1308,4.021 10.2015,4.021 4.0706,0 7.4959,-1.3403 10.2758,-4.021 2.7303,-2.5814 4.0955,-5.9322 4.0955,-10.0525 z m -20.4773,-41.3269 c 0,-4.2195 -1.3155,-7.7689 -3.9465,-10.6482 -2.6807,-2.7303 -6.1308,-4.0955 -10.3504,-4.0955 -4.1203,0 -7.5704,1.39 -10.3503,4.17 -2.7303,2.7303 -4.0955,6.23 -4.0955,10.4992 0,4.0707 1.3652,7.4463 4.0955,10.127 2.7303,2.6807 6.1556,4.021 10.2759,4.021 4.0706,0 7.4959,-1.3155 10.2758,-3.9466 2.7303,-2.6806 4.0955,-6.0562 4.0955,-10.1269 z m -20.5518,-41.2524 c 0,-4.2693 -1.3155,-7.7939 -3.9465,-10.5738 -2.5814,-2.7303 -6.0315,-4.0954 -10.3503,-4.0954 -4.0707,0 -7.496,1.39 -10.2759,4.1699 -2.7303,2.7303 -4.0955,6.2052 -4.0955,10.4248 0,4.0706 1.3652,7.4462 4.0955,10.1269 2.7303,2.6807 6.1307,4.021 10.2014,4.021 4.0707,0 7.496,-1.3155 10.2759,-3.9465 2.7303,-2.6807 4.0954,-6.0563 4.0954,-10.1269 z m 42.4439,82.5793 c 0,4.4678 -1.5141,8.1413 -4.5423,11.0205 -2.9785,2.9785 -6.7264,4.4678 -11.2438,4.4678 -4.4678,0 -8.2158,-1.4893 -11.2439,-4.4678 -2.9785,-2.9289 -4.4678,-6.6272 -4.4678,-11.095 0,-4.6663 1.4893,-8.4887 4.4678,-11.4672 3.0778,-3.0778 6.8506,-4.6167 11.3183,-4.6167 4.6167,0 8.3895,1.5389 11.3184,4.6167 2.9289,3.0778 4.3933,6.925 4.3933,11.5417 z m -20.4773,-41.3269 c 0,4.4181 -1.5141,8.1165 -4.5422,11.095 -3.0778,2.9289 -6.8258,4.3933 -11.2439,4.3933 -4.4678,0 -8.2158,-1.4893 -11.2439,-4.4678 -3.0282,-2.9785 -4.5423,-6.6769 -4.5423,-11.095 0,-4.6167 1.5141,-8.4391 4.5423,-11.4673 3.0778,-3.0778 6.8506,-4.6167 11.3183,-4.6167 4.6663,0 8.4391,1.5141 11.3184,4.5423 2.9289,3.0778 4.3933,6.9499 4.3933,11.6162 z m -20.5518,-41.2524 c 0,4.4181 -1.5141,8.1164 -4.5422,11.0949 -3.0281,2.9289 -6.7761,4.3933 -11.2439,4.3933 -4.4678,0 -8.2158,-1.4892 -11.2439,-4.4677 -2.9785,-2.9289 -4.4678,-6.6272 -4.4678,-11.095 0,-4.6663 1.4893,-8.4888 4.4678,-11.4673 3.0281,-3.0281 6.8009,-4.5422 11.3184,-4.5422 4.7159,0 8.4887,1.4892 11.3183,4.4677 2.9289,3.0778 4.3933,6.9499 4.3933,11.6163 z m 43.114,82.5793 c 0,-5.2124 -1.663,-9.5561 -4.989,-13.031 -3.2267,-3.4253 -7.4959,-5.1379 -12.8076,-5.1379 -5.0635,0 -9.3327,1.7375 -12.8076,5.2124 -3.3757,3.4749 -5.0635,7.7689 -5.0635,12.882 0,4.9642 1.6878,9.1341 5.0635,12.5098 3.4253,3.3757 7.6697,5.0635 12.7332,5.0635 5.1131,0 9.3326,-1.663 12.6586,-4.989 3.4749,-3.326 5.2124,-7.4959 5.2124,-12.5098 z m -20.5517,-41.3269 c 0,-5.1627 -1.6382,-9.5064 -4.9146,-13.031 -3.3756,-3.4253 -7.6448,-5.1379 -12.8076,-5.1379 -5.0635,0 -9.3327,1.7375 -12.8076,5.2124 -3.4253,3.5245 -5.1379,7.8185 -5.1379,12.882 0,5.0635 1.7126,9.2582 5.1379,12.5843 3.3757,3.3756 7.6201,5.0634 12.7332,5.0634 5.0635,0 9.283,-1.663 12.6586,-4.989 3.4253,-3.326 5.138,-7.5207 5.138,-12.5842 z m -20.4773,-41.2524 c 0,-5.2124 -1.663,-9.5561 -4.989,-13.0311 -3.2764,-3.4253 -7.5456,-5.1379 -12.8076,-5.1379 -4.9642,0 -9.2334,1.7375 -12.8077,5.2124 -3.3756,3.5246 -5.0634,7.8186 -5.0634,12.8821 0,5.1131 1.6878,9.3079 5.0634,12.5842 3.4253,3.3757 7.6697,5.0635 12.7332,5.0635 5.1131,0 9.3327,-1.663 12.6587,-4.989 3.4749,-3.2764 5.2124,-7.4711 5.2124,-12.5842 z m 42.4438,82.5793 c 0,5.411 -1.8616,9.9036 -5.5847,13.4778 -3.6735,3.6239 -8.2405,5.4358 -13.7011,5.4358 -5.411,0 -9.9533,-1.8119 -13.6268,-5.4358 -3.6735,-3.5742 -5.5102,-8.0916 -5.5102,-13.5523 0,-5.4606 1.8367,-10.0773 5.5102,-13.8501 3.5743,-3.7231 8.1413,-5.5847 13.7012,-5.5847 5.6592,0 10.2759,1.8616 13.8501,5.5847 3.5742,3.6735 5.3613,8.3151 5.3613,13.9246 z m -20.5517,-41.3269 c 0,5.5103 -1.8616,10.0277 -5.5847,13.5522 -3.6239,3.6239 -8.1661,5.4358 -13.6267,5.4358 -5.3613,0 -9.9284,-1.8367 -13.7012,-5.5102 -3.7231,-3.5742 -5.5847,-8.0916 -5.5847,-13.5523 0,-5.5102 1.8616,-10.1269 5.5847,-13.8501 3.6239,-3.7727 8.2157,-5.6591 13.7756,-5.6591 5.6095,0 10.2014,1.8616 13.7757,5.5847 3.5742,3.6239 5.3613,8.2902 5.3613,13.999 z m -20.5518,-41.2524 c 0,5.3613 -1.8367,9.8787 -5.5102,13.5522 -3.7231,3.5742 -8.2902,5.3613 -13.7012,5.3613 -5.3613,0 -9.9284,-1.8119 -13.7012,-5.4358 -3.6735,-3.6735 -5.5102,-8.1909 -5.5102,-13.5522 0,-5.4606 1.8367,-10.0773 5.5102,-13.8501 3.6735,-3.7728 8.2654,-5.6592 13.7757,-5.6592 5.6095,0 10.2014,1.8616 13.7756,5.5847 3.5742,3.7231 5.3613,8.3895 5.3613,13.9991 z"
                   style="font-size:152.5px"
                   id="path14593" />
                <path
                   id="path14595"
                   style="font-size:152.5px;fill:#0055d4;fill-opacity:1"
                   d="m 3551.4019,2771.0837 c 0,1.0425 -0.4964,1.5638 -1.4893,1.5638 -0.9929,0 -1.4893,-0.5213 -1.4893,-1.5638 0,-0.9928 0.4964,-1.4892 1.4893,-1.4892 0.9929,0 1.4893,0.4964 1.4893,1.4892 z m 1.3403,0 c 0,-1.8863 -0.9432,-2.8295 -2.8296,-2.8295 -1.8864,0 -2.8296,0.9432 -2.8296,2.8295 0,1.9361 0.9432,2.9041 2.8296,2.9041 1.8864,0 2.8296,-0.968 2.8296,-2.9041 z m 1.4148,0 c 0,2.8793 -1.4148,4.3189 -4.2444,4.3189 -2.8296,0 -4.2444,-1.4396 -4.2444,-4.3189 0,-2.8295 1.4148,-4.2443 4.2444,-4.2443 2.8296,0 4.2444,1.4148 4.2444,4.2443 z m 8.1164,0.074 c 0,-1.6382 -1.0425,-2.4573 -3.1274,-2.4573 l -4.989,0 2.5317,-4.3188 c 1.0425,-1.7375 0.8687,-3.0282 -0.5212,-3.8721 -1.4396,-0.8935 -2.6807,-0.4219 -3.7232,1.4148 l -2.5317,4.3189 -2.4573,-4.3189 c -0.9928,-1.7871 -2.1842,-2.2836 -3.5742,-1.4893 -1.4893,0.7447 -1.7127,2.0602 -0.6702,3.9466 l 2.4573,4.3188 -4.9145,0 c -2.085,0 -3.1275,0.7943 -3.1275,2.3828 0,1.6879 1.0425,2.5318 3.1275,2.5318 l 4.9145,0 -2.4573,4.3188 c -1.0425,1.7375 -0.8439,3.0282 0.5957,3.8721 1.4397,0.7446 2.6559,0.273 3.6487,-1.4148 l 2.4573,-4.3188 2.5317,4.2443 c 0.9929,1.7375 2.2091,2.2339 3.6487,1.4893 1.4396,-0.8439 1.6382,-2.1346 0.5957,-3.8721 l -2.5317,-4.3188 4.989,0 c 1.9857,0 3.0281,-0.8191 3.1274,-2.4573 z m 1.3404,-0.074 c 0.049,2.6311 -1.4399,3.9466 -4.4678,3.9466 l -2.5317,0 1.2658,2.1594 c 1.4893,2.5814 1.1418,4.5174 -1.0425,5.8081 -0.5957,0.2979 -1.1914,0.4468 -1.7871,0.4468 -1.6381,0 -2.9288,-0.8191 -3.872,-2.4573 l -1.2659,-2.1594 -1.2659,2.1594 c -0.8935,1.6382 -2.1594,2.4573 -3.7976,2.4573 -0.5957,0 -1.1914,-0.1489 -1.7871,-0.4468 -2.1843,-1.2907 -2.5318,-3.2267 -1.0425,-5.8081 l 1.2659,-2.1594 -2.5317,0 c -2.9785,0 -4.4926,-1.3155 -4.5423,-3.9466 0,-2.5317 1.5141,-3.7976 4.5423,-3.7976 l 2.5317,0 -1.2659,-2.1594 c -1.4396,-2.631 -1.0921,-4.567 1.0425,-5.8081 0.4964,-0.3475 1.0921,-0.5212 1.7871,-0.5212 1.6382,0 2.9041,0.7943 3.7976,2.3828 l 1.2659,2.3083 1.2659,-2.3083 c 0.9928,-1.5885 2.2835,-2.3828 3.872,-2.3828 0.6454,0 1.2163,0.1737 1.7127,0.5212 1.1914,0.5957 1.7871,1.663 1.7871,3.2019 0,0.9432 -0.2234,1.8119 -0.6702,2.6062 l -1.2658,2.1594 2.5317,0 c 2.9785,0 4.4678,1.2659 4.4678,3.7976 z m 0.6701,0.3724 c 0,-4.2693 -1.3155,-7.7939 -3.9465,-10.5738 -2.5814,-2.7303 -6.0315,-4.0954 -10.3503,-4.0954 -4.0707,0 -7.496,1.39 -10.2759,4.1699 -2.7303,2.7303 -4.0955,6.2052 -4.0955,10.4248 0,4.0706 1.3652,7.4462 4.0955,10.1269 2.7303,2.6807 6.1307,4.021 10.2014,4.021 4.0707,0 7.496,-1.3155 10.2759,-3.9465 2.7303,-2.6807 4.0954,-6.0563 4.0954,-10.1269 z m 1.4148,0 c 0,4.4181 -1.5141,8.1164 -4.5422,11.0949 -3.0281,2.9289 -6.7761,4.3933 -11.2439,4.3933 -4.4678,0 -8.2158,-1.4892 -11.2439,-4.4677 -2.9785,-2.9289 -4.4678,-6.6272 -4.4678,-11.095 0,-4.6663 1.4893,-8.4888 4.4678,-11.4673 3.0281,-3.0281 6.8009,-4.5422 11.3184,-4.5422 4.7159,0 8.4887,1.4892 11.3183,4.4677 2.9289,3.0778 4.3933,6.9499 4.3933,11.6163 z m 2.085,0 c 0,-5.2124 -1.663,-9.5561 -4.989,-13.0311 -3.2764,-3.4253 -7.5456,-5.1379 -12.8076,-5.1379 -4.9642,0 -9.2334,1.7375 -12.8077,5.2124 -3.3756,3.5246 -5.0634,7.8186 -5.0634,12.8821 0,5.1131 1.6878,9.3079 5.0634,12.5842 3.4253,3.3757 7.6697,5.0635 12.7332,5.0635 5.1131,0 9.3327,-1.663 12.6587,-4.989 3.4749,-3.2764 5.2124,-7.4711 5.2124,-12.5842 z m 1.3403,0 c 0,5.3613 -1.8367,9.8787 -5.5102,13.5522 -3.7231,3.5742 -8.2902,5.3613 -13.7012,5.3613 -5.3613,0 -9.9284,-1.8119 -13.7012,-5.4358 -3.6735,-3.6735 -5.5102,-8.1909 -5.5102,-13.5522 0,-5.4606 1.8367,-10.0773 5.5102,-13.8501 3.6735,-3.7728 8.2654,-5.6592 13.7757,-5.6592 5.6095,0 10.2014,1.8616 13.7756,5.5847 3.5742,3.7231 5.3613,8.3895 5.3613,13.9991 z"
                   inkscape:connector-curvature="0"
                   sodipodi:nodetypes="ssssssssssssssscscccccccccssscccccccccsccscccscccscccscscccscccscsccscscssssscsscscssscsscscscscsscscsssss" />
                <path
                   sodipodi:nodetypes="ssssssssssssssscscccccccccssscccccccccsccscccscccsccccscsccccscccscsccsccscscssscsscssssscsscscscscsscscscscs"
                   inkscape:connector-curvature="0"
                   d="m 3571.9536,2812.3362 c 0,1.0425 -0.4964,1.5637 -1.4892,1.5637 -0.9929,0 -1.4893,-0.5212 -1.4893,-1.5637 0,-0.9929 0.4964,-1.4893 1.4893,-1.4893 0.9928,0 1.4892,0.4964 1.4892,1.4893 z m 1.3403,0 c 0,-1.8864 -0.9432,-2.8296 -2.8295,-2.8296 -1.8864,0 -2.8296,0.9432 -2.8296,2.8296 0,1.936 0.9432,2.904 2.8296,2.904 1.8863,0 2.8295,-0.968 2.8295,-2.904 z m 1.4148,0 c 0,2.8792 -1.4148,4.3188 -4.2443,4.3188 -2.8296,0 -4.2444,-1.4396 -4.2444,-4.3188 0,-2.8296 1.4148,-4.2444 4.2444,-4.2444 2.8295,0 4.2443,1.4148 4.2443,4.2444 z m 8.042,0.074 c 0.05,-1.6381 -0.9925,-2.4572 -3.1274,-2.4572 l -4.9146,0 2.4573,-4.3189 c 1.0425,-1.7871 0.8687,-3.0777 -0.5212,-3.872 -1.39,-0.9432 -2.6311,-0.4716 -3.7232,1.4147 l -2.4572,4.3189 -2.4573,-4.3189 c -1.0425,-1.7871 -2.2587,-2.2835 -3.6487,-1.4892 -1.5389,0.7446 -1.7375,2.0601 -0.5957,3.9465 l 2.4573,4.3189 -4.989,0 c -2.0353,0 -3.053,0.7943 -3.053,2.3828 0,1.6382 1.0177,2.4573 3.053,2.4573 l 4.989,0 -2.4573,4.3188 c -1.0921,1.7871 -0.9184,3.1026 0.5212,3.9465 1.39,0.7447 2.6311,0.2731 3.7232,-1.4148 l 2.4573,-4.3188 2.4572,4.3188 c 1.0425,1.6879 2.2836,2.1595 3.7232,1.4148 1.3403,-0.7943 1.5141,-2.1098 0.5212,-3.9465 l -2.3828,-4.3188 4.8401,0 c 2.0849,0 3.1274,-0.7943 3.1274,-2.3829 z m 1.4148,-0.074 c 0.049,2.5814 -1.4647,3.8721 -4.5422,3.8721 l -2.5317,0 1.2658,2.2338 c 1.4893,2.5814 1.1418,4.5174 -1.0425,5.8081 -0.4964,0.2979 -1.0673,0.4468 -1.7126,0.4468 -1.6878,0 -2.9785,-0.8191 -3.8721,-2.4573 l -1.2658,-2.1594 -1.2659,2.1594 c -0.9929,1.6382 -2.2836,2.4573 -3.8721,2.4573 -0.2979,0 -0.5957,-0.025 -0.8935,-0.074 -0.2979,-0.05 -0.5709,-0.1741 -0.8191,-0.3724 -2.1843,-1.241 -2.5566,-3.177 -1.117,-5.8081 l 1.3404,-2.2338 -2.6062,0 c -2.9289,0 -4.4182,-1.2907 -4.4678,-3.8721 0,-2.5317 1.4893,-3.7976 4.4678,-3.7976 l 2.6062,0 -1.3404,-2.2339 c -1.3899,-2.5814 -1.0176,-4.4926 1.117,-5.7337 0.2482,-0.1985 0.5212,-0.3226 0.8191,-0.3723 0.2978,-0.099 0.5956,-0.1489 0.8935,-0.1489 1.5885,0 2.8792,0.8191 3.8721,2.4573 l 1.2659,2.2339 1.2658,-2.2339 c 0.8936,-1.6382 2.1595,-2.4573 3.7976,-2.4573 0.6453,0 1.2162,0.1737 1.7127,0.5212 1.2411,0.6454 1.8616,1.7127 1.8616,3.2019 0,0.9929 -0.2482,1.8368 -0.7447,2.5318 l -1.2658,2.2339 2.5317,0 c 3.0281,0 4.5422,1.2659 4.5422,3.7976 z m 0.6702,0.3723 c 0,-4.2195 -1.3155,-7.7689 -3.9465,-10.6482 -2.6807,-2.7303 -6.1308,-4.0955 -10.3504,-4.0955 -4.1203,0 -7.5704,1.39 -10.3503,4.17 -2.7303,2.7303 -4.0955,6.23 -4.0955,10.4992 0,4.0707 1.3652,7.4463 4.0955,10.127 2.7303,2.6807 6.1556,4.021 10.2759,4.021 4.0706,0 7.4959,-1.3155 10.2758,-3.9466 2.7303,-2.6806 4.0955,-6.0562 4.0955,-10.1269 z m 1.4148,0 c 0,4.4181 -1.5141,8.1165 -4.5422,11.095 -3.0778,2.9289 -6.8258,4.3933 -11.2439,4.3933 -4.4678,0 -8.2158,-1.4893 -11.2439,-4.4678 -3.0282,-2.9785 -4.5423,-6.6769 -4.5423,-11.095 0,-4.6167 1.5141,-8.4391 4.5423,-11.4673 3.0778,-3.0778 6.8506,-4.6167 11.3183,-4.6167 4.6663,0 8.4391,1.5141 11.3184,4.5423 2.9289,3.0778 4.3933,6.9499 4.3933,11.6162 z m 2.0105,0 c 0,-5.1627 -1.6382,-9.5064 -4.9146,-13.031 -3.3756,-3.4253 -7.6448,-5.1379 -12.8076,-5.1379 -5.0635,0 -9.3327,1.7375 -12.8076,5.2124 -3.4253,3.5245 -5.1379,7.8185 -5.1379,12.882 0,5.0635 1.7126,9.2582 5.1379,12.5843 3.3757,3.3756 7.6201,5.0634 12.7332,5.0634 5.0635,0 9.283,-1.663 12.6586,-4.989 3.4253,-3.326 5.138,-7.5207 5.138,-12.5842 z m 1.4148,0 c 0,5.5103 -1.8616,10.0277 -5.5847,13.5522 -3.6239,3.6239 -8.1661,5.4358 -13.6267,5.4358 -5.3613,0 -9.9284,-1.8367 -13.7012,-5.5102 -3.7231,-3.5742 -5.5847,-8.0916 -5.5847,-13.5523 0,-5.5102 1.8616,-10.1269 5.5847,-13.8501 3.6239,-3.7727 8.2157,-5.6591 13.7756,-5.6591 5.6095,0 10.2014,1.8616 13.7757,5.5847 3.5742,3.6239 5.3613,8.2902 5.3613,13.999 z"
                   style="font-size:152.5px;fill:#aa0000;fill-opacity:1"
                   id="path14597" />
                <path
                   id="path14599"
                   style="font-size:152.5px;fill:#338000"
                   d="m 3592.4309,2853.6631 c 0,1.0425 -0.4964,1.5637 -1.4892,1.5637 -0.9929,0 -1.4893,-0.5212 -1.4893,-1.5637 0,-0.9929 0.4964,-1.4893 1.4893,-1.4893 0.9928,0 1.4892,0.4964 1.4892,1.4893 z m 1.3403,0 c 0,-1.8864 -0.9432,-2.8296 -2.8295,-2.8296 -1.8864,0 -2.8296,0.9432 -2.8296,2.8296 0,1.936 0.9432,2.904 2.8296,2.904 1.8863,0 2.8295,-0.968 2.8295,-2.904 z m 1.4148,0 c 0,2.8792 -1.4148,4.3188 -4.2443,4.3188 -2.8296,0 -4.2444,-1.4396 -4.2444,-4.3188 0,-2.8296 1.4148,-4.2444 4.2444,-4.2444 2.8295,0 4.2443,1.4148 4.2443,4.2444 z m 8.1165,0.1489 c 0.05,-1.6878 -0.9925,-2.5317 -3.1275,-2.5317 l -4.989,0 2.5318,-4.3189 c 1.0425,-1.7375 0.8687,-3.0281 -0.5213,-3.872 -1.4396,-0.9432 -2.6806,-0.4716 -3.7231,1.4148 l -2.5317,4.2443 -2.4573,-4.2443 c -0.9929,-1.7871 -2.1843,-2.2836 -3.5742,-1.4893 -1.4893,0.8439 -1.7127,2.1594 -0.6702,3.9465 l 2.4573,4.3189 -4.9146,0 c -2.0849,0 -3.1274,0.8191 -3.1274,2.4572 0,1.5886 1.0425,2.3829 3.1274,2.3829 l 4.9146,0 -2.4573,4.3188 c -1.0425,1.8367 -0.8439,3.1274 0.5957,3.8721 1.39,0.7943 2.6062,0.3227 3.6487,-1.4148 l 2.4573,-4.2444 2.5317,4.2444 c 1.0425,1.7375 2.2587,2.2091 3.6487,1.4148 1.3899,-0.695 1.5885,-1.9857 0.5957,-3.8721 l -2.4573,-4.3188 4.9145,0 c 2.085,0 3.1275,-0.7695 3.1275,-2.3084 z m 1.4148,-0.1489 c 0.049,2.5814 -1.4648,3.8721 -4.5423,3.8721 l -2.5317,0 1.2659,2.2338 c 1.4893,2.5814 1.1418,4.5174 -1.0425,5.8081 -0.5461,0.2979 -1.1169,0.4468 -1.7126,0.4468 -1.6879,0 -3.0034,-0.8191 -3.9466,-2.4572 l -1.2658,-2.1595 -1.2659,2.1595 c -0.8936,1.6381 -2.1595,2.4572 -3.7976,2.4572 -0.5957,0 -1.1914,-0.1489 -1.7871,-0.4468 -2.1843,-1.2907 -2.5318,-3.2267 -1.0425,-5.8081 l 1.2659,-2.2338 -2.5318,0 c -2.9785,0 -4.4678,-1.2659 -4.4678,-3.7977 -0.049,-2.5813 1.4399,-3.872 4.4678,-3.872 l 2.5318,0 -1.2659,-2.2339 c -1.4893,-2.5814 -1.1418,-4.5174 1.0425,-5.8081 0.6453,-0.2482 1.241,-0.3723 1.7871,-0.3723 1.6878,0 2.9537,0.7943 3.7976,2.3828 l 1.2659,2.1594 1.2658,-2.1594 c 0.9432,-1.6382 2.2339,-2.4573 3.8721,-2.4573 0.5957,0 1.1665,0.1489 1.7126,0.4468 1.1914,0.695 1.7871,1.7871 1.7871,3.2764 0,0.9431 -0.2234,1.787 -0.6701,2.5317 l -1.2659,2.2339 2.5317,0 c 2.9289,0 4.443,1.2659 4.5423,3.7976 z m 0.5957,0.3723 c 0,-4.3189 -1.3155,-7.8683 -3.9465,-10.6482 -2.5814,-2.7303 -6.0315,-4.0955 -10.3504,-4.0955 -4.0706,0 -7.4959,1.39 -10.2759,4.17 -2.7303,2.7303 -4.0954,6.23 -4.0954,10.4992 0,4.0707 1.3651,7.4463 4.0954,10.127 2.7303,2.6807 6.1308,4.021 10.2015,4.021 4.0706,0 7.4959,-1.3403 10.2758,-4.021 2.7303,-2.5814 4.0955,-5.9322 4.0955,-10.0525 z m 1.4148,0 c 0,4.4678 -1.5141,8.1413 -4.5423,11.0205 -2.9785,2.9785 -6.7264,4.4678 -11.2438,4.4678 -4.4678,0 -8.2158,-1.4893 -11.2439,-4.4678 -2.9785,-2.9289 -4.4678,-6.6272 -4.4678,-11.095 0,-4.6663 1.4893,-8.4887 4.4678,-11.4672 6.6853,-5.9978 16.9238,-5.8248 22.6367,0 2.9289,3.0778 4.3933,6.925 4.3933,11.5417 z m 2.0849,0 c 0,-5.2124 -1.663,-9.5561 -4.989,-13.031 -7.5657,-6.9174 -19.0584,-6.3015 -25.6152,0.075 -3.3757,3.4749 -5.0635,7.7689 -5.0635,12.882 0,4.9642 1.6878,9.1341 5.0635,12.5098 3.4253,3.3757 7.6697,5.0635 12.7332,5.0635 5.1131,0 9.3326,-1.663 12.6586,-4.989 3.4749,-3.326 5.2124,-7.4959 5.2124,-12.5098 z m 1.4148,0 c 0,5.411 -1.8616,9.9036 -5.5847,13.4778 -3.6735,3.6239 -8.2405,5.4358 -13.7011,5.4358 -5.411,0 -9.9533,-1.8119 -13.6268,-5.4358 -3.6735,-3.5742 -5.5102,-8.0916 -5.5102,-13.5523 0,-5.4606 1.8367,-10.0773 5.5102,-13.8501 8.0476,-7.3588 20.6086,-7.0158 27.5513,0 3.5742,3.6735 5.3613,8.3151 5.3613,13.9246 z"
                   inkscape:connector-curvature="0"
                   sodipodi:nodetypes="ssssssssssssssscscccccccccssscccccccccsccscccscccscccscscccscccscsccscscssssscsscscsccssccscscsscscsccs" />
              </g>
              <path
                 style="fill:none;fill-rule:evenodd;stroke:#000000;stroke-width:2.81571364;stroke-linecap:round;stroke-linejoin:round;stroke-miterlimit:4;stroke-dasharray:none;stroke-opacity:1"
                 d="m 3523.6456,2878.5714 6.3385,5.4996"
                 id="path14634"
                 inkscape:connector-curvature="0" />
            </g>
          </g>
        </g>
      </g>
    </g>
  </g>
  <metadata
     id="metadata14013">
    <rdf:RDF>
      <cc:Work>
        <dc:format>image/svg+xml</dc:format>
        <dc:type
           rdf:resource="http://purl.org/dc/dcmitype/StillImage" />
        <cc:license
           rdf:resource="http://creativecommons.org/publicdomain/zero/1.0/" />
        <dc:publisher>
          <cc:Agent
             rdf:about="http://openclipart.org/">
            <dc:title>Openclipart</dc:title>
          </cc:Agent>
        </dc:publisher>
        <dc:title></dc:title>
        <dc:date>2013-07-08T06:07:51</dc:date>
        <dc:description>Two Stacked Mah Jong Tiles</dc:description>
        <dc:source>https://openclipart.org/detail/180074/mah-jong-by-spyresca-180074</dc:source>
        <dc:creator>
          <cc:Agent>
            <dc:title>spyresca</dc:title>
          </cc:Agent>
        </dc:creator>
        <dc:subject>
          <rdf:Bag>
            <rdf:li>Mah Jong</rdf:li>
            <rdf:li>tile</rdf:li>
            <rdf:li>tiles</rdf:li>
          </rdf:Bag>
        </dc:subject>
      </cc:Work>
      <cc:License
         rdf:about="http://creativecommons.org/publicdomain/zero/1.0/">
        <cc:permits
           rdf:resource="http://creativecommons.org/ns#Reproduction" />
        <cc:permits
           rdf:resource="http://creativecommons.org/ns#Distribution" />
        <cc:permits
           rdf:resource="http://creativecommons.org/ns#DerivativeWorks" />
      </cc:License>
    </rdf:RDF>
  </metadata>
</svg>
