<svg xmlns="http://www.w3.org/2000/svg" viewBox="0 0 520 180" role="img" aria-label="麻雀の点数棒">
  <defs>
    <linearGradient id="ivory" x1="0" y1="0" x2="0" y2="1">
      <stop offset="0" stop-color="#fffdf4"/>
      <stop offset="0.55" stop-color="#f6edd5"/>
      <stop offset="1" stop-color="#d8c49b"/>
    </linearGradient>
    <linearGradient id="green" x1="0" y1="0" x2="1" y2="0">
      <stop offset="0" stop-color="#125c42"/>
      <stop offset="0.5" stop-color="#32d38b"/>
      <stop offset="1" stop-color="#0d513a"/>
    </linearGradient>
    <filter id="shadow" x="-20%" y="-40%" width="140%" height="200%">
      <feDropShadow dx="0" dy="8" stdDeviation="6" flood-color="#00150e" flood-opacity="0.48"/>
    </filter>
  </defs>
  <rect width="520" height="180" rx="32" fill="#092b22"/>
  <g filter="url(#shadow)" transform="translate(36 28) rotate(-4 230 60)">
    <rect x="0" y="0" width="448" height="32" rx="16" fill="url(#ivory)" stroke="#8b7a55" stroke-width="2"/>
    <circle cx="190" cy="16" r="7" fill="#c92a3d"/>
    <circle cx="224" cy="16" r="7" fill="#c92a3d"/>
    <circle cx="258" cy="16" r="7" fill="#c92a3d"/>
    <rect x="24" y="12" width="112" height="8" rx="4" fill="#203547" opacity=".2"/>
    <rect x="312" y="12" width="112" height="8" rx="4" fill="#203547" opacity=".2"/>
  </g>
  <g filter="url(#shadow)" transform="translate(42 73) rotate(2 220 20)">
    <rect x="0" y="0" width="430" height="30" rx="15" fill="url(#ivory)" stroke="#8b7a55" stroke-width="2"/>
    <rect x="166" y="7" width="98" height="16" rx="8" fill="url(#green)"/>
    <circle cx="190" cy="15" r="4" fill="#f8fff7"/>
    <circle cx="216" cy="15" r="4" fill="#f8fff7"/>
    <circle cx="242" cy="15" r="4" fill="#f8fff7"/>
  </g>
  <g filter="url(#shadow)" transform="translate(52 113) rotate(-1 210 20)">
    <rect x="0" y="0" width="404" height="29" rx="14.5" fill="url(#ivory)" stroke="#8b7a55" stroke-width="2"/>
    <circle cx="176" cy="14.5" r="5" fill="#1d4ed8"/>
    <circle cx="202" cy="14.5" r="5" fill="#1d4ed8"/>
    <circle cx="228" cy="14.5" r="5" fill="#1d4ed8"/>
    <circle cx="254" cy="14.5" r="5" fill="#1d4ed8"/>
  </g>
  <path d="M28 24 C130 0 356 0 494 44" fill="none" stroke="rgba(255,255,255,.25)" stroke-width="4"/>
</svg>
