<svg xmlns="http://www.w3.org/2000/svg" viewBox="0 0 200 280">
<defs>
  <radialGradient id="g" cx="50%" cy="38%" r="52%">
    <stop offset="0%" stop-color="#eab308" stop-opacity="0.35"/>
    <stop offset="100%" stop-color="#eab308" stop-opacity="0"/>
  </radialGradient>
</defs>
<rect width="200" height="280" fill="#0a0a12"/>
<ellipse cx="100" cy="108" rx="90" ry="105" fill="url(#g)"/>

<!-- Body: bright warm jacket -->
<path d="M38,280 Q44,234 68,220 Q83,212 100,210 Q117,212 132,220 Q156,234 162,280 Z" fill="#7c3a00"/>
<!-- Jacket lapels (open, warm orange) -->
<path d="M68,220 Q66,205 73,194 Q80,184 90,182 L92,210 Q81,215 68,220 Z" fill="#c2520a"/>
<path d="M132,220 Q134,205 127,194 Q120,184 110,182 L108,210 Q119,215 132,220 Z" fill="#c2520a"/>
<!-- Inner bright shirt -->
<path d="M92,210 Q90,225 92,260 L108,260 Q110,225 108,210 Q100,218 92,210 Z" fill="#fef08a"/>
<!-- Star pin on jacket -->
<path d="M78,208 L80,202 L82,208 L88,208 L83,212 L85,218 L80,214 L75,218 L77,212 L72,208 Z" fill="#eab308"/>

<!-- Neck -->
<rect x="88" y="188" width="24" height="26" rx="7" fill="#FDDCB5"/>

<!-- Hair back: blonde short/energetic -->
<path d="M58,152 Q54,88 100,72 Q146,88 142,152 Q136,100 100,95 Q64,100 58,152 Z" fill="#c9920a"/>
<ellipse cx="59" cy="130" rx="10" ry="20" fill="#c9920a"/>
<ellipse cx="141" cy="130" rx="10" ry="20" fill="#c9920a"/>
<!-- Energetic side bits -->
<path d="M58,152 Q50,160 48,175" stroke="#c9920a" stroke-width="8" fill="none" stroke-linecap="round"/>
<path d="M142,152 Q150,160 152,175" stroke="#c9920a" stroke-width="8" fill="none" stroke-linecap="round"/>

<!-- Ears -->
<ellipse cx="58" cy="150" rx="8" ry="11" fill="#FDDCB5"/>
<ellipse cx="142" cy="150" rx="8" ry="11" fill="#FDDCB5"/>
<ellipse cx="58" cy="150" rx="4" ry="7" fill="#e8a87c" opacity="0.55"/>
<ellipse cx="142" cy="150" rx="4" ry="7" fill="#e8a87c" opacity="0.55"/>

<!-- Face -->
<ellipse cx="100" cy="150" rx="42" ry="50" fill="#FDDCB5"/>

<!-- Cheek blush (happy) -->
<ellipse cx="72" cy="162" rx="10" ry="7" fill="#f9a8a8" opacity="0.45"/>
<ellipse cx="128" cy="162" rx="10" ry="7" fill="#f9a8a8" opacity="0.45"/>

<!-- Spiky/energetic bangs -->
<path d="M60,118 Q64,90 100,80 Q136,90 140,118 Q130,96 114,93 L106,106 Q100,98 94,106 L86,93 Q70,96 60,118 Z" fill="#c9920a"/>
<path d="M58,152 Q57,130 60,118 L67,124 Q62,140 61,152 Z" fill="#c9920a"/>
<path d="M142,152 Q143,130 140,118 L133,124 Q138,140 139,152 Z" fill="#c9920a"/>
<!-- Spiky top strands -->
<path d="M88,86 Q86,70 92,66" stroke="#c9920a" stroke-width="5" fill="none" stroke-linecap="round"/>
<path d="M100,82 Q100,64 106,60" stroke="#daa510" stroke-width="5" fill="none" stroke-linecap="round"/>
<path d="M112,86 Q114,70 108,66" stroke="#c9920a" stroke-width="5" fill="none" stroke-linecap="round"/>

<!-- Eyes: golden, big happy eyes -->
<ellipse cx="80" cy="143" rx="13" ry="11" fill="#fffce8"/>
<ellipse cx="80" cy="144" rx="8" ry="8" fill="#d97706"/>
<ellipse cx="80" cy="144" rx="4.5" ry="4.5" fill="#0d0d0d"/>
<ellipse cx="83.5" cy="140.5" rx="3" ry="2.5" fill="white" opacity="0.9"/>
<ellipse cx="120" cy="143" rx="13" ry="11" fill="#fffce8"/>
<ellipse cx="120" cy="144" rx="8" ry="8" fill="#d97706"/>
<ellipse cx="120" cy="144" rx="4.5" ry="4.5" fill="#0d0d0d"/>
<ellipse cx="123.5" cy="140.5" rx="3" ry="2.5" fill="white" opacity="0.9"/>
<!-- Eyelash curves (happy squint) -->
<path d="M68,135 Q80,130 92,135" stroke="#7c5000" stroke-width="2" fill="none" stroke-linecap="round"/>
<path d="M108,135 Q120,130 132,135" stroke="#7c5000" stroke-width="2" fill="none" stroke-linecap="round"/>

<!-- Eyebrows: raised happy -->
<path d="M68,128 Q79,122 91,126" stroke="#7c4e00" stroke-width="2.8" fill="none" stroke-linecap="round"/>
<path d="M109,126 Q121,122 132,128" stroke="#7c4e00" stroke-width="2.8" fill="none" stroke-linecap="round"/>

<!-- Nose -->
<path d="M97,163 Q100,168 103,163" stroke="#c47850" stroke-width="1.5" fill="none" stroke-linecap="round"/>

<!-- Mouth: big happy smile with teeth -->
<path d="M84,172 Q100,185 116,172" stroke="#c06050" stroke-width="2.5" fill="none" stroke-linecap="round"/>
<path d="M88,174 Q100,182 112,174 Q100,180 88,174 Z" fill="#f5d0c8" opacity="0.6"/>

<!-- Trophy -->
<path d="M152,238 Q148,224 154,218 Q160,212 166,218 Q172,224 168,238 Z" fill="#eab308"/>
<rect x="154" y="238" width="14" height="6" rx="2" fill="#c9920a"/>
<rect x="150" y="244" width="22" height="5" rx="2" fill="#eab308"/>
<!-- Trophy handles -->
<path d="M154,222 Q148,224 148,230 Q148,234 152,234" stroke="#c9920a" stroke-width="2.5" fill="none"/>
<path d="M168,222 Q174,224 174,230 Q174,234 170,234" stroke="#c9920a" stroke-width="2.5" fill="none"/>
<!-- Trophy star -->
<path d="M160,222 L161,218 L162,222 L166,222 L163,225 L164,229 L160,227 L156,229 L157,225 L154,222 Z" fill="#fff8c0" opacity="0.9"/>
</svg>
