<svg xmlns="http://www.w3.org/2000/svg" viewBox="0 0 200 280">
<defs>
  <radialGradient id="g" cx="50%" cy="38%" r="52%">
    <stop offset="0%" stop-color="#f97316" stop-opacity="0.3"/>
    <stop offset="100%" stop-color="#f97316" stop-opacity="0"/>
  </radialGradient>
</defs>
<rect width="200" height="280" fill="#0a0a12"/>
<ellipse cx="100" cy="108" rx="90" ry="105" fill="url(#g)"/>

<!-- Body: work overalls (denim look) -->
<path d="M38,280 Q44,234 68,220 Q83,212 100,210 Q117,212 132,220 Q156,234 162,280 Z" fill="#1e3048"/>
<!-- Overall bib -->
<path d="M84,212 Q82,240 84,280 L116,280 Q118,240 116,212 Q108,220 100,220 Q92,220 84,212 Z" fill="#263e5c"/>
<!-- Overall straps -->
<path d="M84,212 Q80,202 82,192 Q84,186 92,184 L94,210 Z" fill="#263e5c"/>
<path d="M116,212 Q120,202 118,192 Q116,186 108,184 L106,210 Z" fill="#263e5c"/>
<!-- Overalls pocket -->
<rect x="88" y="240" width="24" height="18" rx="3" fill="#1e3048" stroke="#4a6a8a" stroke-width="1.2"/>

<!-- Neck -->
<rect x="88" y="186" width="24" height="28" rx="7" fill="#FDDCB5"/>

<!-- Twin tails: orange -->
<!-- Left tail -->
<path d="M55,148 Q40,160 36,185 Q35,200 42,210 Q48,218 52,210 Q48,195 50,175 Q54,160 60,152 Z" fill="#c2410c"/>
<ellipse cx="58" cy="148" rx="12" ry="8" fill="#c2410c"/>
<!-- Right tail -->
<path d="M145,148 Q160,160 164,185 Q165,200 158,210 Q152,218 148,210 Q152,195 150,175 Q146,160 140,152 Z" fill="#c2410c"/>
<ellipse cx="142" cy="148" rx="12" ry="8" fill="#c2410c"/>
<!-- Hair ties -->
<ellipse cx="56" cy="148" rx="8" ry="6" fill="#f97316" opacity="0.9"/>
<ellipse cx="144" cy="148" rx="8" ry="6" fill="#f97316" opacity="0.9"/>

<!-- Hair back -->
<path d="M58,152 Q54,88 100,74 Q146,88 142,152 Q136,102 100,97 Q64,102 58,152 Z" fill="#c2410c"/>
<ellipse cx="59" cy="130" rx="9" ry="18" fill="#c2410c"/>
<ellipse cx="141" cy="130" rx="9" ry="18" fill="#c2410c"/>

<!-- Ears -->
<ellipse cx="58" cy="150" rx="8" ry="11" fill="#FDDCB5"/>
<ellipse cx="142" cy="150" rx="8" ry="11" fill="#FDDCB5"/>
<ellipse cx="58" cy="150" rx="4" ry="7" fill="#e8a87c" opacity="0.55"/>
<ellipse cx="142" cy="150" rx="4" ry="7" fill="#e8a87c" opacity="0.55"/>

<!-- Face -->
<ellipse cx="100" cy="150" rx="42" ry="50" fill="#FDDCB5"/>

<!-- Bangs (with center part) -->
<path d="M62,115 Q68,90 100,83 Q132,90 138,115 Q126,100 100,98 Q74,100 62,115 Z" fill="#c2410c"/>
<path d="M58,152 Q58,128 62,115 L70,122 Q63,140 62,152 Z" fill="#c2410c"/>
<path d="M142,152 Q142,128 138,115 L130,122 Q137,140 138,152 Z" fill="#c2410c"/>

<!-- Small smudge on cheek -->
<ellipse cx="66" cy="162" rx="6" ry="4" fill="#333" opacity="0.35" transform="rotate(-15 66 162)"/>

<!-- Eyes: orange, energetic -->
<ellipse cx="80" cy="145" rx="12" ry="10" fill="#fff8f0"/>
<ellipse cx="80" cy="146" rx="7.5" ry="7.5" fill="#ea580c"/>
<ellipse cx="80" cy="146" rx="4.2" ry="4.2" fill="#0d0d0d"/>
<ellipse cx="83" cy="142.5" rx="2.5" ry="2" fill="white" opacity="0.9"/>
<ellipse cx="120" cy="145" rx="12" ry="10" fill="#fff8f0"/>
<ellipse cx="120" cy="146" rx="7.5" ry="7.5" fill="#ea580c"/>
<ellipse cx="120" cy="146" rx="4.2" ry="4.2" fill="#0d0d0d"/>
<ellipse cx="123" cy="142.5" rx="2.5" ry="2" fill="white" opacity="0.9"/>

<!-- Eyebrows: energetic -->
<path d="M68,131 Q79,125 91,128" stroke="#7c2d12" stroke-width="2.8" fill="none" stroke-linecap="round"/>
<path d="M109,128 Q121,125 132,131" stroke="#7c2d12" stroke-width="2.8" fill="none" stroke-linecap="round"/>

<!-- Nose -->
<path d="M97,163 Q100,168 103,163" stroke="#c47850" stroke-width="1.5" fill="none" stroke-linecap="round"/>

<!-- Mouth: determined grin -->
<path d="M87,172 Q100,182 113,172" stroke="#c06050" stroke-width="2.2" fill="none" stroke-linecap="round"/>

<!-- Wrench tool -->
<rect x="142" y="228" width="22" height="8" rx="4" fill="#6a7080" transform="rotate(45 153 232)"/>
<circle cx="143" cy="244" r="7" fill="none" stroke="#6a7080" stroke-width="4"/>
<circle cx="160" cy="218" r="7" fill="none" stroke="#6a7080" stroke-width="4"/>
</svg>
