<svg xmlns="http://www.w3.org/2000/svg" viewBox="0 0 200 280">
<defs>
  <radialGradient id="g" cx="50%" cy="38%" r="52%">
    <stop offset="0%" stop-color="#f43f5e" stop-opacity="0.3"/>
    <stop offset="100%" stop-color="#f43f5e" stop-opacity="0"/>
  </radialGradient>
</defs>

<ellipse cx="100" cy="108" rx="90" ry="105" fill="url(#g)"/>

<!-- Body: business jacket -->
<path d="M38,280 Q44,234 68,220 Q83,212 100,210 Q117,212 132,220 Q156,234 162,280 Z" fill="#2d1f3d"/>
<!-- Jacket lapels -->
<path d="M68,220 Q66,205 73,194 Q80,184 90,182 L92,210 Q81,215 68,220 Z" fill="#3d2a52"/>
<path d="M132,220 Q134,205 127,194 Q120,184 110,182 L108,210 Q119,215 132,220 Z" fill="#3d2a52"/>
<!-- Shirt (rose accent) -->
<path d="M92,210 Q88,225 90,260 L110,260 Q112,225 108,210 Q100,218 92,210 Z" fill="#fce7f3"/>

<!-- Megaphone (right hand) -->
<path d="M128,242 L162,224 L167,252 L133,266 Z" fill="#f43f5e" opacity="0.9"/>
<rect x="122" y="250" width="12" height="16" rx="3" fill="#be185d"/>
<!-- Sound waves -->
<path d="M170,226 Q178,240 170,254" stroke="#f43f5e" stroke-width="2.5" fill="none" stroke-linecap="round"/>
<path d="M174,218 Q186,240 174,262" stroke="#f43f5e" stroke-width="2" fill="none" stroke-linecap="round" opacity="0.55"/>

<!-- Neck -->
<rect x="88" y="188" width="24" height="26" rx="7" fill="#FDDCB5"/>

<!-- Hair: short, dark, styled -->
<path d="M58,152 Q55,90 100,72 Q145,90 142,152 Q134,118 100,114 Q66,118 58,152 Z" fill="#1a0a00"/>
<path d="M58,152 Q55,134 57,110" stroke="#2d1500" stroke-width="7" fill="none" stroke-linecap="round"/>
<path d="M142,152 Q145,134 143,110" stroke="#2d1500" stroke-width="7" fill="none" stroke-linecap="round"/>

<!-- Ears -->
<ellipse cx="58" cy="150" rx="8" ry="11" fill="#FDDCB5"/>
<ellipse cx="142" cy="150" rx="8" ry="11" fill="#FDDCB5"/>
<ellipse cx="58" cy="150" rx="4" ry="7" fill="#e8a87c" opacity="0.55"/>
<ellipse cx="142" cy="150" rx="4" ry="7" fill="#e8a87c" opacity="0.55"/>
<!-- Earring (rose) -->
<circle cx="54" cy="157" r="3.5" fill="#f43f5e"/>

<!-- Face -->
<ellipse cx="100" cy="150" rx="42" ry="50" fill="#FDDCB5"/>

<!-- Eyes: confident, dark -->
<ellipse cx="80" cy="144" rx="11.5" ry="9.5" fill="#faf4e8"/>
<ellipse cx="80" cy="145" rx="7" ry="7" fill="#1e1030"/>
<ellipse cx="80" cy="145" rx="3.8" ry="3.8" fill="#0d0d0d"/>
<ellipse cx="83" cy="141.5" rx="2.5" ry="2" fill="white" opacity="0.9"/>
<ellipse cx="120" cy="144" rx="11.5" ry="9.5" fill="#faf4e8"/>
<ellipse cx="120" cy="145" rx="7" ry="7" fill="#1e1030"/>
<ellipse cx="120" cy="145" rx="3.8" ry="3.8" fill="#0d0d0d"/>
<ellipse cx="123" cy="141.5" rx="2.5" ry="2" fill="white" opacity="0.9"/>

<!-- Eyebrows: strong, defined -->
<path d="M69,130 Q80,125 91,129" stroke="#1a0a00" stroke-width="3" fill="none" stroke-linecap="round"/>
<path d="M109,129 Q120,125 131,130" stroke="#1a0a00" stroke-width="3" fill="none" stroke-linecap="round"/>

<!-- Nose -->
<path d="M97,163 Q100,168 103,163" stroke="#c47850" stroke-width="1.5" fill="none" stroke-linecap="round"/>

<!-- Mouth: confident smile -->
<path d="M87,175 Q100,184 113,175" stroke="#b06050" stroke-width="2.2" fill="none" stroke-linecap="round"/>
</svg>
