<svg xmlns="http://www.w3.org/2000/svg" viewBox="0 0 200 280">
<defs>
  <radialGradient id="g" cx="50%" cy="38%" r="52%">
    <stop offset="0%" stop-color="#06b6d4" stop-opacity="0.35"/>
    <stop offset="100%" stop-color="#06b6d4" stop-opacity="0"/>
  </radialGradient>
</defs>

<ellipse cx="100" cy="108" rx="90" ry="105" fill="url(#g)"/>

<!-- Floating music notes -->
<text x="148" y="80" font-size="14" fill="#06b6d4" opacity="0.7">♪</text>
<text x="40" y="70" font-size="10" fill="#a855f7" opacity="0.6">♫</text>
<text x="155" y="120" font-size="9" fill="#06b6d4" opacity="0.5">♩</text>

<!-- Body: casual top - teal/cyan -->
<path d="M36,280 Q42,234 66,220 Q82,212 100,210 Q118,212 134,220 Q158,234 164,280 Z" fill="#0e3a4a"/>
<path d="M66,220 Q63,205 70,194 Q78,184 90,182 L90,210 Q78,215 66,220 Z" fill="#0a2a38"/>
<path d="M134,220 Q137,205 130,194 Q122,184 110,182 L110,210 Q122,215 134,220 Z" fill="#0a2a38"/>
<!-- Collar + shirt -->
<path d="M90,210 L94,226 L100,218 L106,226 L110,210 Q100,217 90,210 Z" fill="#e8f8ff"/>
<!-- Small music note on chest -->
<text x="93" y="244" font-size="12" fill="#06b6d4" opacity="0.85">♪</text>

<!-- Neck -->
<rect x="88" y="186" width="24" height="28" rx="7" fill="#f5d5b8"/>

<!-- Hair back - teal/cyan mid-length -->
<path d="M56,158 Q52,88 100,74 Q148,88 144,158 Q138,102 100,97 Q62,102 56,158 Z" fill="#0891b2"/>
<ellipse cx="57" cy="140" rx="11" ry="24" fill="#0891b2"/>
<ellipse cx="143" cy="140" rx="11" ry="24" fill="#0891b2"/>
<!-- Side hair strands -->
<path d="M57,160 Q52,180 54,200" stroke="#0891b2" stroke-width="8" fill="none" stroke-linecap="round"/>
<path d="M143,160 Q148,180 146,200" stroke="#0891b2" stroke-width="8" fill="none" stroke-linecap="round"/>

<!-- Ears -->
<ellipse cx="57" cy="150" rx="8" ry="11" fill="#f5d5b8"/>
<ellipse cx="143" cy="150" rx="8" ry="11" fill="#f5d5b8"/>

<!-- Headphones band -->
<path d="M58,126 Q60,90 100,82 Q140,90 142,126" stroke="#1e293b" stroke-width="7" fill="none" stroke-linecap="round"/>
<!-- Ear cups -->
<ellipse cx="57" cy="134" rx="12" ry="14" fill="#1e293b"/>
<ellipse cx="57" cy="134" rx="8" ry="10" fill="#06b6d4" opacity="0.8"/>
<ellipse cx="143" cy="134" rx="12" ry="14" fill="#1e293b"/>
<ellipse cx="143" cy="134" rx="8" ry="10" fill="#06b6d4" opacity="0.8"/>

<!-- Face -->
<ellipse cx="100" cy="152" rx="42" ry="48" fill="#f5d5b8"/>

<!-- Top hair / bangs - swept sideways -->
<path d="M62,110 Q72,88 100,84 Q124,86 136,100 L130,108 Q116,94 100,92 Q78,94 68,112 Z" fill="#0891b2"/>
<path d="M56,158 Q55,126 62,110 L68,118 Q61,138 58,158 Z" fill="#0891b2"/>
<path d="M144,158 Q145,124 136,110 L130,118 Q137,138 142,158 Z" fill="#0891b2"/>

<!-- Eyes - bright cyan/teal -->
<ellipse cx="80" cy="148" rx="11" ry="9" fill="#f0fffe"/>
<ellipse cx="80" cy="149" rx="7" ry="7" fill="#0891b2"/>
<ellipse cx="80" cy="149" rx="3.8" ry="3.8" fill="#0d0d0d"/>
<ellipse cx="82" cy="146" rx="2.2" ry="1.8" fill="white" opacity="0.9"/>
<ellipse cx="120" cy="148" rx="11" ry="9" fill="#f0fffe"/>
<ellipse cx="120" cy="149" rx="7" ry="7" fill="#0891b2"/>
<ellipse cx="120" cy="149" rx="3.8" ry="3.8" fill="#0d0d0d"/>
<ellipse cx="122" cy="146" rx="2.2" ry="1.8" fill="white" opacity="0.9"/>

<!-- Eyebrows - gentle arched -->
<path d="M70,134 Q80,129 90,132" stroke="#0891b2" stroke-width="2.2" fill="none" stroke-linecap="round"/>
<path d="M110,132 Q120,129 130,134" stroke="#0891b2" stroke-width="2.2" fill="none" stroke-linecap="round"/>

<!-- Nose -->
<path d="M97,162 Q100,167 103,162" stroke="#c47850" stroke-width="1.5" fill="none" stroke-linecap="round"/>

<!-- Mouth - cheerful smile -->
<path d="M87,174 Q100,183 113,174" stroke="#b06050" stroke-width="2.2" fill="none" stroke-linecap="round"/>

<!-- Cheek blush -->
<ellipse cx="72" cy="164" rx="10" ry="6" fill="#f87171" opacity="0.2"/>
<ellipse cx="128" cy="164" rx="10" ry="6" fill="#f87171" opacity="0.2"/>
</svg>
