<svg xmlns="http://www.w3.org/2000/svg" viewBox="0 0 200 280">
<defs>
  <radialGradient id="g" cx="50%" cy="38%" r="52%">
    <stop offset="0%" stop-color="#3b82f6" stop-opacity="0.3"/>
    <stop offset="100%" stop-color="#3b82f6" stop-opacity="0"/>
  </radialGradient>
</defs>
<rect width="200" height="280" fill="#0a0a12"/>
<ellipse cx="100" cy="108" rx="90" ry="105" fill="url(#g)"/>

<!-- Body: navy suit -->
<path d="M38,280 Q44,234 68,220 Q83,212 100,210 Q117,212 132,220 Q156,234 162,280 Z" fill="#1e2a4a"/>
<path d="M90,210 L94,228 L100,220 L106,228 L110,210 Q100,217 90,210 Z" fill="#e8eaf0"/>
<rect x="98" y="220" width="4" height="18" fill="#2563eb"/>

<!-- Neck -->
<rect x="88" y="188" width="24" height="26" rx="7" fill="#FDDCB5"/>

<!-- Hair back: short black cap -->
<path d="M56,155 Q52,86 100,72 Q148,86 144,155 Q138,100 100,95 Q62,100 56,155 Z" fill="#16163a"/>
<ellipse cx="58" cy="138" rx="10" ry="22" fill="#16163a"/>
<ellipse cx="142" cy="138" rx="10" ry="22" fill="#16163a"/>

<!-- Ears -->
<ellipse cx="58" cy="150" rx="8" ry="11" fill="#FDDCB5"/>
<ellipse cx="142" cy="150" rx="8" ry="11" fill="#FDDCB5"/>
<ellipse cx="58" cy="150" rx="4" ry="7" fill="#e8a87c" opacity="0.55"/>
<ellipse cx="142" cy="150" rx="4" ry="7" fill="#e8a87c" opacity="0.55"/>

<!-- Face -->
<ellipse cx="100" cy="150" rx="42" ry="50" fill="#FDDCB5"/>

<!-- Bangs (left parted) -->
<path d="M62,108 Q70,88 90,86 Q105,86 118,93 L112,105 Q98,94 85,97 Q72,102 65,118 Z" fill="#16163a"/>
<path d="M56,155 Q55,118 62,108 L65,118 Q60,135 58,155 Z" fill="#16163a"/>
<path d="M144,135 Q143,108 133,96 L122,98 L118,93 Q132,98 140,120 Q142,135 142,150 Z" fill="#16163a"/>

<!-- Glasses -->
<rect x="66" y="135" width="26" height="18" rx="5" fill="none" stroke="#8ab4d4" stroke-width="1.8"/>
<rect x="108" y="135" width="26" height="18" rx="5" fill="none" stroke="#8ab4d4" stroke-width="1.8"/>
<line x1="92" y1="144" x2="108" y2="144" stroke="#8ab4d4" stroke-width="1.6"/>
<line x1="66" y1="144" x2="60" y2="148" stroke="#8ab4d4" stroke-width="1.5"/>
<line x1="134" y1="144" x2="140" y2="148" stroke="#8ab4d4" stroke-width="1.5"/>

<!-- Eyes -->
<ellipse cx="79" cy="144" rx="10" ry="8.5" fill="#f0efe8"/>
<ellipse cx="79" cy="145" rx="6.5" ry="6.5" fill="#5a3820"/>
<ellipse cx="79" cy="145" rx="3.8" ry="3.8" fill="#0d0d0d"/>
<ellipse cx="81.5" cy="142" rx="2.2" ry="1.8" fill="white" opacity="0.88"/>
<ellipse cx="121" cy="144" rx="10" ry="8.5" fill="#f0efe8"/>
<ellipse cx="121" cy="145" rx="6.5" ry="6.5" fill="#5a3820"/>
<ellipse cx="121" cy="145" rx="3.8" ry="3.8" fill="#0d0d0d"/>
<ellipse cx="123.5" cy="142" rx="2.2" ry="1.8" fill="white" opacity="0.88"/>

<!-- Eyebrows -->
<path d="M69,130 Q79,126 89,129" stroke="#1a0e08" stroke-width="2.5" fill="none" stroke-linecap="round"/>
<path d="M111,129 Q121,126 131,130" stroke="#1a0e08" stroke-width="2.5" fill="none" stroke-linecap="round"/>

<!-- Nose -->
<path d="M97,162 Q100,167 103,162" stroke="#c47850" stroke-width="1.5" fill="none" stroke-linecap="round"/>

<!-- Mouth: calm slight smile -->
<path d="M90,174 Q100,180 110,174" stroke="#b06050" stroke-width="2" fill="none" stroke-linecap="round"/>

<!-- Notebook in hand (partial) -->
<rect x="142" y="230" width="22" height="28" rx="2" fill="#2a3a5a" stroke="#4466aa" stroke-width="1.2"/>
<line x1="147" y1="237" x2="159" y2="237" stroke="#6688cc" stroke-width="1"/>
<line x1="147" y1="242" x2="159" y2="242" stroke="#6688cc" stroke-width="1"/>
<line x1="147" y1="247" x2="155" y2="247" stroke="#6688cc" stroke-width="1"/>
</svg>
