<svg xmlns="http://www.w3.org/2000/svg" viewBox="0 0 200 280">
<defs>
  <radialGradient id="g" cx="50%" cy="38%" r="52%">
    <stop offset="0%" stop-color="#f59e0b" stop-opacity="0.3"/>
    <stop offset="100%" stop-color="#f59e0b" stop-opacity="0"/>
  </radialGradient>
</defs>
<rect width="200" height="280" fill="#0a0a12"/>
<ellipse cx="100" cy="108" rx="90" ry="105" fill="url(#g)"/>

<!-- Body: casual blazer -->
<path d="M38,280 Q44,234 68,220 Q83,212 100,210 Q117,212 132,220 Q156,234 162,280 Z" fill="#1e2a40"/>
<!-- Blazer lapels (casual open) -->
<path d="M68,220 Q66,205 73,194 Q80,184 90,182 L92,210 Q81,215 68,220 Z" fill="#253558"/>
<path d="M132,220 Q134,205 127,194 Q120,184 110,182 L108,210 Q119,215 132,220 Z" fill="#253558"/>
<!-- Shirt under blazer -->
<path d="M92,210 Q88,225 90,260 L110,260 Q112,225 108,210 Q100,218 92,210 Z" fill="#e8e4d0"/>

<!-- Book stack -->
<rect x="36" y="238" width="30" height="8" rx="2" fill="#2563eb"/>
<rect x="36" y="247" width="30" height="8" rx="2" fill="#f59e0b"/>
<rect x="36" y="256" width="30" height="8" rx="2" fill="#7c3aed"/>
<rect x="36" y="265" width="30" height="8" rx="2" fill="#059669"/>
<!-- Book spines -->
<line x1="56" y1="238" x2="56" y2="246" stroke="#1d4ed8" stroke-width="1"/>
<line x1="56" y1="247" x2="56" y2="255" stroke="#d97706" stroke-width="1"/>

<!-- Neck -->
<rect x="88" y="188" width="24" height="26" rx="7" fill="#FDDCB5"/>

<!-- Hair back: wavy brown, shoulder length -->
<path d="M46,200 Q40,88 100,72 Q160,88 154,200 Q148,155 100,148 Q52,155 46,200 Z" fill="#6b3a1e"/>
<!-- Wave curves at sides -->
<path d="M46,200 Q44,220 50,235 Q56,248 60,240 Q52,218 50,196 Z" fill="#6b3a1e"/>
<path d="M154,200 Q156,220 150,235 Q144,248 140,240 Q148,218 150,196 Z" fill="#6b3a1e"/>
<!-- Wave texture lines -->
<path d="M52,155 Q46,165 48,175 Q50,183 46,190" stroke="#8b4e28" stroke-width="3" fill="none" stroke-linecap="round"/>
<path d="M148,155 Q154,165 152,175 Q150,183 154,190" stroke="#8b4e28" stroke-width="3" fill="none" stroke-linecap="round"/>

<!-- Ears -->
<ellipse cx="58" cy="150" rx="8" ry="11" fill="#FDDCB5"/>
<ellipse cx="142" cy="150" rx="8" ry="11" fill="#FDDCB5"/>
<ellipse cx="58" cy="150" rx="4" ry="7" fill="#e8a87c" opacity="0.55"/>
<ellipse cx="142" cy="150" rx="4" ry="7" fill="#e8a87c" opacity="0.55"/>
<!-- Small earring -->
<circle cx="54" cy="157" r="3.5" fill="#f59e0b"/>

<!-- Face -->
<ellipse cx="100" cy="150" rx="42" ry="50" fill="#FDDCB5"/>

<!-- Wavy bangs (asymmetric, natural) -->
<path d="M62,118 Q65,95 100,86 Q130,93 138,115" stroke="#6b3a1e" stroke-width="12" fill="none" stroke-linecap="round"/>
<path d="M60,152 Q58,130 62,118 L70,124 Q63,140 62,152 Z" fill="#6b3a1e"/>
<path d="M140,152 Q142,128 138,115 L130,122 Q138,140 138,152 Z" fill="#6b3a1e"/>
<!-- A few stray wisps -->
<path d="M68,92 Q65,82 70,78" stroke="#6b3a1e" stroke-width="4" fill="none" stroke-linecap="round"/>
<path d="M100,86 Q105,74 112,72" stroke="#6b3a1e" stroke-width="4" fill="none" stroke-linecap="round"/>

<!-- Eyes: amber, warm and curious -->
<ellipse cx="80" cy="144" rx="11.5" ry="9.5" fill="#faf4e8"/>
<ellipse cx="80" cy="145" rx="7" ry="7" fill="#c77a00"/>
<ellipse cx="80" cy="145" rx="3.8" ry="3.8" fill="#0d0d0d"/>
<ellipse cx="83" cy="141.5" rx="2.5" ry="2" fill="white" opacity="0.9"/>
<ellipse cx="120" cy="144" rx="11.5" ry="9.5" fill="#faf4e8"/>
<ellipse cx="120" cy="145" rx="7" ry="7" fill="#c77a00"/>
<ellipse cx="120" cy="145" rx="3.8" ry="3.8" fill="#0d0d0d"/>
<ellipse cx="123" cy="141.5" rx="2.5" ry="2" fill="white" opacity="0.9"/>

<!-- Eyebrows: arched, inquisitive -->
<path d="M69,130 Q80,125 90,129" stroke="#3a1a08" stroke-width="2.5" fill="none" stroke-linecap="round"/>
<path d="M110,129 Q120,125 131,130" stroke="#3a1a08" stroke-width="2.5" fill="none" stroke-linecap="round"/>

<!-- Nose -->
<path d="M97,163 Q100,168 103,163" stroke="#c47850" stroke-width="1.5" fill="none" stroke-linecap="round"/>

<!-- Mouth: thoughtful, slight smile -->
<path d="M89,174 Q100,180 111,174" stroke="#b06050" stroke-width="2" fill="none" stroke-linecap="round"/>
</svg>
