<svg xmlns="http://www.w3.org/2000/svg" viewBox="0 0 200 280">
<defs>
  <radialGradient id="g" cx="50%" cy="38%" r="52%">
    <stop offset="0%" stop-color="#14b8a6" stop-opacity="0.3"/>
    <stop offset="100%" stop-color="#14b8a6" stop-opacity="0"/>
  </radialGradient>
</defs>

<ellipse cx="100" cy="108" rx="90" ry="105" fill="url(#g)"/>

<!-- Body: neat business suit (dark charcoal) -->
<path d="M38,280 Q44,234 68,220 Q83,212 100,210 Q117,212 132,220 Q156,234 162,280 Z" fill="#1a1e2a"/>
<path d="M68,220 Q66,205 72,194 Q78,184 88,182 L90,208 Q80,213 68,220 Z" fill="#222838"/>
<path d="M132,220 Q134,205 128,194 Q122,184 112,182 L110,208 Q120,213 132,220 Z" fill="#222838"/>
<path d="M90,208 L94,224 L100,217 L106,224 L110,208 Q100,216 90,208 Z" fill="#e0ddd8"/>
<!-- Pen in breast pocket -->
<rect x="110" y="198" width="4" height="18" rx="2" fill="#14b8a6"/>
<ellipse cx="112" cy="198" rx="3" ry="3" fill="#0d9488"/>

<!-- Neck -->
<rect x="88" y="188" width="24" height="26" rx="7" fill="#FDDCB5"/>

<!-- Bun on top of head -->
<ellipse cx="100" cy="75" rx="16" ry="14" fill="#1a1020"/>
<ellipse cx="100" cy="75" rx="12" ry="10" fill="#1a1020"/>
<!-- Bun pin/stick -->
<line x1="88" y1="72" x2="112" y2="78" stroke="#14b8a6" stroke-width="2" stroke-linecap="round"/>

<!-- Hair back: black, neat -->
<path d="M58,152 Q54,90 100,76 Q146,90 142,152 Q136,102 100,98 Q64,102 58,152 Z" fill="#1a1020"/>
<ellipse cx="60" cy="132" rx="10" ry="20" fill="#1a1020"/>
<ellipse cx="140" cy="132" rx="10" ry="20" fill="#1a1020"/>
<!-- Smooth sides (no flyaways) -->
<path d="M58,152 Q56,125 59,110 L65,115 Q62,135 60,152 Z" fill="#1a1020"/>
<path d="M142,152 Q144,125 141,110 L135,115 Q138,135 140,152 Z" fill="#1a1020"/>

<!-- Ears -->
<ellipse cx="58" cy="150" rx="8" ry="11" fill="#FDDCB5"/>
<ellipse cx="142" cy="150" rx="8" ry="11" fill="#FDDCB5"/>
<ellipse cx="58" cy="150" rx="4" ry="7" fill="#e8a87c" opacity="0.55"/>
<ellipse cx="142" cy="150" rx="4" ry="7" fill="#e8a87c" opacity="0.55"/>
<!-- Teal stud earrings -->
<circle cx="54" cy="152" r="3.5" fill="#14b8a6"/>
<circle cx="146" cy="152" r="3.5" fill="#14b8a6"/>

<!-- Face -->
<ellipse cx="100" cy="150" rx="42" ry="50" fill="#FDDCB5"/>

<!-- Neat bangs (minimal, swept back feel) -->
<path d="M62,115 Q66,94 100,88 Q134,94 138,115 Q126,102 100,100 Q74,102 62,115 Z" fill="#1a1020"/>
<path d="M58,152 Q57,128 62,115 L68,120 Q62,138 62,152 Z" fill="#1a1020"/>
<path d="M142,152 Q143,128 138,115 L132,120 Q138,138 138,152 Z" fill="#1a1020"/>

<!-- Eyes: teal, precise -->
<ellipse cx="80" cy="144" rx="11.5" ry="9.5" fill="#e8f8f8"/>
<ellipse cx="80" cy="145" rx="7" ry="7" fill="#0d9488"/>
<ellipse cx="80" cy="145" rx="4" ry="4" fill="#0d0d0d"/>
<ellipse cx="83" cy="141.5" rx="2.5" ry="2" fill="white" opacity="0.9"/>
<ellipse cx="120" cy="144" rx="11.5" ry="9.5" fill="#e8f8f8"/>
<ellipse cx="120" cy="145" rx="7" ry="7" fill="#0d9488"/>
<ellipse cx="120" cy="145" rx="4" ry="4" fill="#0d0d0d"/>
<ellipse cx="123" cy="141.5" rx="2.5" ry="2" fill="white" opacity="0.9"/>

<!-- Eyebrows: neat, precise -->
<path d="M70,130 Q80,126 90,129" stroke="#0e0810" stroke-width="2.5" fill="none" stroke-linecap="round"/>
<path d="M110,129 Q120,126 130,130" stroke="#0e0810" stroke-width="2.5" fill="none" stroke-linecap="round"/>

<!-- Nose -->
<path d="M97,163 Q100,168 103,163" stroke="#c47850" stroke-width="1.5" fill="none" stroke-linecap="round"/>

<!-- Mouth: professional, composed -->
<path d="M90,174 Q100,178 110,174" stroke="#906060" stroke-width="2" fill="none" stroke-linecap="round"/>

<!-- Document sheets (partial, fanned) -->
<rect x="38" y="234" width="26" height="34" rx="2" fill="#e8ede8" transform="rotate(-8 51 251)"/>
<rect x="40" y="234" width="26" height="34" rx="2" fill="#f0f4f0" transform="rotate(-2 53 251)"/>
<line x1="45" y1="244" x2="61" y2="244" stroke="#aab0b0" stroke-width="1" transform="rotate(-2 53 251)"/>
<line x1="45" y1="250" x2="61" y2="250" stroke="#aab0b0" stroke-width="1" transform="rotate(-2 53 251)"/>
</svg>
