<svg xmlns="http://www.w3.org/2000/svg" viewBox="0 0 60 80" width="60" height="80">
  <!-- 3D side shadow -->
  <rect x="4" y="4" width="56" height="76" rx="5" ry="5" fill="#5a3a10"/>
  <!-- Main tile face -->
  <rect x="0" y="0" width="56" height="76" rx="5" ry="5" fill="#f5f0e8" stroke="#8b6914" stroke-width="1.5"/>
  <!-- Sheen gradient highlight -->
  <rect x="1" y="1" width="54" height="20" rx="4" ry="4" fill="rgba(255,255,255,0.25)"/>
  <!-- Inner border -->
  <rect x="3" y="3" width="50" height="70" rx="4" ry="4" fill="none" stroke="rgba(255,255,255,0.5)" stroke-width="0.8"/>
  <!-- 4筒 -->
  <circle cx="14" cy="22" r="7.5" fill="#2980b9" stroke="#1a5276" stroke-width="1.2"/>
  <circle cx="13" cy="21" r="4.1" fill="none" stroke="rgba(255,255,255,0.45)" stroke-width="1.2"/>
  <circle cx="12" cy="20" r="1.9" fill="rgba(255,255,255,0.3)"/>
  <circle cx="42" cy="22" r="7.5" fill="#2980b9" stroke="#1a5276" stroke-width="1.2"/>
  <circle cx="41" cy="21" r="4.1" fill="none" stroke="rgba(255,255,255,0.45)" stroke-width="1.2"/>
  <circle cx="40" cy="20" r="1.9" fill="rgba(255,255,255,0.3)"/>
  <circle cx="14" cy="54" r="7.5" fill="#2980b9" stroke="#1a5276" stroke-width="1.2"/>
  <circle cx="13" cy="53" r="4.1" fill="none" stroke="rgba(255,255,255,0.45)" stroke-width="1.2"/>
  <circle cx="12" cy="52" r="1.9" fill="rgba(255,255,255,0.3)"/>
  <circle cx="42" cy="54" r="7.5" fill="#2980b9" stroke="#1a5276" stroke-width="1.2"/>
  <circle cx="41" cy="53" r="4.1" fill="none" stroke="rgba(255,255,255,0.45)" stroke-width="1.2"/>
  <circle cx="40" cy="52" r="1.9" fill="rgba(255,255,255,0.3)"/>
</svg>