<svg xmlns="http://www.w3.org/2000/svg" viewBox="0 0 60 80" width="60" height="80">
  <!-- 3D side shadow -->
  <rect x="4" y="4" width="56" height="76" rx="5" ry="5" fill="#5a3a10"/>
  <!-- Main tile face -->
  <rect x="0" y="0" width="56" height="76" rx="5" ry="5" fill="#f5f0e8" stroke="#8b6914" stroke-width="1.5"/>
  <!-- Sheen gradient highlight -->
  <rect x="1" y="1" width="54" height="20" rx="4" ry="4" fill="rgba(255,255,255,0.25)"/>
  <!-- Inner border -->
  <rect x="3" y="3" width="50" height="70" rx="4" ry="4" fill="none" stroke="rgba(255,255,255,0.5)" stroke-width="0.8"/>
  <!-- 5索 -->
  <rect x="12" y="10" width="8" height="13" rx="3" ry="3" fill="#27ae60" stroke="#1e8449" stroke-width="1"/>
  <line x1="13" y1="16" x2="19" y2="16" stroke="rgba(255,255,255,0.3)" stroke-width="1"/>
  <rect x="13" y="11" width="6" height="4" rx="2" ry="2" fill="rgba(255,255,255,0.15)"/>
  <rect x="36" y="10" width="8" height="13" rx="3" ry="3" fill="#27ae60" stroke="#1e8449" stroke-width="1"/>
  <line x1="37" y1="16" x2="43" y2="16" stroke="rgba(255,255,255,0.3)" stroke-width="1"/>
  <rect x="37" y="11" width="6" height="4" rx="2" ry="2" fill="rgba(255,255,255,0.15)"/>
  <rect x="24" y="32" width="8" height="13" rx="3" ry="3" fill="#27ae60" stroke="#1e8449" stroke-width="1"/>
  <line x1="25" y1="38" x2="31" y2="38" stroke="rgba(255,255,255,0.3)" stroke-width="1"/>
  <rect x="25" y="33" width="6" height="4" rx="2" ry="2" fill="rgba(255,255,255,0.15)"/>
  <rect x="12" y="54" width="8" height="13" rx="3" ry="3" fill="#27ae60" stroke="#1e8449" stroke-width="1"/>
  <line x1="13" y1="60" x2="19" y2="60" stroke="rgba(255,255,255,0.3)" stroke-width="1"/>
  <rect x="13" y="55" width="6" height="4" rx="2" ry="2" fill="rgba(255,255,255,0.15)"/>
  <rect x="36" y="54" width="8" height="13" rx="3" ry="3" fill="#27ae60" stroke="#1e8449" stroke-width="1"/>
  <line x1="37" y1="60" x2="43" y2="60" stroke="rgba(255,255,255,0.3)" stroke-width="1"/>
  <rect x="37" y="55" width="6" height="4" rx="2" ry="2" fill="rgba(255,255,255,0.15)"/>
</svg>