<svg xmlns="http://www.w3.org/2000/svg" viewBox="0 0 60 80" width="60" height="80">
  <!-- 3D side faces -->
  <rect x="4" y="4" width="56" height="76" rx="4" ry="4" fill="#5a3a10"/>
  <!-- Main tile face -->
  <rect x="0" y="0" width="56" height="76" rx="4" ry="4" fill="#f5f0e8" stroke="#8b6914" stroke-width="1.5"/>
  <!-- Inner border -->
  <rect x="3" y="3" width="50" height="70" rx="3" ry="3" fill="none" stroke="rgba(255,255,255,0.5)" stroke-width="1"/>
  <!-- Content -->
  <circle cx="16" cy="13" r="5" fill="#2980b9" stroke="#1a5276" stroke-width="1"/>
  <circle cx="15" cy="12" r="2" fill="none" stroke="rgba(255,255,255,0.4)" stroke-width="1"/>
  <circle cx="40" cy="13" r="5" fill="#2980b9" stroke="#1a5276" stroke-width="1"/>
  <circle cx="39" cy="12" r="2" fill="none" stroke="rgba(255,255,255,0.4)" stroke-width="1"/>
  <circle cx="16" cy="33" r="5" fill="#2980b9" stroke="#1a5276" stroke-width="1"/>
  <circle cx="15" cy="32" r="2" fill="none" stroke="rgba(255,255,255,0.4)" stroke-width="1"/>
  <circle cx="40" cy="33" r="5" fill="#2980b9" stroke="#1a5276" stroke-width="1"/>
  <circle cx="39" cy="32" r="2" fill="none" stroke="rgba(255,255,255,0.4)" stroke-width="1"/>
  <circle cx="28" cy="53" r="5" fill="#2980b9" stroke="#1a5276" stroke-width="1"/>
  <circle cx="27" cy="52" r="2" fill="none" stroke="rgba(255,255,255,0.4)" stroke-width="1"/>
  <circle cx="16" cy="66" r="5" fill="#2980b9" stroke="#1a5276" stroke-width="1"/>
  <circle cx="15" cy="65" r="2" fill="none" stroke="rgba(255,255,255,0.4)" stroke-width="1"/>
  <circle cx="40" cy="66" r="5" fill="#2980b9" stroke="#1a5276" stroke-width="1"/>
  <circle cx="39" cy="65" r="2" fill="none" stroke="rgba(255,255,255,0.4)" stroke-width="1"/>
  
</svg>