<svg xmlns="http://www.w3.org/2000/svg" viewBox="0 0 60 80" width="60" height="80">
  <!-- 3D side faces -->
  <rect x="4" y="4" width="56" height="76" rx="4" ry="4" fill="#5a3a10"/>
  <!-- Main tile face -->
  <rect x="0" y="0" width="56" height="76" rx="4" ry="4" fill="#f5f0e8" stroke="#8b6914" stroke-width="1.5"/>
  <!-- Inner border -->
  <rect x="3" y="3" width="50" height="70" rx="3" ry="3" fill="none" stroke="rgba(255,255,255,0.5)" stroke-width="1"/>
  <!-- Content -->
  <rect x="12" y="7" width="8" height="10" rx="3" ry="3" fill="#27ae60" stroke="#1e8449" stroke-width="1"/>
  <line x1="14" y1="12" x2="18" y2="12" stroke="rgba(255,255,255,0.3)" stroke-width="1"/>
  <rect x="36" y="7" width="8" height="10" rx="3" ry="3" fill="#27ae60" stroke="#1e8449" stroke-width="1"/>
  <line x1="38" y1="12" x2="42" y2="12" stroke="rgba(255,255,255,0.3)" stroke-width="1"/>
  <rect x="12" y="25" width="8" height="10" rx="3" ry="3" fill="#27ae60" stroke="#1e8449" stroke-width="1"/>
  <line x1="14" y1="30" x2="18" y2="30" stroke="rgba(255,255,255,0.3)" stroke-width="1"/>
  <rect x="36" y="25" width="8" height="10" rx="3" ry="3" fill="#27ae60" stroke="#1e8449" stroke-width="1"/>
  <line x1="38" y1="30" x2="42" y2="30" stroke="rgba(255,255,255,0.3)" stroke-width="1"/>
  <rect x="12" y="43" width="8" height="10" rx="3" ry="3" fill="#27ae60" stroke="#1e8449" stroke-width="1"/>
  <line x1="14" y1="48" x2="18" y2="48" stroke="rgba(255,255,255,0.3)" stroke-width="1"/>
  <rect x="36" y="43" width="8" height="10" rx="3" ry="3" fill="#27ae60" stroke="#1e8449" stroke-width="1"/>
  <line x1="38" y1="48" x2="42" y2="48" stroke="rgba(255,255,255,0.3)" stroke-width="1"/>
  <rect x="12" y="58" width="8" height="10" rx="3" ry="3" fill="#27ae60" stroke="#1e8449" stroke-width="1"/>
  <line x1="14" y1="63" x2="18" y2="63" stroke="rgba(255,255,255,0.3)" stroke-width="1"/>
  <rect x="36" y="58" width="8" height="10" rx="3" ry="3" fill="#27ae60" stroke="#1e8449" stroke-width="1"/>
  <line x1="38" y1="63" x2="42" y2="63" stroke="rgba(255,255,255,0.3)" stroke-width="1"/>
  
</svg>