<svg xmlns="http://www.w3.org/2000/svg" viewBox="0 0 60 80" width="60" height="80">
  <!-- 3D side shadow -->
  <rect x="4" y="4" width="56" height="76" rx="5" ry="5" fill="#5a3a10"/>
  <!-- Main tile face -->
  <rect x="0" y="0" width="56" height="76" rx="5" ry="5" fill="#f5f0e8" stroke="#8b6914" stroke-width="1.5"/>
  <!-- Sheen gradient highlight -->
  <rect x="1" y="1" width="54" height="20" rx="4" ry="4" fill="rgba(255,255,255,0.25)"/>
  <!-- Inner border -->
  <rect x="3" y="3" width="50" height="70" rx="4" ry="4" fill="none" stroke="rgba(255,255,255,0.5)" stroke-width="0.8"/>
  <!-- 9索 -->
  <rect x="11" y="5" width="7" height="11" rx="3" ry="3" fill="#27ae60" stroke="#1e8449" stroke-width="1"/>
  <line x1="12" y1="10" x2="17" y2="10" stroke="rgba(255,255,255,0.3)" stroke-width="1"/>
  <rect x="12" y="6" width="5" height="3" rx="2" ry="2" fill="rgba(255,255,255,0.15)"/>
  <rect x="25" y="5" width="7" height="11" rx="3" ry="3" fill="#27ae60" stroke="#1e8449" stroke-width="1"/>
  <line x1="26" y1="10" x2="31" y2="10" stroke="rgba(255,255,255,0.3)" stroke-width="1"/>
  <rect x="26" y="6" width="5" height="3" rx="2" ry="2" fill="rgba(255,255,255,0.15)"/>
  <rect x="39" y="5" width="7" height="11" rx="3" ry="3" fill="#27ae60" stroke="#1e8449" stroke-width="1"/>
  <line x1="40" y1="10" x2="45" y2="10" stroke="rgba(255,255,255,0.3)" stroke-width="1"/>
  <rect x="40" y="6" width="5" height="3" rx="2" ry="2" fill="rgba(255,255,255,0.15)"/>
  <rect x="11" y="26" width="7" height="11" rx="3" ry="3" fill="#27ae60" stroke="#1e8449" stroke-width="1"/>
  <line x1="12" y1="31" x2="17" y2="31" stroke="rgba(255,255,255,0.3)" stroke-width="1"/>
  <rect x="12" y="27" width="5" height="3" rx="2" ry="2" fill="rgba(255,255,255,0.15)"/>
  <rect x="25" y="26" width="7" height="11" rx="3" ry="3" fill="#27ae60" stroke="#1e8449" stroke-width="1"/>
  <line x1="26" y1="31" x2="31" y2="31" stroke="rgba(255,255,255,0.3)" stroke-width="1"/>
  <rect x="26" y="27" width="5" height="3" rx="2" ry="2" fill="rgba(255,255,255,0.15)"/>
  <rect x="39" y="26" width="7" height="11" rx="3" ry="3" fill="#27ae60" stroke="#1e8449" stroke-width="1"/>
  <line x1="40" y1="31" x2="45" y2="31" stroke="rgba(255,255,255,0.3)" stroke-width="1"/>
  <rect x="40" y="27" width="5" height="3" rx="2" ry="2" fill="rgba(255,255,255,0.15)"/>
  <rect x="11" y="47" width="7" height="11" rx="3" ry="3" fill="#27ae60" stroke="#1e8449" stroke-width="1"/>
  <line x1="12" y1="52" x2="17" y2="52" stroke="rgba(255,255,255,0.3)" stroke-width="1"/>
  <rect x="12" y="48" width="5" height="3" rx="2" ry="2" fill="rgba(255,255,255,0.15)"/>
  <rect x="25" y="47" width="7" height="11" rx="3" ry="3" fill="#27ae60" stroke="#1e8449" stroke-width="1"/>
  <line x1="26" y1="52" x2="31" y2="52" stroke="rgba(255,255,255,0.3)" stroke-width="1"/>
  <rect x="26" y="48" width="5" height="3" rx="2" ry="2" fill="rgba(255,255,255,0.15)"/>
  <rect x="39" y="47" width="7" height="11" rx="3" ry="3" fill="#27ae60" stroke="#1e8449" stroke-width="1"/>
  <line x1="40" y1="52" x2="45" y2="52" stroke="rgba(255,255,255,0.3)" stroke-width="1"/>
  <rect x="40" y="48" width="5" height="3" rx="2" ry="2" fill="rgba(255,255,255,0.15)"/>
</svg>