<svg xmlns="http://www.w3.org/2000/svg" viewBox="0 0 60 80" width="60" height="80">
  <!-- 3D side shadow -->
  <rect x="4" y="4" width="56" height="76" rx="5" ry="5" fill="#5a3a10"/>
  <!-- Main tile face -->
  <rect x="0" y="0" width="56" height="76" rx="5" ry="5" fill="#f5f0e8" stroke="#8b6914" stroke-width="1.5"/>
  <!-- Sheen gradient highlight -->
  <rect x="1" y="1" width="54" height="20" rx="4" ry="4" fill="rgba(255,255,255,0.25)"/>
  <!-- Inner border -->
  <rect x="3" y="3" width="50" height="70" rx="4" ry="4" fill="none" stroke="rgba(255,255,255,0.5)" stroke-width="0.8"/>
  <!-- 花4 (冬) -->
  <ellipse cx="36.0" cy="28.0" rx="6" ry="4" fill="#2980b9" stroke="none" opacity="0.85" transform="rotate(0,36.0,28.0)"/>
  <ellipse cx="32.0" cy="34.9" rx="6" ry="4" fill="#2980b9" stroke="none" opacity="0.85" transform="rotate(60,32.0,34.9)"/>
  <ellipse cx="24.0" cy="34.9" rx="6" ry="4" fill="#2980b9" stroke="none" opacity="0.85" transform="rotate(120,24.0,34.9)"/>
  <ellipse cx="20.0" cy="28.0" rx="6" ry="4" fill="#2980b9" stroke="none" opacity="0.85" transform="rotate(180,20.0,28.0)"/>
  <ellipse cx="24.0" cy="21.1" rx="6" ry="4" fill="#2980b9" stroke="none" opacity="0.85" transform="rotate(240,24.0,21.1)"/>
  <ellipse cx="32.0" cy="21.1" rx="6" ry="4" fill="#2980b9" stroke="none" opacity="0.85" transform="rotate(300,32.0,21.1)"/>
  <circle cx="28" cy="28" r="5" fill="#f39c12"/>
  <text x="28" y="58" font-family="serif" font-size="20" font-weight="bold" fill="#2980b9" text-anchor="middle" dominant-baseline="middle">冬</text>
</svg>