<svg xmlns="http://www.w3.org/2000/svg" viewBox="0 0 60 80" width="60" height="80">
  <!-- 3D side shadow -->
  <rect x="4" y="4" width="56" height="76" rx="5" ry="5" fill="#5a3a10"/>
  <!-- Main tile face -->
  <rect x="0" y="0" width="56" height="76" rx="5" ry="5" fill="#f5f0e8" stroke="#8b6914" stroke-width="1.5"/>
  <!-- Sheen gradient highlight -->
  <rect x="1" y="1" width="54" height="20" rx="4" ry="4" fill="rgba(255,255,255,0.25)"/>
  <!-- Inner border -->
  <rect x="3" y="3" width="50" height="70" rx="4" ry="4" fill="none" stroke="rgba(255,255,255,0.5)" stroke-width="0.8"/>
  <!-- 季節1 (梅) -->
  <circle cx="28.0" cy="17.0" r="5.5" fill="#e74c3c" opacity="0.9"/>
  <circle cx="36.6" cy="23.2" r="5.5" fill="#e74c3c" opacity="0.9"/>
  <circle cx="33.3" cy="33.3" r="5.5" fill="#e74c3c" opacity="0.9"/>
  <circle cx="22.7" cy="33.3" r="5.5" fill="#e74c3c" opacity="0.9"/>
  <circle cx="19.4" cy="23.2" r="5.5" fill="#e74c3c" opacity="0.9"/>
  <circle cx="28" cy="26" r="4" fill="#f8d030"/>
  <circle cx="28.0" cy="23.0" r="1" fill="#e74c3c" opacity="0.7"/>
  <circle cx="30.9" cy="25.1" r="1" fill="#e74c3c" opacity="0.7"/>
  <circle cx="29.8" cy="28.4" r="1" fill="#e74c3c" opacity="0.7"/>
  <circle cx="26.2" cy="28.4" r="1" fill="#e74c3c" opacity="0.7"/>
  <circle cx="25.1" cy="25.1" r="1" fill="#e74c3c" opacity="0.7"/>
  <text x="28" y="69" font-family="serif" font-size="14" font-weight="bold" fill="#e74c3c" text-anchor="middle" dominant-baseline="middle">梅</text>
</svg>