<svg xmlns="http://www.w3.org/2000/svg" viewBox="0 0 60 80" width="60" height="80">
  <!-- 3D side shadow -->
  <rect x="4" y="4" width="56" height="76" rx="5" ry="5" fill="#5a3a10"/>
  <!-- Main tile face -->
  <rect x="0" y="0" width="56" height="76" rx="5" ry="5" fill="#f5f0e8" stroke="#8b6914" stroke-width="1.5"/>
  <!-- Sheen gradient highlight -->
  <rect x="1" y="1" width="54" height="20" rx="4" ry="4" fill="rgba(255,255,255,0.25)"/>
  <!-- Inner border -->
  <rect x="3" y="3" width="50" height="70" rx="4" ry="4" fill="none" stroke="rgba(255,255,255,0.5)" stroke-width="0.8"/>
  <!-- 季節3 (菊) -->
  <ellipse cx="33.0" cy="26.0" rx="3.5" ry="7" fill="#f39c12" opacity="0.8" transform="rotate(0,33.0,26.0)"/>
  <ellipse cx="32.3" cy="28.5" rx="3.5" ry="7" fill="#f39c12" opacity="0.8" transform="rotate(30,32.3,28.5)"/>
  <ellipse cx="30.5" cy="30.3" rx="3.5" ry="7" fill="#f39c12" opacity="0.8" transform="rotate(60,30.5,30.3)"/>
  <ellipse cx="28.0" cy="31.0" rx="3.5" ry="7" fill="#f39c12" opacity="0.8" transform="rotate(90,28.0,31.0)"/>
  <ellipse cx="25.5" cy="30.3" rx="3.5" ry="7" fill="#f39c12" opacity="0.8" transform="rotate(120,25.5,30.3)"/>
  <ellipse cx="23.7" cy="28.5" rx="3.5" ry="7" fill="#f39c12" opacity="0.8" transform="rotate(150,23.7,28.5)"/>
  <ellipse cx="23.0" cy="26.0" rx="3.5" ry="7" fill="#f39c12" opacity="0.8" transform="rotate(180,23.0,26.0)"/>
  <ellipse cx="23.7" cy="23.5" rx="3.5" ry="7" fill="#f39c12" opacity="0.8" transform="rotate(210,23.7,23.5)"/>
  <ellipse cx="25.5" cy="21.7" rx="3.5" ry="7" fill="#f39c12" opacity="0.8" transform="rotate(240,25.5,21.7)"/>
  <ellipse cx="28.0" cy="21.0" rx="3.5" ry="7" fill="#f39c12" opacity="0.8" transform="rotate(270,28.0,21.0)"/>
  <ellipse cx="30.5" cy="21.7" rx="3.5" ry="7" fill="#f39c12" opacity="0.8" transform="rotate(300,30.5,21.7)"/>
  <ellipse cx="32.3" cy="23.5" rx="3.5" ry="7" fill="#f39c12" opacity="0.8" transform="rotate(330,32.3,23.5)"/>
  <circle cx="28" cy="26" r="4.5" fill="#f8d030"/>
  <text x="28" y="69" font-family="serif" font-size="14" font-weight="bold" fill="#f39c12" text-anchor="middle" dominant-baseline="middle">菊</text>
</svg>