<svg xmlns="http://www.w3.org/2000/svg" viewBox="0 0 600 280" role="img" aria-labelledby="title desc">
  <title id="title">コリドール thumbnail</title>
  <desc id="desc">A wood board with two pawns and several walls.</desc>
  <defs>
    <linearGradient id="bg" x1="0" y1="0" x2="1" y2="1">
      <stop offset="0" stop-color="#f7efd9"/>
      <stop offset="1" stop-color="#d8bea0"/>
    </linearGradient>
    <linearGradient id="cell" x1="0" y1="0" x2="0" y2="1">
      <stop offset="0" stop-color="#f8dfae"/>
      <stop offset="1" stop-color="#b77943"/>
    </linearGradient>
  </defs>
  <rect width="600" height="280" rx="18" fill="url(#bg)"/>
  <rect x="162" y="22" width="276" height="236" rx="10" fill="#6b4428"/>
  <g transform="translate(186 46)">
    <g fill="url(#cell)" stroke="#6a3e20" stroke-width="2">
      <rect x="0" y="0" width="22" height="22" rx="4"/>
      <rect x="30" y="0" width="22" height="22" rx="4"/>
      <rect x="60" y="0" width="22" height="22" rx="4"/>
      <rect x="90" y="0" width="22" height="22" rx="4"/>
      <rect x="120" y="0" width="22" height="22" rx="4"/>
      <rect x="150" y="0" width="22" height="22" rx="4"/>
      <rect x="180" y="0" width="22" height="22" rx="4"/>
      <rect x="210" y="0" width="22" height="22" rx="4"/>
      <rect x="240" y="0" width="22" height="22" rx="4"/>
    </g>
    <g fill="url(#cell)" stroke="#6a3e20" stroke-width="2">
      <rect x="0" y="30" width="22" height="22" rx="4"/><rect x="30" y="30" width="22" height="22" rx="4"/><rect x="60" y="30" width="22" height="22" rx="4"/><rect x="90" y="30" width="22" height="22" rx="4"/><rect x="120" y="30" width="22" height="22" rx="4"/><rect x="150" y="30" width="22" height="22" rx="4"/><rect x="180" y="30" width="22" height="22" rx="4"/><rect x="210" y="30" width="22" height="22" rx="4"/><rect x="240" y="30" width="22" height="22" rx="4"/>
      <rect x="0" y="60" width="22" height="22" rx="4"/><rect x="30" y="60" width="22" height="22" rx="4"/><rect x="60" y="60" width="22" height="22" rx="4"/><rect x="90" y="60" width="22" height="22" rx="4"/><rect x="120" y="60" width="22" height="22" rx="4"/><rect x="150" y="60" width="22" height="22" rx="4"/><rect x="180" y="60" width="22" height="22" rx="4"/><rect x="210" y="60" width="22" height="22" rx="4"/><rect x="240" y="60" width="22" height="22" rx="4"/>
      <rect x="0" y="90" width="22" height="22" rx="4"/><rect x="30" y="90" width="22" height="22" rx="4"/><rect x="60" y="90" width="22" height="22" rx="4"/><rect x="90" y="90" width="22" height="22" rx="4"/><rect x="120" y="90" width="22" height="22" rx="4"/><rect x="150" y="90" width="22" height="22" rx="4"/><rect x="180" y="90" width="22" height="22" rx="4"/><rect x="210" y="90" width="22" height="22" rx="4"/><rect x="240" y="90" width="22" height="22" rx="4"/>
      <rect x="0" y="120" width="22" height="22" rx="4"/><rect x="30" y="120" width="22" height="22" rx="4"/><rect x="60" y="120" width="22" height="22" rx="4"/><rect x="90" y="120" width="22" height="22" rx="4"/><rect x="120" y="120" width="22" height="22" rx="4"/><rect x="150" y="120" width="22" height="22" rx="4"/><rect x="180" y="120" width="22" height="22" rx="4"/><rect x="210" y="120" width="22" height="22" rx="4"/><rect x="240" y="120" width="22" height="22" rx="4"/>
      <rect x="0" y="150" width="22" height="22" rx="4"/><rect x="30" y="150" width="22" height="22" rx="4"/><rect x="60" y="150" width="22" height="22" rx="4"/><rect x="90" y="150" width="22" height="22" rx="4"/><rect x="120" y="150" width="22" height="22" rx="4"/><rect x="150" y="150" width="22" height="22" rx="4"/><rect x="180" y="150" width="22" height="22" rx="4"/><rect x="210" y="150" width="22" height="22" rx="4"/><rect x="240" y="150" width="22" height="22" rx="4"/>
      <rect x="0" y="180" width="22" height="22" rx="4"/><rect x="30" y="180" width="22" height="22" rx="4"/><rect x="60" y="180" width="22" height="22" rx="4"/><rect x="90" y="180" width="22" height="22" rx="4"/><rect x="120" y="180" width="22" height="22" rx="4"/><rect x="150" y="180" width="22" height="22" rx="4"/><rect x="180" y="180" width="22" height="22" rx="4"/><rect x="210" y="180" width="22" height="22" rx="4"/><rect x="240" y="180" width="22" height="22" rx="4"/>
    </g>
    <rect x="84" y="26" width="10" height="54" rx="5" fill="#273033"/>
    <rect x="116" y="84" width="54" height="10" rx="5" fill="#273033"/>
    <rect x="204" y="116" width="10" height="54" rx="5" fill="#273033"/>
    <circle cx="131" cy="11" r="13" fill="#2563eb" stroke="#f8fafc" stroke-width="4"/>
    <circle cx="131" cy="191" r="13" fill="#dc2626" stroke="#fff7ed" stroke-width="4"/>
  </g>
</svg>
