<svg xmlns="http://www.w3.org/2000/svg" width="600" height="280" viewBox="0 0 600 280">
  <defs>
    <radialGradient id="feltGrad" cx="50%" cy="50%" r="70%">
      <stop offset="0" stop-color="#0a5236"/>
      <stop offset="1" stop-color="#041510"/>
    </radialGradient>
    <linearGradient id="woodGrad" x1="0" y1="0" x2="0" y2="1">
      <stop offset="0" stop-color="#1a0a00"/>
      <stop offset="0.4" stop-color="#3d1a00"/>
      <stop offset="1" stop-color="#1a0a00"/>
    </linearGradient>
    <linearGradient id="tileGrad" x1="0" y1="0" x2="0" y2="1">
      <stop offset="0" stop-color="#fafeff"/>
      <stop offset="1" stop-color="#e8edf4"/>
    </linearGradient>
    <linearGradient id="tileSideGrad" x1="0" y1="0" x2="1" y2="0">
      <stop offset="0" stop-color="#b0b8c8"/>
      <stop offset="1" stop-color="#c8d0dc"/>
    </linearGradient>
    <linearGradient id="tileBottomGrad" x1="0" y1="0" x2="0" y2="1">
      <stop offset="0" stop-color="#9aa4b4"/>
      <stop offset="1" stop-color="#7a8494"/>
    </linearGradient>
    <linearGradient id="riichiGrad" x1="0" y1="0" x2="1" y2="0">
      <stop offset="0" stop-color="#7c3aed"/>
      <stop offset="1" stop-color="#4f46e5"/>
    </linearGradient>
    <filter id="glowCyan" x="-40%" y="-40%" width="180%" height="180%">
      <feGaussianBlur in="SourceGraphic" stdDeviation="4" result="blur1"/>
      <feColorMatrix in="blur1" type="matrix"
        values="0 0 0 0 0  0 1 0 0 0.9  0 0 1 0 0.9  0 0 0 0.8 0" result="coloredBlur"/>
      <feMerge><feMergeNode in="coloredBlur"/><feMergeNode in="SourceGraphic"/></feMerge>
    </filter>
    <filter id="glowMag" x="-40%" y="-40%" width="180%" height="180%">
      <feGaussianBlur in="SourceGraphic" stdDeviation="5" result="blur1"/>
      <feColorMatrix in="blur1" type="matrix"
        values="1 0 0 0 1  0 0 0 0 0  1 0 0 0 1  0 0 0 0.7 0" result="coloredBlur"/>
      <feMerge><feMergeNode in="coloredBlur"/><feMergeNode in="SourceGraphic"/></feMerge>
    </filter>
    <filter id="tileShadow" x="-20%" y="-20%" width="150%" height="160%">
      <feDropShadow dx="2" dy="5" stdDeviation="5" flood-color="#000000" flood-opacity="0.55"/>
    </filter>
    <filter id="textGlow" x="-30%" y="-60%" width="160%" height="220%">
      <feGaussianBlur in="SourceGraphic" stdDeviation="3" result="blur"/>
      <feColorMatrix in="blur" type="matrix"
        values="0 1 1 0 0  0 1 1 0 1  0 1 1 0 1  0 0 0 0.7 0" result="coloredBlur"/>
      <feMerge><feMergeNode in="coloredBlur"/><feMergeNode in="SourceGraphic"/></feMerge>
    </filter>
    <filter id="borderGlow" x="-5%" y="-5%" width="110%" height="110%">
      <feGaussianBlur in="SourceGraphic" stdDeviation="6" result="blur"/>
      <feColorMatrix in="blur" type="matrix"
        values="0 0.5 1 0 0  0 1 1 0 0.8  0 0.5 1 0 0.8  0 0 0 0.6 0" result="coloredBlur"/>
      <feMerge><feMergeNode in="coloredBlur"/><feMergeNode in="SourceGraphic"/></feMerge>
    </filter>
    <pattern id="grid" width="20" height="20" patternUnits="userSpaceOnUse">
      <path d="M0 10 H20 M10 0 V20" stroke="rgba(255,255,255,0.04)" stroke-width="0.8"/>
    </pattern>
    <pattern id="cyberGrid" width="30" height="30" patternUnits="userSpaceOnUse">
      <path d="M0 30 V0 H30" fill="none" stroke="rgba(0,229,204,0.05)" stroke-width="0.8"/>
    </pattern>
    <radialGradient id="tableLight" cx="50%" cy="45%" r="55%">
      <stop offset="0" stop-color="rgba(100,255,180,0.07)"/>
      <stop offset="1" stop-color="rgba(0,0,0,0)"/>
    </radialGradient>
  </defs>

  <!-- Background -->
  <rect x="0" y="0" width="600" height="280" fill="#0d0d0d"/>
  <rect x="0" y="0" width="600" height="280" fill="url(#cyberGrid)"/>
  <rect x="4" y="4" width="592" height="272" rx="14" fill="url(#woodGrad)"/>
  <rect x="18" y="18" width="564" height="244" rx="10" fill="url(#feltGrad)"/>
  <rect x="18" y="18" width="564" height="244" rx="10" fill="url(#grid)"/>
  <rect x="18" y="18" width="564" height="244" rx="10" fill="url(#tableLight)"/>
  <rect x="18" y="18" width="564" height="244" rx="10"
        fill="none" stroke="#00e5cc" stroke-width="1.5" opacity="0.70" filter="url(#borderGlow)"/>

  <!-- Riichi tile (横向き - turned sideways, indicating riichi declared) -->
  <g transform="translate(46,142) rotate(-90,36,26)" filter="url(#tileShadow)" opacity="0.9">
    <polygon points="0,52 5,57 57,57 52,52" fill="url(#tileBottomGrad)"/>
    <polygon points="0,0 0,52 5,57 5,5" fill="url(#tileSideGrad)"/>
    <rect x="5" y="5" width="47" height="47" rx="4" fill="url(#tileGrad)" stroke="rgba(30,40,60,0.35)" stroke-width="1.2"/>
    <rect x="8" y="8" width="41" height="41" rx="3" fill="rgba(240,252,255,0.85)"/>
    <text x="29" y="34" text-anchor="middle" font-size="22" font-weight="900"
          fill="#1e3a8a" font-family="system-ui,-apple-system,sans-serif">立</text>
    <!-- Riichi glow border -->
    <rect x="5" y="5" width="47" height="47" rx="4" fill="none" stroke="#a78bfa" stroke-width="1.5" opacity="0.8"/>
  </g>

  <!-- Tile 1: 1m -->
  <g transform="translate(108,108)" filter="url(#tileShadow)">
    <polygon points="0,72 5,77 59,77 54,72" fill="url(#tileBottomGrad)"/>
    <polygon points="0,0 0,72 5,77 5,5" fill="url(#tileSideGrad)"/>
    <rect x="5" y="5" width="49" height="67" rx="5" fill="url(#tileGrad)" stroke="rgba(30,40,60,0.35)" stroke-width="1.2"/>
    <rect x="9" y="9" width="41" height="59" rx="3.5" fill="rgba(240,252,255,0.85)" stroke="rgba(30,40,60,0.12)" stroke-width="0.8"/>
    <text x="12" y="20" font-size="9" font-weight="700" fill="rgba(180,40,40,0.75)" font-family="system-ui,sans-serif">2萬</text>
    <text x="29" y="60" text-anchor="middle" font-size="36" font-weight="900" fill="#cc2020" font-family="system-ui,sans-serif">二</text>
    <text x="29" y="70" text-anchor="middle" font-size="10" font-weight="700" fill="rgba(180,40,40,0.65)" font-family="system-ui,sans-serif">萬</text>
  </g>

  <!-- Tile 2: 3m -->
  <g transform="translate(168,108)" filter="url(#tileShadow)">
    <polygon points="0,72 5,77 59,77 54,72" fill="url(#tileBottomGrad)"/>
    <polygon points="0,0 0,72 5,77 5,5" fill="url(#tileSideGrad)"/>
    <rect x="5" y="5" width="49" height="67" rx="5" fill="url(#tileGrad)" stroke="rgba(30,40,60,0.35)" stroke-width="1.2"/>
    <rect x="9" y="9" width="41" height="59" rx="3.5" fill="rgba(240,252,255,0.85)"/>
    <text x="12" y="20" font-size="9" font-weight="700" fill="rgba(180,40,40,0.75)" font-family="system-ui,sans-serif">3萬</text>
    <text x="29" y="60" text-anchor="middle" font-size="36" font-weight="900" fill="#cc2020" font-family="system-ui,sans-serif">三</text>
    <text x="29" y="70" text-anchor="middle" font-size="10" font-weight="700" fill="rgba(180,40,40,0.65)" font-family="system-ui,sans-serif">萬</text>
  </g>

  <!-- Tile 3: 4m -->
  <g transform="translate(228,108)" filter="url(#tileShadow)">
    <polygon points="0,72 5,77 59,77 54,72" fill="url(#tileBottomGrad)"/>
    <polygon points="0,0 0,72 5,77 5,5" fill="url(#tileSideGrad)"/>
    <rect x="5" y="5" width="49" height="67" rx="5" fill="url(#tileGrad)" stroke="rgba(30,40,60,0.35)" stroke-width="1.2"/>
    <rect x="9" y="9" width="41" height="59" rx="3.5" fill="rgba(240,252,255,0.85)"/>
    <text x="12" y="20" font-size="9" font-weight="700" fill="rgba(180,40,40,0.75)" font-family="system-ui,sans-serif">4萬</text>
    <text x="29" y="60" text-anchor="middle" font-size="36" font-weight="900" fill="#cc2020" font-family="system-ui,sans-serif">四</text>
    <text x="29" y="70" text-anchor="middle" font-size="10" font-weight="700" fill="rgba(180,40,40,0.65)" font-family="system-ui,sans-serif">萬</text>
  </g>

  <!-- Tile 4: 中 (Chun) -->
  <g transform="translate(296,108)" filter="url(#tileShadow)">
    <polygon points="0,72 5,77 59,77 54,72" fill="url(#tileBottomGrad)"/>
    <polygon points="0,0 0,72 5,77 5,5" fill="url(#tileSideGrad)"/>
    <rect x="5" y="5" width="49" height="67" rx="5" fill="url(#tileGrad)" stroke="rgba(30,40,60,0.35)" stroke-width="1.2"/>
    <rect x="9" y="9" width="41" height="59" rx="3.5" fill="rgba(240,252,255,0.85)"/>
    <text x="29" y="65" text-anchor="middle" font-size="42" font-weight="900" fill="#dd1010" font-family="system-ui,sans-serif">中</text>
  </g>

  <!-- Tile 5: 中 (Pon!) -->
  <g transform="translate(356,108)" filter="url(#tileShadow)">
    <polygon points="0,72 5,77 59,77 54,72" fill="url(#tileBottomGrad)"/>
    <polygon points="0,0 0,72 5,77 5,5" fill="url(#tileSideGrad)"/>
    <rect x="5" y="5" width="49" height="67" rx="5" fill="url(#tileGrad)" stroke="rgba(30,40,60,0.35)" stroke-width="1.2"/>
    <rect x="9" y="9" width="41" height="59" rx="3.5" fill="rgba(240,252,255,0.85)"/>
    <text x="29" y="65" text-anchor="middle" font-size="42" font-weight="900" fill="#dd1010" font-family="system-ui,sans-serif">中</text>
  </g>

  <!-- Tile 6: 中 (3rd → Pon!) -->
  <g transform="translate(416,108)" filter="url(#tileShadow)">
    <polygon points="0,72 5,77 59,77 54,72" fill="url(#tileBottomGrad)"/>
    <polygon points="0,0 0,72 5,77 5,5" fill="url(#tileSideGrad)"/>
    <rect x="5" y="5" width="49" height="67" rx="5" fill="url(#tileGrad)" stroke="rgba(30,40,60,0.35)" stroke-width="1.2"/>
    <rect x="9" y="9" width="41" height="59" rx="3.5" fill="rgba(240,252,255,0.85)"/>
    <text x="29" y="65" text-anchor="middle" font-size="42" font-weight="900" fill="#dd1010" font-family="system-ui,sans-serif">中</text>
    <!-- Magenta "PON!" badge over last tile -->
    <rect x="0" y="4" width="54" height="20" rx="4" fill="#be185d" opacity="0.9"/>
    <text x="27" y="18" text-anchor="middle" font-size="12" font-weight="900" fill="#fce7f3" font-family="system-ui,sans-serif">PON!</text>
  </g>

  <!-- Tile 7: 發 -->
  <g transform="translate(482,108)" filter="url(#tileShadow)">
    <polygon points="0,72 5,77 59,77 54,72" fill="url(#tileBottomGrad)"/>
    <polygon points="0,0 0,72 5,77 5,5" fill="url(#tileSideGrad)"/>
    <rect x="5" y="5" width="49" height="67" rx="5" fill="url(#tileGrad)" stroke="rgba(30,40,60,0.35)" stroke-width="1.2"/>
    <rect x="9" y="9" width="41" height="59" rx="3.5" fill="rgba(240,252,255,0.85)"/>
    <text x="29" y="65" text-anchor="middle" font-size="38" font-weight="900" fill="#0d9e2a" font-family="system-ui,sans-serif">發</text>
  </g>

  <!-- Action badges row -->
  <!-- RON badge -->
  <rect x="108" y="86" width="42" height="18" rx="4" fill="#dc2626" opacity="0.92" filter="url(#glowMag)"/>
  <text x="129" y="98" text-anchor="middle" font-size="11" font-weight="900" fill="#fff" font-family="system-ui,sans-serif">RON</text>

  <!-- KAN badge -->
  <rect x="228" y="86" width="42" height="18" rx="4" fill="#7c3aed" opacity="0.92"/>
  <text x="249" y="98" text-anchor="middle" font-size="11" font-weight="900" fill="#e9d5ff" font-family="system-ui,sans-serif">KAN</text>

  <!-- RIICHI badge -->
  <rect x="36" y="86" width="48" height="18" rx="4" fill="url(#riichiGrad)" opacity="0.92"/>
  <text x="60" y="98" text-anchor="middle" font-size="11" font-weight="900" fill="#ddd6fe" font-family="system-ui,sans-serif">立直</text>

  <!-- Neon glow line under tiles -->
  <rect x="100" y="188" width="444" height="3" rx="2" fill="none" stroke="#00e5cc" stroke-width="1.2" opacity="0.55" filter="url(#glowCyan)"/>

  <!-- Title text -->
  <text x="38" y="76" font-size="30" font-weight="900" fill="#00e5cc" opacity="0.35"
        font-family="system-ui,-apple-system,sans-serif" letter-spacing="3">AI 麻雀</text>
  <text x="38" y="76" font-size="30" font-weight="900" fill="#e0f8f5"
        font-family="system-ui,-apple-system,sans-serif" letter-spacing="3"
        filter="url(#textGlow)">AI 麻雀</text>

  <!-- Sub-text -->
  <text x="40" y="96" font-size="11" font-weight="500" fill="rgba(160,220,200,0.88)"
        font-family="system-ui,-apple-system,sans-serif" letter-spacing="0.5">本格ルール · Ron · Pon · Chi · Kan · 役 · Riichi</text>

  <!-- AI Powered badge -->
  <rect x="503" y="30" width="72" height="24" rx="5"
        fill="rgba(139,92,246,0.20)" stroke="#8b5cf6" stroke-width="1.2" opacity="0.9"/>
  <text x="539" y="46" text-anchor="middle" font-size="11" font-weight="700" fill="#c4b5fd"
        font-family="system-ui,-apple-system,sans-serif" letter-spacing="1">AI Powered</text>

  <!-- Dora indicator label -->
  <rect x="482" y="200" width="90" height="30" rx="6" fill="rgba(0,0,0,0.5)" stroke="rgba(250,204,21,0.5)" stroke-width="1"/>
  <text x="527" y="212" text-anchor="middle" font-size="9" fill="rgba(250,204,21,0.9)" font-family="system-ui,sans-serif">ドラ表示牌</text>
  <text x="527" y="224" text-anchor="middle" font-size="10" font-weight="700" fill="#fbbf24" font-family="system-ui,sans-serif">▶ 發 ◀</text>
</svg>
