<svg xmlns="http://www.w3.org/2000/svg" width="600" height="280" viewBox="0 0 600 280">
  <defs>
    <!-- 麻雀卓のフェルト背景グラデーション -->
    <radialGradient id="feltGrad" cx="50%" cy="50%" r="70%">
      <stop offset="0" stop-color="#0a5236"/>
      <stop offset="1" stop-color="#041510"/>
    </radialGradient>

    <!-- テーブル外枠の木目調 -->
    <linearGradient id="woodGrad" x1="0" y1="0" x2="0" y2="1">
      <stop offset="0" stop-color="#1a0a00"/>
      <stop offset="0.4" stop-color="#3d1a00"/>
      <stop offset="1" stop-color="#1a0a00"/>
    </linearGradient>

    <!-- 牌の正面グラデーション（白→アイボリー） -->
    <linearGradient id="tileGrad" x1="0" y1="0" x2="0" y2="1">
      <stop offset="0" stop-color="#fafeff"/>
      <stop offset="1" stop-color="#e8edf4"/>
    </linearGradient>

    <!-- 牌の左サイド（3D感） -->
    <linearGradient id="tileSideGrad" x1="0" y1="0" x2="1" y2="0">
      <stop offset="0" stop-color="#b0b8c8"/>
      <stop offset="1" stop-color="#c8d0dc"/>
    </linearGradient>

    <!-- 牌の下サイド（3D感） -->
    <linearGradient id="tileBottomGrad" x1="0" y1="0" x2="0" y2="1">
      <stop offset="0" stop-color="#9aa4b4"/>
      <stop offset="1" stop-color="#7a8494"/>
    </linearGradient>

    <!-- ネオングロー：シアン -->
    <filter id="glowCyan" x="-40%" y="-40%" width="180%" height="180%">
      <feGaussianBlur in="SourceGraphic" stdDeviation="4" result="blur1"/>
      <feColorMatrix in="blur1" type="matrix"
        values="0 0 0 0 0
                0 1 0 0 0.9
                0 0 1 0 0.9
                0 0 0 0.8 0" result="coloredBlur"/>
      <feMerge>
        <feMergeNode in="coloredBlur"/>
        <feMergeNode in="SourceGraphic"/>
      </feMerge>
    </filter>

    <!-- 牌のドロップシャドウ -->
    <filter id="tileShadow" x="-20%" y="-20%" width="150%" height="160%">
      <feDropShadow dx="2" dy="5" stdDeviation="5" flood-color="#000000" flood-opacity="0.55"/>
    </filter>

    <!-- テキストのグロー（タイトル用） -->
    <filter id="textGlow" x="-30%" y="-60%" width="160%" height="220%">
      <feGaussianBlur in="SourceGraphic" stdDeviation="3" result="blur"/>
      <feColorMatrix in="blur" type="matrix"
        values="0 1 1 0 0
                0 1 1 0 1
                0 1 1 0 1
                0 0 0 0.7 0" result="coloredBlur"/>
      <feMerge>
        <feMergeNode in="coloredBlur"/>
        <feMergeNode in="SourceGraphic"/>
      </feMerge>
    </filter>

    <!-- 卓縁のグロー -->
    <filter id="borderGlow" x="-5%" y="-5%" width="110%" height="110%">
      <feGaussianBlur in="SourceGraphic" stdDeviation="6" result="blur"/>
      <feColorMatrix in="blur" type="matrix"
        values="0 0.5 1 0 0
                0 1   1 0 0.8
                0 0.5 1 0 0.8
                0 0   0 0.6 0" result="coloredBlur"/>
      <feMerge>
        <feMergeNode in="coloredBlur"/>
        <feMergeNode in="SourceGraphic"/>
      </feMerge>
    </filter>

    <!-- グリッドパターン（卓のフェルトテクスチャ） -->
    <pattern id="grid" width="20" height="20" patternUnits="userSpaceOnUse">
      <path d="M0 10 H20 M10 0 V20" stroke="rgba(255,255,255,0.04)" stroke-width="0.8"/>
    </pattern>

    <!-- サイバーグリッドパターン（背景） -->
    <pattern id="cyberGrid" width="30" height="30" patternUnits="userSpaceOnUse">
      <path d="M0 30 V0 H30" fill="none" stroke="rgba(0,229,204,0.05)" stroke-width="0.8"/>
    </pattern>

    <!-- 放射状の明かり（卓の中央照明） -->
    <radialGradient id="tableLight" cx="50%" cy="45%" r="55%">
      <stop offset="0" stop-color="rgba(100,255,180,0.07)"/>
      <stop offset="1" stop-color="rgba(0,0,0,0)"/>
    </radialGradient>
  </defs>

  <!-- ======== 背景：木枠テーブル ======== -->
  <rect x="0" y="0" width="600" height="280" fill="#0d0d0d"/>
  <rect x="0" y="0" width="600" height="280" fill="url(#cyberGrid)"/>
  <rect x="4" y="4" width="592" height="272" rx="14" fill="url(#woodGrad)"/>

  <!-- フェルト面 -->
  <rect x="18" y="18" width="564" height="244" rx="10" fill="url(#feltGrad)"/>
  <rect x="18" y="18" width="564" height="244" rx="10" fill="url(#grid)"/>
  <rect x="18" y="18" width="564" height="244" rx="10" fill="url(#tableLight)"/>

  <!-- 卓縁のネオンライン -->
  <rect x="18" y="18" width="564" height="244" rx="10"
        fill="none" stroke="#00e5cc" stroke-width="1.5" opacity="0.70" filter="url(#borderGlow)"/>
  <rect x="22" y="22" width="556" height="236" rx="8"
        fill="none" stroke="#8b5cf6" stroke-width="0.8" opacity="0.35" filter="url(#borderGlow)"/>

  <!-- ======== 牌：8枚横一列 ======== -->
  <!-- 牌サイズ: 幅54px 高さ72px、3D厚さ5px -->
  <!-- 横開始位置: (600 - 8*54 - 7*8) / 2 = (600-432-56)/2 = 56px -->
  <!-- Y位置: (280 - 72) / 2 = 104 → 少し下げて 108 -->

  <!-- ======== 牌描画マクロ ======== -->
  <!-- tile(tx, ty): 正面rect + 左サイド + 底サイド + 内枠 -->

  <!-- ---- 牌1: 1萬 (赤萬子) ---- -->
  <g transform="translate(56,108)" filter="url(#tileShadow)">
    <!-- 底面 -->
    <polygon points="0,72 5,77 59,77 54,72" fill="url(#tileBottomGrad)"/>
    <!-- 左面 -->
    <polygon points="0,0 0,72 5,77 5,5" fill="url(#tileSideGrad)"/>
    <!-- 正面 -->
    <rect x="5" y="5" width="49" height="67" rx="5" fill="url(#tileGrad)"
          stroke="rgba(30,40,60,0.35)" stroke-width="1.2"/>
    <!-- 内枠 -->
    <rect x="9" y="9" width="41" height="59" rx="3.5"
          fill="rgba(240,252,255,0.85)" stroke="rgba(30,40,60,0.12)" stroke-width="0.8"/>
    <!-- ラベル（左上） -->
    <text x="12" y="20" font-size="9" font-weight="700"
          fill="rgba(180,40,40,0.75)"
          font-family="system-ui,-apple-system,'Segoe UI',sans-serif">1萬</text>
    <!-- メインシンボル -->
    <text x="29" y="60" text-anchor="middle" font-size="36" font-weight="900"
          fill="#cc2020"
          font-family="system-ui,-apple-system,'Segoe UI',sans-serif">一</text>
    <!-- 萬（小） -->
    <text x="29" y="70" text-anchor="middle" font-size="10" font-weight="700"
          fill="rgba(180,40,40,0.65)"
          font-family="system-ui,-apple-system,'Segoe UI',sans-serif">萬</text>
  </g>

  <!-- ---- 牌2: 3萬 ---- -->
  <g transform="translate(118,108)" filter="url(#tileShadow)">
    <polygon points="0,72 5,77 59,77 54,72" fill="url(#tileBottomGrad)"/>
    <polygon points="0,0 0,72 5,77 5,5" fill="url(#tileSideGrad)"/>
    <rect x="5" y="5" width="49" height="67" rx="5" fill="url(#tileGrad)"
          stroke="rgba(30,40,60,0.35)" stroke-width="1.2"/>
    <rect x="9" y="9" width="41" height="59" rx="3.5"
          fill="rgba(240,252,255,0.85)" stroke="rgba(30,40,60,0.12)" stroke-width="0.8"/>
    <text x="12" y="20" font-size="9" font-weight="700"
          fill="rgba(180,40,40,0.75)"
          font-family="system-ui,-apple-system,'Segoe UI',sans-serif">3萬</text>
    <text x="29" y="60" text-anchor="middle" font-size="36" font-weight="900"
          fill="#cc2020"
          font-family="system-ui,-apple-system,'Segoe UI',sans-serif">三</text>
    <text x="29" y="70" text-anchor="middle" font-size="10" font-weight="700"
          fill="rgba(180,40,40,0.65)"
          font-family="system-ui,-apple-system,'Segoe UI',sans-serif">萬</text>
  </g>

  <!-- ---- 牌3: 7萬 ---- -->
  <g transform="translate(180,108)" filter="url(#tileShadow)">
    <polygon points="0,72 5,77 59,77 54,72" fill="url(#tileBottomGrad)"/>
    <polygon points="0,0 0,72 5,77 5,5" fill="url(#tileSideGrad)"/>
    <rect x="5" y="5" width="49" height="67" rx="5" fill="url(#tileGrad)"
          stroke="rgba(30,40,60,0.35)" stroke-width="1.2"/>
    <rect x="9" y="9" width="41" height="59" rx="3.5"
          fill="rgba(240,252,255,0.85)" stroke="rgba(30,40,60,0.12)" stroke-width="0.8"/>
    <text x="12" y="20" font-size="9" font-weight="700"
          fill="rgba(180,40,40,0.75)"
          font-family="system-ui,-apple-system,'Segoe UI',sans-serif">7萬</text>
    <text x="29" y="60" text-anchor="middle" font-size="36" font-weight="900"
          fill="#cc2020"
          font-family="system-ui,-apple-system,'Segoe UI',sans-serif">七</text>
    <text x="29" y="70" text-anchor="middle" font-size="10" font-weight="700"
          fill="rgba(180,40,40,0.65)"
          font-family="system-ui,-apple-system,'Segoe UI',sans-serif">萬</text>
  </g>

  <!-- ---- 牌4: 2筒 ---- -->
  <g transform="translate(242,108)" filter="url(#tileShadow)">
    <polygon points="0,72 5,77 59,77 54,72" fill="url(#tileBottomGrad)"/>
    <polygon points="0,0 0,72 5,77 5,5" fill="url(#tileSideGrad)"/>
    <rect x="5" y="5" width="49" height="67" rx="5" fill="url(#tileGrad)"
          stroke="rgba(30,40,60,0.35)" stroke-width="1.2"/>
    <rect x="9" y="9" width="41" height="59" rx="3.5"
          fill="rgba(240,252,255,0.85)" stroke="rgba(30,40,60,0.12)" stroke-width="0.8"/>
    <text x="12" y="20" font-size="9" font-weight="700"
          fill="rgba(30,80,180,0.75)"
          font-family="system-ui,-apple-system,'Segoe UI',sans-serif">2筒</text>
    <!-- 2つのドット -->
    <circle cx="29" cy="33" r="9" fill="#e03020" stroke="rgba(30,40,60,0.25)" stroke-width="1.5"/>
    <circle cx="29" cy="33" r="5.5" fill="none" stroke="rgba(255,255,255,0.6)" stroke-width="1.2"/>
    <circle cx="29" cy="55" r="9" fill="#2060cc" stroke="rgba(30,40,60,0.25)" stroke-width="1.5"/>
    <circle cx="29" cy="55" r="5.5" fill="none" stroke="rgba(255,255,255,0.6)" stroke-width="1.2"/>
  </g>

  <!-- ---- 牌5: 5筒 ---- -->
  <g transform="translate(304,108)" filter="url(#tileShadow)">
    <polygon points="0,72 5,77 59,77 54,72" fill="url(#tileBottomGrad)"/>
    <polygon points="0,0 0,72 5,77 5,5" fill="url(#tileSideGrad)"/>
    <rect x="5" y="5" width="49" height="67" rx="5" fill="url(#tileGrad)"
          stroke="rgba(30,40,60,0.35)" stroke-width="1.2"/>
    <rect x="9" y="9" width="41" height="59" rx="3.5"
          fill="rgba(240,252,255,0.85)" stroke="rgba(30,40,60,0.12)" stroke-width="0.8"/>
    <text x="12" y="20" font-size="9" font-weight="700"
          fill="rgba(30,80,180,0.75)"
          font-family="system-ui,-apple-system,'Segoe UI',sans-serif">5筒</text>
    <!-- 5つのドット (2-1-2配置) -->
    <circle cx="20" cy="30" r="7" fill="#e03020" stroke="rgba(30,40,60,0.2)" stroke-width="1.2"/>
    <circle cx="20" cy="30" r="4" fill="none" stroke="rgba(255,255,255,0.55)" stroke-width="1"/>
    <circle cx="38" cy="30" r="7" fill="#2060cc" stroke="rgba(30,40,60,0.2)" stroke-width="1.2"/>
    <circle cx="38" cy="30" r="4" fill="none" stroke="rgba(255,255,255,0.55)" stroke-width="1"/>
    <circle cx="29" cy="44" r="7" fill="#e03020" stroke="rgba(30,40,60,0.2)" stroke-width="1.2"/>
    <circle cx="29" cy="44" r="4" fill="none" stroke="rgba(255,255,255,0.55)" stroke-width="1"/>
    <circle cx="20" cy="58" r="7" fill="#2060cc" stroke="rgba(30,40,60,0.2)" stroke-width="1.2"/>
    <circle cx="20" cy="58" r="4" fill="none" stroke="rgba(255,255,255,0.55)" stroke-width="1"/>
    <circle cx="38" cy="58" r="7" fill="#e03020" stroke="rgba(30,40,60,0.2)" stroke-width="1.2"/>
    <circle cx="38" cy="58" r="4" fill="none" stroke="rgba(255,255,255,0.55)" stroke-width="1"/>
  </g>

  <!-- ---- 牌6: 4索 ---- -->
  <g transform="translate(366,108)" filter="url(#tileShadow)">
    <polygon points="0,72 5,77 59,77 54,72" fill="url(#tileBottomGrad)"/>
    <polygon points="0,0 0,72 5,77 5,5" fill="url(#tileSideGrad)"/>
    <rect x="5" y="5" width="49" height="67" rx="5" fill="url(#tileGrad)"
          stroke="rgba(30,40,60,0.35)" stroke-width="1.2"/>
    <rect x="9" y="9" width="41" height="59" rx="3.5"
          fill="rgba(240,252,255,0.85)" stroke="rgba(30,40,60,0.12)" stroke-width="0.8"/>
    <text x="12" y="20" font-size="9" font-weight="700"
          fill="rgba(20,120,40,0.8)"
          font-family="system-ui,-apple-system,'Segoe UI',sans-serif">4索</text>
    <!-- 4本の竹節（2列×2行） -->
    <!-- 左列 -->
    <rect x="14" y="22" width="8" height="20" rx="3" fill="#1a9430"/>
    <circle cx="18" cy="22" r="5" fill="#22c55e" stroke="rgba(10,30,10,0.3)" stroke-width="0.8"/>
    <rect x="14" y="48" width="8" height="20" rx="3" fill="#1a9430"/>
    <circle cx="18" cy="48" r="5" fill="#22c55e" stroke="rgba(10,30,10,0.3)" stroke-width="0.8"/>
    <!-- 右列 -->
    <rect x="36" y="22" width="8" height="20" rx="3" fill="#1a9430"/>
    <circle cx="40" cy="22" r="5" fill="#22c55e" stroke="rgba(10,30,10,0.3)" stroke-width="0.8"/>
    <rect x="36" y="48" width="8" height="20" rx="3" fill="#1a9430"/>
    <circle cx="40" cy="48" r="5" fill="#22c55e" stroke="rgba(10,30,10,0.3)" stroke-width="0.8"/>
  </g>

  <!-- ---- 牌7: 中（赤） ---- -->
  <g transform="translate(428,108)" filter="url(#tileShadow)">
    <polygon points="0,72 5,77 59,77 54,72" fill="url(#tileBottomGrad)"/>
    <polygon points="0,0 0,72 5,77 5,5" fill="url(#tileSideGrad)"/>
    <rect x="5" y="5" width="49" height="67" rx="5" fill="url(#tileGrad)"
          stroke="rgba(30,40,60,0.35)" stroke-width="1.2"/>
    <rect x="9" y="9" width="41" height="59" rx="3.5"
          fill="rgba(240,252,255,0.85)" stroke="rgba(30,40,60,0.12)" stroke-width="0.8"/>
    <text x="12" y="20" font-size="9" font-weight="700"
          fill="rgba(180,20,20,0.7)"
          font-family="system-ui,-apple-system,'Segoe UI',sans-serif">中</text>
    <text x="29" y="65" text-anchor="middle" font-size="42" font-weight="900"
          fill="#dd1010"
          font-family="system-ui,-apple-system,'Segoe UI',sans-serif">中</text>
  </g>

  <!-- ---- 牌8: 發（緑） ---- -->
  <g transform="translate(490,108)" filter="url(#tileShadow)">
    <polygon points="0,72 5,77 59,77 54,72" fill="url(#tileBottomGrad)"/>
    <polygon points="0,0 0,72 5,77 5,5" fill="url(#tileSideGrad)"/>
    <rect x="5" y="5" width="49" height="67" rx="5" fill="url(#tileGrad)"
          stroke="rgba(30,40,60,0.35)" stroke-width="1.2"/>
    <rect x="9" y="9" width="41" height="59" rx="3.5"
          fill="rgba(240,252,255,0.85)" stroke="rgba(30,40,60,0.12)" stroke-width="0.8"/>
    <text x="12" y="20" font-size="9" font-weight="700"
          fill="rgba(20,140,40,0.75)"
          font-family="system-ui,-apple-system,'Segoe UI',sans-serif">發</text>
    <text x="29" y="65" text-anchor="middle" font-size="38" font-weight="900"
          fill="#0d9e2a"
          font-family="system-ui,-apple-system,'Segoe UI',sans-serif">發</text>
  </g>

  <!-- ======== 牌全体のネオングロー（シアン） ======== -->
  <!-- 牌列の下のグロー帯 -->
  <rect x="56" y="183" width="493" height="4" rx="2"
        fill="none" stroke="#00e5cc" stroke-width="1"
        opacity="0.50" filter="url(#glowCyan)"/>

  <!-- ======== タイトルテキスト ======== -->
  <!-- グロー背景 -->
  <text x="38" y="78" font-size="30" font-weight="900"
        fill="#00e5cc" opacity="0.35"
        font-family="system-ui,-apple-system,'Segoe UI',sans-serif"
        letter-spacing="3">AI 麻雀</text>
  <!-- メインテキスト -->
  <text x="38" y="78" font-size="30" font-weight="900"
        fill="#e0f8f5"
        font-family="system-ui,-apple-system,'Segoe UI',sans-serif"
        letter-spacing="3"
        filter="url(#textGlow)">AI 麻雀</text>

  <!-- サブテキスト -->
  <text x="40" y="98" font-size="11.5" font-weight="500"
        fill="rgba(160,220,200,0.88)"
        font-family="system-ui,-apple-system,'Segoe UI',sans-serif"
        letter-spacing="0.5">2-Player · No-Call Rules · AI Analysis</text>

  <!-- ======== 装飾：右下のAIバッジ ======== -->
  <rect x="503" y="30" width="72" height="24" rx="5"
        fill="rgba(139,92,246,0.20)" stroke="#8b5cf6" stroke-width="1.2" opacity="0.9"/>
  <text x="539" y="46" text-anchor="middle" font-size="11" font-weight="700"
        fill="#c4b5fd"
        font-family="system-ui,-apple-system,'Segoe UI',sans-serif"
        letter-spacing="1">AI Powered</text>
</svg>
