<svg xmlns="http://www.w3.org/2000/svg" viewBox="0 0 112 96">
  <rect width="112" height="96" fill="#0d1117"/>
  <!-- notebook body -->
  <rect x="14" y="10" width="70" height="76" rx="5" fill="rgba(255,255,255,0.04)" stroke="rgba(255,255,255,0.12)" stroke-width="1"/>
  <!-- spine -->
  <rect x="14" y="10" width="8" height="76" rx="3" fill="rgba(0,229,255,0.18)"/>
  <!-- dot grid -->
  <g fill="rgba(255,255,255,0.12)">
    <circle cx="34" cy="26" r="1"/><circle cx="42" cy="26" r="1"/><circle cx="50" cy="26" r="1"/><circle cx="58" cy="26" r="1"/><circle cx="66" cy="26" r="1"/><circle cx="74" cy="26" r="1"/>
    <circle cx="34" cy="34" r="1"/><circle cx="42" cy="34" r="1"/><circle cx="50" cy="34" r="1"/><circle cx="58" cy="34" r="1"/><circle cx="66" cy="34" r="1"/><circle cx="74" cy="34" r="1"/>
    <circle cx="34" cy="42" r="1"/><circle cx="42" cy="42" r="1"/><circle cx="50" cy="42" r="1"/><circle cx="58" cy="42" r="1"/><circle cx="66" cy="42" r="1"/><circle cx="74" cy="42" r="1"/>
    <circle cx="34" cy="50" r="1"/><circle cx="42" cy="50" r="1"/><circle cx="50" cy="50" r="1"/><circle cx="58" cy="50" r="1"/><circle cx="66" cy="50" r="1"/><circle cx="74" cy="50" r="1"/>
  </g>
  <!-- text lines (content) -->
  <rect x="28" y="60" width="38" height="3" rx="1.5" fill="rgba(0,229,255,0.55)"/>
  <rect x="28" y="67" width="28" height="3" rx="1.5" fill="rgba(0,229,255,0.35)"/>
  <rect x="28" y="74" width="34" height="3" rx="1.5" fill="rgba(0,229,255,0.25)"/>
  <!-- AI spark icon -->
  <circle cx="88" cy="26" r="14" fill="rgba(155,89,255,0.15)" stroke="rgba(155,89,255,0.5)" stroke-width="1.2"/>
  <text x="88" y="31" text-anchor="middle" font-size="14" fill="#9b59ff">✦</text>
</svg>
