<svg xmlns="http://www.w3.org/2000/svg" width="1920" height="1080" viewBox="0 0 1920 1080">
  <defs>
    <linearGradient id="sky" x1="0" y1="0" x2="0" y2="1">
      <stop offset="0" stop-color="#09050a"/>
      <stop offset="0.55" stop-color="#05040a"/>
      <stop offset="1" stop-color="#020208"/>
    </linearGradient>
    <radialGradient id="glow" cx="58%" cy="72%" r="45%">
      <stop offset="0" stop-color="#ff4d00" stop-opacity="0.55"/>
      <stop offset="0.35" stop-color="#ff2a00" stop-opacity="0.22"/>
      <stop offset="1" stop-color="#ff2a00" stop-opacity="0"/>
    </radialGradient>
  </defs>

  <rect width="1920" height="1080" fill="url(#sky)"/>

  <!-- Basalt -->
  <path d="M0 720 C200 650 420 760 640 690 C860 620 1030 780 1220 720 C1410 660 1620 760 1920 700 V1080 H0 Z" fill="#0a0a12" opacity="0.98"/>
  <path d="M0 860 C260 805 420 920 650 880 C900 835 1080 980 1320 920 C1540 872 1720 950 1920 910 V1080 H0 Z" fill="#05060c" opacity="0.98"/>

  <!-- Lava river -->
  <path d="M-40 940 C220 870 420 1020 660 960 C920 895 1100 1040 1350 990 C1560 955 1730 1010 1980 955" stroke="#ff7a18" stroke-width="22" opacity="0.65" fill="none"/>
  <path d="M-40 940 C220 870 420 1020 660 960 C920 895 1100 1040 1350 990 C1560 955 1730 1010 1980 955" stroke="#ffd2a1" stroke-width="6" opacity="0.25" fill="none"/>

  <!-- Cracks -->
  <g stroke="#ff3b00" stroke-width="4" opacity="0.18">
    <path d="M240 700 L310 760 L270 820 L360 900" fill="none"/>
    <path d="M540 740 L620 800 L590 870 L670 950" fill="none"/>
    <path d="M980 710 L1040 770 L1000 840 L1090 920" fill="none"/>
    <path d="M1420 730 L1500 790 L1470 865 L1555 945" fill="none"/>
  </g>

  <rect width="1920" height="1080" fill="url(#glow)"/>

  <!-- Vignette -->
  <radialGradient id="v" cx="50%" cy="45%" r="75%">
    <stop offset="0" stop-color="#000" stop-opacity="0"/>
    <stop offset="0.7" stop-color="#000" stop-opacity="0.35"/>
    <stop offset="1" stop-color="#000" stop-opacity="0.78"/>
  </radialGradient>
  <rect width="1920" height="1080" fill="url(#v)"/>
</svg>

