<svg xmlns="http://www.w3.org/2000/svg" viewBox="0 0 64 64">
  <!-- 太陽 -->
  <circle cx="22" cy="22" r="10" fill="#FDD835"/>
  <g stroke="#FDD835" stroke-width="2.5" stroke-linecap="round">
    <line x1="22" y1="6"  x2="22" y2="12"/>
    <line x1="22" y1="32" x2="22" y2="38"/>
    <line x1="6"  y1="22" x2="12" y2="22"/>
    <line x1="32" y1="22" x2="38" y2="22"/>
    <line x1="11" y1="11" x2="15" y2="15"/>
    <line x1="29" y1="29" x2="33" y2="33"/>
    <line x1="33" y1="11" x2="29" y2="15"/>
    <line x1="15" y1="29" x2="11" y2="33"/>
  </g>
  <!-- 雲 -->
  <path d="M50 52H24a9 9 0 0 1 0-18 10 10 0 0 1 19-4 8 8 0 0 1 7 8 8 8 0 0 1 0 14Z" fill="#90CAF9"/>
</svg>
