<svg xmlns="http://www.w3.org/2000/svg" viewBox="0 0 64 64">
  <path d="M50 38H18a10 10 0 0 1 0-20 11 11 0 0 1 21-3 9 9 0 0 1 11 11 9 9 0 0 1 0 12Z" fill="#90CAF9"/>
  <!-- 雪の結晶3つ -->
  <g stroke="#42A5F5" stroke-width="2" stroke-linecap="round">
    <!-- 左の結晶 -->
    <line x1="22" y1="44" x2="22" y2="56"/>
    <line x1="16" y1="47" x2="28" y2="53"/>
    <line x1="28" y1="47" x2="16" y2="53"/>
    <!-- 右の結晶 -->
    <line x1="42" y1="44" x2="42" y2="56"/>
    <line x1="36" y1="47" x2="48" y2="53"/>
    <line x1="48" y1="47" x2="36" y2="53"/>
  </g>
  <circle cx="22" cy="44" r="1.5" fill="#1976D2"/>
  <circle cx="22" cy="56" r="1.5" fill="#1976D2"/>
  <circle cx="42" cy="44" r="1.5" fill="#1976D2"/>
  <circle cx="42" cy="56" r="1.5" fill="#1976D2"/>
</svg>
